<?xml version="1.0" encoding="utf-8" standalone="no"?>
<!DOCTYPE svg PUBLIC "-//W3C//DTD SVG 1.1//EN"
  "http://www.w3.org/Graphics/SVG/1.1/DTD/svg11.dtd">
<svg xmlns:xlink="http://www.w3.org/1999/xlink" width="839.738915pt" height="489.933485pt" viewBox="0 0 839.738915 489.933485" xmlns="http://www.w3.org/2000/svg" version="1.1">
 <metadata>
  <rdf:RDF xmlns:dc="http://purl.org/dc/elements/1.1/" xmlns:cc="http://creativecommons.org/ns#" xmlns:rdf="http://www.w3.org/1999/02/22-rdf-syntax-ns#">
   <cc:Work>
    <dc:type rdf:resource="http://purl.org/dc/dcmitype/StillImage"/>
    <dc:date>2025-04-16T11:12:23.044135</dc:date>
    <dc:format>image/svg+xml</dc:format>
    <dc:creator>
     <cc:Agent>
      <dc:title>Matplotlib v3.10.0, https://matplotlib.org/</dc:title>
     </cc:Agent>
    </dc:creator>
   </cc:Work>
  </rdf:RDF>
 </metadata>
 <defs>
  <style type="text/css">*{stroke-linejoin: round; stroke-linecap: butt}</style>
 </defs>
 <g id="figure_1">
  <g id="patch_1">
   <path d="M -0 489.933485 
L 839.738915 489.933485 
L 839.738915 0 
L -0 0 
z
" style="fill: #ffffff"/>
  </g>
  <g id="axes_1">
   <g id="patch_2">
    <path d="M 385.775165 239.117485 
C 385.775165 214.574527 380.940737 190.270219 371.548554 167.595482 
C 362.15637 144.920746 348.389085 124.316548 331.034593 106.962056 
C 313.680102 89.607564 293.075904 75.840279 270.401167 66.448096 
C 247.726431 57.055913 223.422122 52.221485 198.879165 52.221485 
C 174.336207 52.221485 150.031898 57.055913 127.357162 66.448096 
C 104.682425 75.840279 84.078227 89.607564 66.723736 106.962056 
C 49.369244 124.316548 35.601959 144.920746 26.209775 167.595482 
C 16.817592 190.270219 11.983165 214.574527 11.983165 239.117485 
C 11.983165 263.660443 16.817592 287.964751 26.209775 310.639488 
C 35.601959 333.314224 49.369244 353.918422 66.723736 371.272914 
C 84.078227 388.627406 104.682425 402.394691 127.357162 411.786874 
C 150.031898 421.179057 174.336207 426.013485 198.879165 426.013485 
C 223.422122 426.013485 247.726431 421.179057 270.401167 411.786874 
C 293.075904 402.394691 313.680102 388.627406 331.034593 371.272914 
C 348.389085 353.918422 362.15637 333.314224 371.548554 310.639488 
C 380.940737 287.964751 385.775165 263.660443 385.775165 239.117485 
M 198.879165 239.117485 
C 198.879165 239.117485 198.879165 239.117485 198.879165 239.117485 
C 198.879165 239.117485 198.879165 239.117485 198.879165 239.117485 
C 198.879165 239.117485 198.879165 239.117485 198.879165 239.117485 
C 198.879165 239.117485 198.879165 239.117485 198.879165 239.117485 
C 198.879165 239.117485 198.879165 239.117485 198.879165 239.117485 
C 198.879165 239.117485 198.879165 239.117485 198.879165 239.117485 
C 198.879165 239.117485 198.879165 239.117485 198.879165 239.117485 
C 198.879165 239.117485 198.879165 239.117485 198.879165 239.117485 
C 198.879165 239.117485 198.879165 239.117485 198.879165 239.117485 
C 198.879165 239.117485 198.879165 239.117485 198.879165 239.117485 
C 198.879165 239.117485 198.879165 239.117485 198.879165 239.117485 
C 198.879165 239.117485 198.879165 239.117485 198.879165 239.117485 
C 198.879165 239.117485 198.879165 239.117485 198.879165 239.117485 
C 198.879165 239.117485 198.879165 239.117485 198.879165 239.117485 
C 198.879165 239.117485 198.879165 239.117485 198.879165 239.117485 
C 198.879165 239.117485 198.879165 239.117485 198.879165 239.117485 
z
" style="fill: #ffffff"/>
   </g>
   <g id="patch_3">
    <path d="M 198.879165 212.418056 
L 222.001548 225.767771 
L 222.001548 252.467199 
L 198.879165 265.816914 
L 175.756781 252.467199 
L 153.746916 213.060369 
z
" clip-path="url(#p1a1f781d5c)" style="opacity: 0.1; stroke: #000000; stroke-linejoin: miter"/>
   </g>
   <g id="patch_4">
    <path d="M 198.879165 168.829419 
L 265.55013 200.624985 
L 281.698632 286.933327 
L 198.879165 340.772575 
L 164.664005 258.871617 
L 161.038091 217.269931 
z
" clip-path="url(#p1a1f781d5c)" style="fill: #0000ff; opacity: 0.1; stroke: #0000ff; stroke-linejoin: miter"/>
   </g>
   <g id="patch_5">
    <path d="M 198.879165 164.298446 
L 274.336192 195.55235 
L 299.15564 297.012135 
L 198.879165 356.257152 
L 117.684468 285.995265 
L 175.756781 225.767771 
z
" clip-path="url(#p1a1f781d5c)" style="fill: #ffa500; opacity: 0.1; stroke: #ffa500; stroke-linejoin: miter"/>
   </g>
   <g id="patch_6">
    <path d="M 198.879165 132.006181 
L 311.751134 173.950823 
L 341.057034 321.203916 
L 198.879165 412.703237 
L 101.416161 295.387776 
L 137.882658 203.901135 
z
" clip-path="url(#p1a1f781d5c)" style="fill: #008000; opacity: 0.1; stroke: #008000; stroke-linejoin: miter"/>
   </g>
   <g id="patch_7">
    <path d="M 198.879165 157.173278 
L 313.550354 172.912043 
L 340.337068 320.788244 
L 198.879165 394.151547 
L 74.005104 311.213557 
L 149.761525 210.759403 
z
" clip-path="url(#p1a1f781d5c)" style="fill: #ff0000; opacity: 0.1; stroke: #ff0000; stroke-linejoin: miter"/>
   </g>
   <g id="matplotlib.axis_1">
    <g id="xtick_1">
     <g id="line2d_1">
      <path d="M 198.879165 239.117485 
L 198.879165 52.221485 
" clip-path="url(#p1a1f781d5c)" style="fill: none; stroke: #b0b0b0; stroke-width: 0.8; stroke-linecap: square"/>
     </g>
     <g id="text_1">
      <!-- PAI -->
      <g transform="translate(189.769477 41.532735) scale(0.12 -0.12)">
       <defs>
        <path id="DejaVuSans-50" d="M 1259 4147 
L 1259 2394 
L 2053 2394 
Q 2494 2394 2734 2622 
Q 2975 2850 2975 3272 
Q 2975 3691 2734 3919 
Q 2494 4147 2053 4147 
L 1259 4147 
z
M 628 4666 
L 2053 4666 
Q 2838 4666 3239 4311 
Q 3641 3956 3641 3272 
Q 3641 2581 3239 2228 
Q 2838 1875 2053 1875 
L 1259 1875 
L 1259 0 
L 628 0 
L 628 4666 
z
" transform="scale(0.015625)"/>
        <path id="DejaVuSans-41" d="M 2188 4044 
L 1331 1722 
L 3047 1722 
L 2188 4044 
z
M 1831 4666 
L 2547 4666 
L 4325 0 
L 3669 0 
L 3244 1197 
L 1141 1197 
L 716 0 
L 50 0 
L 1831 4666 
z
" transform="scale(0.015625)"/>
        <path id="DejaVuSans-49" d="M 628 4666 
L 1259 4666 
L 1259 0 
L 628 0 
L 628 4666 
z
" transform="scale(0.015625)"/>
       </defs>
       <use xlink:href="#DejaVuSans-50"/>
       <use xlink:href="#DejaVuSans-41" transform="translate(53.927734 0)"/>
       <use xlink:href="#DejaVuSans-49" transform="translate(122.335938 0)"/>
      </g>
     </g>
    </g>
    <g id="xtick_2">
     <g id="line2d_2">
      <path d="M 198.879165 239.117485 
L 360.735848 145.669485 
" clip-path="url(#p1a1f781d5c)" style="fill: none; stroke: #b0b0b0; stroke-width: 0.8; stroke-linecap: square"/>
     </g>
     <g id="text_2">
      <!-- WLV -->
      <g transform="translate(360.140204 141.980735) scale(0.12 -0.12)">
       <defs>
        <path id="DejaVuSans-57" d="M 213 4666 
L 850 4666 
L 1831 722 
L 2809 4666 
L 3519 4666 
L 4500 722 
L 5478 4666 
L 6119 4666 
L 4947 0 
L 4153 0 
L 3169 4050 
L 2175 0 
L 1381 0 
L 213 4666 
z
" transform="scale(0.015625)"/>
        <path id="DejaVuSans-4c" d="M 628 4666 
L 1259 4666 
L 1259 531 
L 3531 531 
L 3531 0 
L 628 0 
L 628 4666 
z
" transform="scale(0.015625)"/>
        <path id="DejaVuSans-56" d="M 1831 0 
L 50 4666 
L 709 4666 
L 2188 738 
L 3669 4666 
L 4325 4666 
L 2547 0 
L 1831 0 
z
" transform="scale(0.015625)"/>
       </defs>
       <use xlink:href="#DejaVuSans-57"/>
       <use xlink:href="#DejaVuSans-4c" transform="translate(98.876953 0)"/>
       <use xlink:href="#DejaVuSans-56" transform="translate(143.589844 0)"/>
      </g>
     </g>
    </g>
    <g id="xtick_3">
     <g id="line2d_3">
      <path d="M 198.879165 239.117485 
L 360.735848 332.565485 
" clip-path="url(#p1a1f781d5c)" style="fill: none; stroke: #b0b0b0; stroke-width: 0.8; stroke-linecap: square"/>
     </g>
     <g id="text_3">
      <!-- WST -->
      <g transform="translate(359.453954 342.876735) scale(0.12 -0.12)">
       <defs>
        <path id="DejaVuSans-53" d="M 3425 4513 
L 3425 3897 
Q 3066 4069 2747 4153 
Q 2428 4238 2131 4238 
Q 1616 4238 1336 4038 
Q 1056 3838 1056 3469 
Q 1056 3159 1242 3001 
Q 1428 2844 1947 2747 
L 2328 2669 
Q 3034 2534 3370 2195 
Q 3706 1856 3706 1288 
Q 3706 609 3251 259 
Q 2797 -91 1919 -91 
Q 1588 -91 1214 -16 
Q 841 59 441 206 
L 441 856 
Q 825 641 1194 531 
Q 1563 422 1919 422 
Q 2459 422 2753 634 
Q 3047 847 3047 1241 
Q 3047 1584 2836 1778 
Q 2625 1972 2144 2069 
L 1759 2144 
Q 1053 2284 737 2584 
Q 422 2884 422 3419 
Q 422 4038 858 4394 
Q 1294 4750 2059 4750 
Q 2388 4750 2728 4690 
Q 3069 4631 3425 4513 
z
" transform="scale(0.015625)"/>
        <path id="DejaVuSans-54" d="M -19 4666 
L 3928 4666 
L 3928 4134 
L 2272 4134 
L 2272 0 
L 1638 0 
L 1638 4134 
L -19 4134 
L -19 4666 
z
" transform="scale(0.015625)"/>
       </defs>
       <use xlink:href="#DejaVuSans-57"/>
       <use xlink:href="#DejaVuSans-53" transform="translate(98.876953 0)"/>
       <use xlink:href="#DejaVuSans-54" transform="translate(162.353516 0)"/>
      </g>
     </g>
    </g>
    <g id="xtick_4">
     <g id="line2d_4">
      <path d="M 198.879165 239.117485 
L 198.879165 426.013485 
" clip-path="url(#p1a1f781d5c)" style="fill: none; stroke: #b0b0b0; stroke-width: 0.8; stroke-linecap: square"/>
     </g>
     <g id="text_4">
      <!-- WSO -->
      <g transform="translate(184.414477 443.324735) scale(0.12 -0.12)">
       <defs>
        <path id="DejaVuSans-4f" d="M 2522 4238 
Q 1834 4238 1429 3725 
Q 1025 3213 1025 2328 
Q 1025 1447 1429 934 
Q 1834 422 2522 422 
Q 3209 422 3611 934 
Q 4013 1447 4013 2328 
Q 4013 3213 3611 3725 
Q 3209 4238 2522 4238 
z
M 2522 4750 
Q 3503 4750 4090 4092 
Q 4678 3434 4678 2328 
Q 4678 1225 4090 567 
Q 3503 -91 2522 -91 
Q 1538 -91 948 565 
Q 359 1222 359 2328 
Q 359 3434 948 4092 
Q 1538 4750 2522 4750 
z
" transform="scale(0.015625)"/>
       </defs>
       <use xlink:href="#DejaVuSans-57"/>
       <use xlink:href="#DejaVuSans-53" transform="translate(98.876953 0)"/>
       <use xlink:href="#DejaVuSans-4f" transform="translate(162.353516 0)"/>
      </g>
     </g>
    </g>
    <g id="xtick_5">
     <g id="line2d_5">
      <path d="M 198.879165 239.117485 
L 37.022481 332.565485 
" clip-path="url(#p1a1f781d5c)" style="fill: none; stroke: #b0b0b0; stroke-width: 0.8; stroke-linecap: square"/>
     </g>
     <g id="text_5">
      <!-- WAGT -->
      <g transform="translate(7.2 342.876735) scale(0.12 -0.12)">
       <defs>
        <path id="DejaVuSans-47" d="M 3809 666 
L 3809 1919 
L 2778 1919 
L 2778 2438 
L 4434 2438 
L 4434 434 
Q 4069 175 3628 42 
Q 3188 -91 2688 -91 
Q 1594 -91 976 548 
Q 359 1188 359 2328 
Q 359 3472 976 4111 
Q 1594 4750 2688 4750 
Q 3144 4750 3555 4637 
Q 3966 4525 4313 4306 
L 4313 3634 
Q 3963 3931 3569 4081 
Q 3175 4231 2741 4231 
Q 1884 4231 1454 3753 
Q 1025 3275 1025 2328 
Q 1025 1384 1454 906 
Q 1884 428 2741 428 
Q 3075 428 3337 486 
Q 3600 544 3809 666 
z
" transform="scale(0.015625)"/>
       </defs>
       <use xlink:href="#DejaVuSans-57"/>
       <use xlink:href="#DejaVuSans-41" transform="translate(93.376953 0)"/>
       <use xlink:href="#DejaVuSans-47" transform="translate(160.035156 0)"/>
       <use xlink:href="#DejaVuSans-54" transform="translate(233.900391 0)"/>
      </g>
     </g>
    </g>
    <g id="xtick_6">
     <g id="line2d_6">
      <path d="M 198.879165 239.117485 
L 37.022481 145.669485 
" clip-path="url(#p1a1f781d5c)" style="fill: none; stroke: #b0b0b0; stroke-width: 0.8; stroke-linecap: square"/>
     </g>
     <g id="text_6">
      <!-- YIELD -->
      <g transform="translate(7.709062 141.980735) scale(0.12 -0.12)">
       <defs>
        <path id="DejaVuSans-59" d="M -13 4666 
L 666 4666 
L 1959 2747 
L 3244 4666 
L 3922 4666 
L 2272 2222 
L 2272 0 
L 1638 0 
L 1638 2222 
L -13 4666 
z
" transform="scale(0.015625)"/>
        <path id="DejaVuSans-45" d="M 628 4666 
L 3578 4666 
L 3578 4134 
L 1259 4134 
L 1259 2753 
L 3481 2753 
L 3481 2222 
L 1259 2222 
L 1259 531 
L 3634 531 
L 3634 0 
L 628 0 
L 628 4666 
z
" transform="scale(0.015625)"/>
        <path id="DejaVuSans-44" d="M 1259 4147 
L 1259 519 
L 2022 519 
Q 2988 519 3436 956 
Q 3884 1394 3884 2338 
Q 3884 3275 3436 3711 
Q 2988 4147 2022 4147 
L 1259 4147 
z
M 628 4666 
L 1925 4666 
Q 3281 4666 3915 4102 
Q 4550 3538 4550 2338 
Q 4550 1131 3912 565 
Q 3275 0 1925 0 
L 628 0 
L 628 4666 
z
" transform="scale(0.015625)"/>
       </defs>
       <use xlink:href="#DejaVuSans-59"/>
       <use xlink:href="#DejaVuSans-49" transform="translate(61.083984 0)"/>
       <use xlink:href="#DejaVuSans-45" transform="translate(90.576172 0)"/>
       <use xlink:href="#DejaVuSans-4c" transform="translate(153.759766 0)"/>
       <use xlink:href="#DejaVuSans-44" transform="translate(209.472656 0)"/>
      </g>
     </g>
    </g>
   </g>
   <g id="matplotlib.axis_2">
    <g id="ytick_1">
     <g id="line2d_7">
      <path d="M 198.879165 239.117485 
C 198.879165 239.117485 198.879165 239.117485 198.879165 239.117485 
C 198.879165 239.117485 198.879165 239.117485 198.879165 239.117485 
C 198.879165 239.117485 198.879165 239.117485 198.879165 239.117485 
C 198.879165 239.117485 198.879165 239.117485 198.879165 239.117485 
C 198.879165 239.117485 198.879165 239.117485 198.879165 239.117485 
C 198.879165 239.117485 198.879165 239.117485 198.879165 239.117485 
C 198.879165 239.117485 198.879165 239.117485 198.879165 239.117485 
C 198.879165 239.117485 198.879165 239.117485 198.879165 239.117485 
C 198.879165 239.117485 198.879165 239.117485 198.879165 239.117485 
C 198.879165 239.117485 198.879165 239.117485 198.879165 239.117485 
C 198.879165 239.117485 198.879165 239.117485 198.879165 239.117485 
C 198.879165 239.117485 198.879165 239.117485 198.879165 239.117485 
C 198.879165 239.117485 198.879165 239.117485 198.879165 239.117485 
C 198.879165 239.117485 198.879165 239.117485 198.879165 239.117485 
C 198.879165 239.117485 198.879165 239.117485 198.879165 239.117485 
C 198.879165 239.117485 198.879165 239.117485 198.879165 239.117485 
" clip-path="url(#p1a1f781d5c)" style="fill: none; stroke: #b0b0b0; stroke-width: 0.8; stroke-linecap: square"/>
     </g>
    </g>
    <g id="ytick_2">
     <g id="line2d_8">
      <path d="M 198.879165 212.418056 
C 202.385301 212.418056 205.857345 213.108689 209.096593 214.450429 
C 212.335842 215.79217 215.279298 217.758925 217.758512 220.238138 
C 220.237725 222.717351 222.20448 225.660808 223.54622 228.900056 
C 224.887961 232.139304 225.578593 235.611348 225.578593 239.117485 
C 225.578593 242.623622 224.887961 246.095666 223.54622 249.334914 
C 222.20448 252.574162 220.237725 255.517619 217.758512 257.996832 
C 215.279298 260.476045 212.335842 262.4428 209.096593 263.784541 
C 205.857345 265.126281 202.385301 265.816914 198.879165 265.816914 
C 195.373028 265.816914 191.900984 265.126281 188.661736 263.784541 
C 185.422487 262.4428 182.479031 260.476045 179.999818 257.996832 
C 177.520604 255.517619 175.553849 252.574162 174.212109 249.334914 
C 172.870368 246.095666 172.179736 242.623622 172.179736 239.117485 
C 172.179736 235.611348 172.870368 232.139304 174.212109 228.900056 
C 175.553849 225.660808 177.520604 222.717351 179.999818 220.238138 
C 182.479031 217.758925 185.422487 215.79217 188.661736 214.450429 
C 191.900984 213.108689 195.373028 212.418056 198.879165 212.418056 
" clip-path="url(#p1a1f781d5c)" style="fill: none; stroke: #b0b0b0; stroke-width: 0.8; stroke-linecap: square"/>
     </g>
     <g id="text_7">
      <!-- 0 -->
      <g transform="translate(225.578593 236.62186) scale(0.12 -0.12)">
       <defs>
        <path id="DejaVuSans-30" d="M 2034 4250 
Q 1547 4250 1301 3770 
Q 1056 3291 1056 2328 
Q 1056 1369 1301 889 
Q 1547 409 2034 409 
Q 2525 409 2770 889 
Q 3016 1369 3016 2328 
Q 3016 3291 2770 3770 
Q 2525 4250 2034 4250 
z
M 2034 4750 
Q 2819 4750 3233 4129 
Q 3647 3509 3647 2328 
Q 3647 1150 3233 529 
Q 2819 -91 2034 -91 
Q 1250 -91 836 529 
Q 422 1150 422 2328 
Q 422 3509 836 4129 
Q 1250 4750 2034 4750 
z
" transform="scale(0.015625)"/>
       </defs>
       <use xlink:href="#DejaVuSans-30"/>
      </g>
     </g>
    </g>
    <g id="ytick_3">
     <g id="line2d_9">
      <path d="M 198.879165 159.019199 
C 209.397575 159.019199 219.813707 161.091097 229.531451 165.116318 
C 239.249196 169.14154 248.079566 175.041805 255.517206 182.479444 
C 262.954845 189.917083 268.85511 198.747454 272.880331 208.465198 
C 276.905553 218.182942 278.97745 228.599074 278.97745 239.117485 
C 278.97745 249.635896 276.905553 260.052028 272.880331 269.769772 
C 268.85511 279.487516 262.954845 288.317887 255.517206 295.755526 
C 248.079566 303.193165 239.249196 309.09343 229.531451 313.118652 
C 219.813707 317.143873 209.397575 319.215771 198.879165 319.215771 
C 188.360754 319.215771 177.944622 317.143873 168.226878 313.118652 
C 158.509133 309.09343 149.678763 303.193165 142.241124 295.755526 
C 134.803484 288.317887 128.903219 279.487516 124.877998 269.769772 
C 120.852776 260.052028 118.780879 249.635896 118.780879 239.117485 
C 118.780879 228.599074 120.852776 218.182942 124.877998 208.465198 
C 128.903219 198.747454 134.803484 189.917083 142.241124 182.479444 
C 149.678763 175.041805 158.509133 169.14154 168.226878 165.116318 
C 177.944622 161.091097 188.360754 159.019199 198.879165 159.019199 
" clip-path="url(#p1a1f781d5c)" style="fill: none; stroke: #b0b0b0; stroke-width: 0.8; stroke-linecap: square"/>
     </g>
     <g id="text_8">
      <!-- 0.2 -->
      <g transform="translate(278.97745 236.62186) scale(0.12 -0.12)">
       <defs>
        <path id="DejaVuSans-2e" d="M 684 794 
L 1344 794 
L 1344 0 
L 684 0 
L 684 794 
z
" transform="scale(0.015625)"/>
        <path id="DejaVuSans-32" d="M 1228 531 
L 3431 531 
L 3431 0 
L 469 0 
L 469 531 
Q 828 903 1448 1529 
Q 2069 2156 2228 2338 
Q 2531 2678 2651 2914 
Q 2772 3150 2772 3378 
Q 2772 3750 2511 3984 
Q 2250 4219 1831 4219 
Q 1534 4219 1204 4116 
Q 875 4013 500 3803 
L 500 4441 
Q 881 4594 1212 4672 
Q 1544 4750 1819 4750 
Q 2544 4750 2975 4387 
Q 3406 4025 3406 3419 
Q 3406 3131 3298 2873 
Q 3191 2616 2906 2266 
Q 2828 2175 2409 1742 
Q 1991 1309 1228 531 
z
" transform="scale(0.015625)"/>
       </defs>
       <use xlink:href="#DejaVuSans-30"/>
       <use xlink:href="#DejaVuSans-2e" transform="translate(63.623047 0)"/>
       <use xlink:href="#DejaVuSans-32" transform="translate(95.410156 0)"/>
      </g>
     </g>
    </g>
    <g id="ytick_4">
     <g id="line2d_10">
      <path d="M 198.879165 105.620342 
C 216.409849 105.620342 233.770069 109.073505 249.966309 115.782207 
C 266.16255 122.490909 280.879834 132.324684 293.2759 144.72075 
C 305.671965 157.116816 315.50574 171.8341 322.214442 188.03034 
C 328.923145 204.22658 332.376307 221.586801 332.376307 239.117485 
C 332.376307 256.648169 328.923145 274.00839 322.214442 290.20463 
C 315.50574 306.40087 305.671965 321.118154 293.2759 333.51422 
C 280.879834 345.910286 266.16255 355.744061 249.966309 362.452763 
C 233.770069 369.161465 216.409849 372.614628 198.879165 372.614628 
C 181.34848 372.614628 163.98826 369.161465 147.79202 362.452763 
C 131.595779 355.744061 116.878495 345.910286 104.48243 333.51422 
C 92.086364 321.118154 82.252589 306.40087 75.543887 290.20463 
C 68.835184 274.00839 65.382022 256.648169 65.382022 239.117485 
C 65.382022 221.586801 68.835184 204.22658 75.543887 188.03034 
C 82.252589 171.8341 92.086364 157.116816 104.48243 144.72075 
C 116.878495 132.324684 131.595779 122.490909 147.79202 115.782207 
C 163.98826 109.073505 181.34848 105.620342 198.879165 105.620342 
" clip-path="url(#p1a1f781d5c)" style="fill: none; stroke: #b0b0b0; stroke-width: 0.8; stroke-linecap: square"/>
     </g>
     <g id="text_9">
      <!-- 0.4 -->
      <g transform="translate(332.376307 236.62186) scale(0.12 -0.12)">
       <defs>
        <path id="DejaVuSans-34" d="M 2419 4116 
L 825 1625 
L 2419 1625 
L 2419 4116 
z
M 2253 4666 
L 3047 4666 
L 3047 1625 
L 3713 1625 
L 3713 1100 
L 3047 1100 
L 3047 0 
L 2419 0 
L 2419 1100 
L 313 1100 
L 313 1709 
L 2253 4666 
z
" transform="scale(0.015625)"/>
       </defs>
       <use xlink:href="#DejaVuSans-30"/>
       <use xlink:href="#DejaVuSans-2e" transform="translate(63.623047 0)"/>
       <use xlink:href="#DejaVuSans-34" transform="translate(95.410156 0)"/>
      </g>
     </g>
    </g>
    <g id="ytick_5">
     <g id="line2d_11">
      <path d="M 198.879165 52.221485 
C 223.422122 52.221485 247.726431 57.055913 270.401167 66.448096 
C 293.075904 75.840279 313.680102 89.607564 331.034593 106.962056 
C 348.389085 124.316548 362.15637 144.920746 371.548554 167.595482 
C 380.940737 190.270219 385.775165 214.574527 385.775165 239.117485 
C 385.775165 263.660443 380.940737 287.964751 371.548554 310.639488 
C 362.15637 333.314224 348.389085 353.918422 331.034593 371.272914 
C 313.680102 388.627406 293.075904 402.394691 270.401167 411.786874 
C 247.726431 421.179057 223.422122 426.013485 198.879165 426.013485 
C 174.336207 426.013485 150.031898 421.179057 127.357162 411.786874 
C 104.682425 402.394691 84.078227 388.627406 66.723736 371.272914 
C 49.369244 353.918422 35.601959 333.314224 26.209775 310.639488 
C 16.817592 287.964751 11.983165 263.660443 11.983165 239.117485 
C 11.983165 214.574527 16.817592 190.270219 26.209775 167.595482 
C 35.601959 144.920746 49.369244 124.316548 66.723736 106.962056 
C 84.078227 89.607564 104.682425 75.840279 127.357162 66.448096 
C 150.031898 57.055913 174.336207 52.221485 198.879165 52.221485 
" clip-path="url(#p1a1f781d5c)" style="fill: none; stroke: #b0b0b0; stroke-width: 0.8; stroke-linecap: square"/>
     </g>
     <g id="text_10">
      <!-- 0.6 -->
      <g transform="translate(385.775165 236.62186) scale(0.12 -0.12)">
       <defs>
        <path id="DejaVuSans-36" d="M 2113 2584 
Q 1688 2584 1439 2293 
Q 1191 2003 1191 1497 
Q 1191 994 1439 701 
Q 1688 409 2113 409 
Q 2538 409 2786 701 
Q 3034 994 3034 1497 
Q 3034 2003 2786 2293 
Q 2538 2584 2113 2584 
z
M 3366 4563 
L 3366 3988 
Q 3128 4100 2886 4159 
Q 2644 4219 2406 4219 
Q 1781 4219 1451 3797 
Q 1122 3375 1075 2522 
Q 1259 2794 1537 2939 
Q 1816 3084 2150 3084 
Q 2853 3084 3261 2657 
Q 3669 2231 3669 1497 
Q 3669 778 3244 343 
Q 2819 -91 2113 -91 
Q 1303 -91 875 529 
Q 447 1150 447 2328 
Q 447 3434 972 4092 
Q 1497 4750 2381 4750 
Q 2619 4750 2861 4703 
Q 3103 4656 3366 4563 
z
" transform="scale(0.015625)"/>
       </defs>
       <use xlink:href="#DejaVuSans-30"/>
       <use xlink:href="#DejaVuSans-2e" transform="translate(63.623047 0)"/>
       <use xlink:href="#DejaVuSans-36" transform="translate(95.410156 0)"/>
      </g>
     </g>
    </g>
   </g>
   <g id="line2d_12">
    <path d="M 198.879165 212.418056 
L 222.001548 225.767771 
L 222.001548 252.467199 
L 198.879165 265.816914 
L 175.756781 252.467199 
L 153.746916 213.060369 
L 198.879165 212.418056 
" clip-path="url(#p1a1f781d5c)" style="fill: none; stroke: #000000; stroke-width: 2; stroke-linecap: square"/>
   </g>
   <g id="line2d_13">
    <path d="M 198.879165 168.829419 
L 265.55013 200.624985 
L 281.698632 286.933327 
L 198.879165 340.772575 
L 164.664005 258.871617 
L 161.038091 217.269931 
L 198.879165 168.829419 
" clip-path="url(#p1a1f781d5c)" style="fill: none; stroke: #0000ff; stroke-width: 2; stroke-linecap: square"/>
   </g>
   <g id="line2d_14">
    <path d="M 198.879165 164.298446 
L 274.336192 195.55235 
L 299.15564 297.012135 
L 198.879165 356.257152 
L 117.684468 285.995265 
L 175.756781 225.767771 
L 198.879165 164.298446 
" clip-path="url(#p1a1f781d5c)" style="fill: none; stroke: #ffa500; stroke-width: 2; stroke-linecap: square"/>
   </g>
   <g id="line2d_15">
    <path d="M 198.879165 132.006181 
L 311.751134 173.950823 
L 341.057034 321.203916 
L 198.879165 412.703237 
L 101.416161 295.387776 
L 137.882658 203.901135 
L 198.879165 132.006181 
" clip-path="url(#p1a1f781d5c)" style="fill: none; stroke: #008000; stroke-width: 2; stroke-linecap: square"/>
   </g>
   <g id="line2d_16">
    <path d="M 198.879165 157.173278 
L 313.550354 172.912043 
L 340.337068 320.788244 
L 198.879165 394.151547 
L 74.005104 311.213557 
L 149.761525 210.759403 
L 198.879165 157.173278 
" clip-path="url(#p1a1f781d5c)" style="fill: none; stroke: #ff0000; stroke-width: 2; stroke-linecap: square"/>
   </g>
   <g id="patch_8">
    <path d="M 198.879165 52.221485 
C 174.336207 52.221485 150.031898 57.055913 127.357162 66.448096 
C 104.682425 75.840279 84.078227 89.607564 66.723736 106.962056 
C 49.369244 124.316548 35.601959 144.920746 26.209775 167.595482 
C 16.817592 190.270219 11.983165 214.574527 11.983165 239.117485 
C 11.983165 263.660443 16.817592 287.964751 26.209775 310.639488 
C 35.601959 333.314224 49.369244 353.918422 66.723736 371.272914 
C 84.078227 388.627406 104.682425 402.394691 127.357162 411.786874 
C 150.031898 421.179057 174.336207 426.013485 198.879165 426.013485 
C 223.422122 426.013485 247.726431 421.179057 270.401167 411.786874 
C 293.075904 402.394691 313.680102 388.627406 331.034593 371.272914 
C 348.389085 353.918422 362.15637 333.314224 371.548554 310.639488 
C 380.940737 287.964751 385.775165 263.660443 385.775165 239.117485 
C 385.775165 214.574527 380.940737 190.270219 371.548554 167.595482 
C 362.15637 144.920746 348.389085 124.316548 331.034593 106.962056 
C 313.680102 89.607564 293.075904 75.840279 270.401167 66.448096 
C 247.726431 57.055913 223.422122 52.221485 198.879165 52.221485 
" style="fill: none; stroke: #000000; stroke-width: 0.8; stroke-linejoin: miter; stroke-linecap: square"/>
   </g>
   <g id="text_11">
    <!-- (a) -->
    <g transform="translate(11.983165 30.620322) scale(0.14 -0.14)">
     <defs>
      <path id="DejaVuSans-28" d="M 1984 4856 
Q 1566 4138 1362 3434 
Q 1159 2731 1159 2009 
Q 1159 1288 1364 580 
Q 1569 -128 1984 -844 
L 1484 -844 
Q 1016 -109 783 600 
Q 550 1309 550 2009 
Q 550 2706 781 3412 
Q 1013 4119 1484 4856 
L 1984 4856 
z
" transform="scale(0.015625)"/>
      <path id="DejaVuSans-61" d="M 2194 1759 
Q 1497 1759 1228 1600 
Q 959 1441 959 1056 
Q 959 750 1161 570 
Q 1363 391 1709 391 
Q 2188 391 2477 730 
Q 2766 1069 2766 1631 
L 2766 1759 
L 2194 1759 
z
M 3341 1997 
L 3341 0 
L 2766 0 
L 2766 531 
Q 2569 213 2275 61 
Q 1981 -91 1556 -91 
Q 1019 -91 701 211 
Q 384 513 384 1019 
Q 384 1609 779 1909 
Q 1175 2209 1959 2209 
L 2766 2209 
L 2766 2266 
Q 2766 2663 2505 2880 
Q 2244 3097 1772 3097 
Q 1472 3097 1187 3025 
Q 903 2953 641 2809 
L 641 3341 
Q 956 3463 1253 3523 
Q 1550 3584 1831 3584 
Q 2591 3584 2966 3190 
Q 3341 2797 3341 1997 
z
" transform="scale(0.015625)"/>
      <path id="DejaVuSans-29" d="M 513 4856 
L 1013 4856 
Q 1481 4119 1714 3412 
Q 1947 2706 1947 2009 
Q 1947 1309 1714 600 
Q 1481 -109 1013 -844 
L 513 -844 
Q 928 -128 1133 580 
Q 1338 1288 1338 2009 
Q 1338 2731 1133 3434 
Q 928 4138 513 4856 
z
" transform="scale(0.015625)"/>
     </defs>
     <use xlink:href="#DejaVuSans-28"/>
     <use xlink:href="#DejaVuSans-61" transform="translate(39.013672 0)"/>
     <use xlink:href="#DejaVuSans-29" transform="translate(100.292969 0)"/>
    </g>
   </g>
   <g id="text_12">
    <!-- 2018-train, 2019-test -->
    <g transform="translate(134.709165 16.318125) scale(0.12 -0.12)">
     <defs>
      <path id="DejaVuSans-31" d="M 794 531 
L 1825 531 
L 1825 4091 
L 703 3866 
L 703 4441 
L 1819 4666 
L 2450 4666 
L 2450 531 
L 3481 531 
L 3481 0 
L 794 0 
L 794 531 
z
" transform="scale(0.015625)"/>
      <path id="DejaVuSans-38" d="M 2034 2216 
Q 1584 2216 1326 1975 
Q 1069 1734 1069 1313 
Q 1069 891 1326 650 
Q 1584 409 2034 409 
Q 2484 409 2743 651 
Q 3003 894 3003 1313 
Q 3003 1734 2745 1975 
Q 2488 2216 2034 2216 
z
M 1403 2484 
Q 997 2584 770 2862 
Q 544 3141 544 3541 
Q 544 4100 942 4425 
Q 1341 4750 2034 4750 
Q 2731 4750 3128 4425 
Q 3525 4100 3525 3541 
Q 3525 3141 3298 2862 
Q 3072 2584 2669 2484 
Q 3125 2378 3379 2068 
Q 3634 1759 3634 1313 
Q 3634 634 3220 271 
Q 2806 -91 2034 -91 
Q 1263 -91 848 271 
Q 434 634 434 1313 
Q 434 1759 690 2068 
Q 947 2378 1403 2484 
z
M 1172 3481 
Q 1172 3119 1398 2916 
Q 1625 2713 2034 2713 
Q 2441 2713 2670 2916 
Q 2900 3119 2900 3481 
Q 2900 3844 2670 4047 
Q 2441 4250 2034 4250 
Q 1625 4250 1398 4047 
Q 1172 3844 1172 3481 
z
" transform="scale(0.015625)"/>
      <path id="DejaVuSans-2d" d="M 313 2009 
L 1997 2009 
L 1997 1497 
L 313 1497 
L 313 2009 
z
" transform="scale(0.015625)"/>
      <path id="DejaVuSans-74" d="M 1172 4494 
L 1172 3500 
L 2356 3500 
L 2356 3053 
L 1172 3053 
L 1172 1153 
Q 1172 725 1289 603 
Q 1406 481 1766 481 
L 2356 481 
L 2356 0 
L 1766 0 
Q 1100 0 847 248 
Q 594 497 594 1153 
L 594 3053 
L 172 3053 
L 172 3500 
L 594 3500 
L 594 4494 
L 1172 4494 
z
" transform="scale(0.015625)"/>
      <path id="DejaVuSans-72" d="M 2631 2963 
Q 2534 3019 2420 3045 
Q 2306 3072 2169 3072 
Q 1681 3072 1420 2755 
Q 1159 2438 1159 1844 
L 1159 0 
L 581 0 
L 581 3500 
L 1159 3500 
L 1159 2956 
Q 1341 3275 1631 3429 
Q 1922 3584 2338 3584 
Q 2397 3584 2469 3576 
Q 2541 3569 2628 3553 
L 2631 2963 
z
" transform="scale(0.015625)"/>
      <path id="DejaVuSans-69" d="M 603 3500 
L 1178 3500 
L 1178 0 
L 603 0 
L 603 3500 
z
M 603 4863 
L 1178 4863 
L 1178 4134 
L 603 4134 
L 603 4863 
z
" transform="scale(0.015625)"/>
      <path id="DejaVuSans-6e" d="M 3513 2113 
L 3513 0 
L 2938 0 
L 2938 2094 
Q 2938 2591 2744 2837 
Q 2550 3084 2163 3084 
Q 1697 3084 1428 2787 
Q 1159 2491 1159 1978 
L 1159 0 
L 581 0 
L 581 3500 
L 1159 3500 
L 1159 2956 
Q 1366 3272 1645 3428 
Q 1925 3584 2291 3584 
Q 2894 3584 3203 3211 
Q 3513 2838 3513 2113 
z
" transform="scale(0.015625)"/>
      <path id="DejaVuSans-2c" d="M 750 794 
L 1409 794 
L 1409 256 
L 897 -744 
L 494 -744 
L 750 256 
L 750 794 
z
" transform="scale(0.015625)"/>
      <path id="DejaVuSans-20" transform="scale(0.015625)"/>
      <path id="DejaVuSans-39" d="M 703 97 
L 703 672 
Q 941 559 1184 500 
Q 1428 441 1663 441 
Q 2288 441 2617 861 
Q 2947 1281 2994 2138 
Q 2813 1869 2534 1725 
Q 2256 1581 1919 1581 
Q 1219 1581 811 2004 
Q 403 2428 403 3163 
Q 403 3881 828 4315 
Q 1253 4750 1959 4750 
Q 2769 4750 3195 4129 
Q 3622 3509 3622 2328 
Q 3622 1225 3098 567 
Q 2575 -91 1691 -91 
Q 1453 -91 1209 -44 
Q 966 3 703 97 
z
M 1959 2075 
Q 2384 2075 2632 2365 
Q 2881 2656 2881 3163 
Q 2881 3666 2632 3958 
Q 2384 4250 1959 4250 
Q 1534 4250 1286 3958 
Q 1038 3666 1038 3163 
Q 1038 2656 1286 2365 
Q 1534 2075 1959 2075 
z
" transform="scale(0.015625)"/>
      <path id="DejaVuSans-65" d="M 3597 1894 
L 3597 1613 
L 953 1613 
Q 991 1019 1311 708 
Q 1631 397 2203 397 
Q 2534 397 2845 478 
Q 3156 559 3463 722 
L 3463 178 
Q 3153 47 2828 -22 
Q 2503 -91 2169 -91 
Q 1331 -91 842 396 
Q 353 884 353 1716 
Q 353 2575 817 3079 
Q 1281 3584 2069 3584 
Q 2775 3584 3186 3129 
Q 3597 2675 3597 1894 
z
M 3022 2063 
Q 3016 2534 2758 2815 
Q 2500 3097 2075 3097 
Q 1594 3097 1305 2825 
Q 1016 2553 972 2059 
L 3022 2063 
z
" transform="scale(0.015625)"/>
      <path id="DejaVuSans-73" d="M 2834 3397 
L 2834 2853 
Q 2591 2978 2328 3040 
Q 2066 3103 1784 3103 
Q 1356 3103 1142 2972 
Q 928 2841 928 2578 
Q 928 2378 1081 2264 
Q 1234 2150 1697 2047 
L 1894 2003 
Q 2506 1872 2764 1633 
Q 3022 1394 3022 966 
Q 3022 478 2636 193 
Q 2250 -91 1575 -91 
Q 1294 -91 989 -36 
Q 684 19 347 128 
L 347 722 
Q 666 556 975 473 
Q 1284 391 1588 391 
Q 1994 391 2212 530 
Q 2431 669 2431 922 
Q 2431 1156 2273 1281 
Q 2116 1406 1581 1522 
L 1381 1569 
Q 847 1681 609 1914 
Q 372 2147 372 2553 
Q 372 3047 722 3315 
Q 1072 3584 1716 3584 
Q 2034 3584 2315 3537 
Q 2597 3491 2834 3397 
z
" transform="scale(0.015625)"/>
     </defs>
     <use xlink:href="#DejaVuSans-32"/>
     <use xlink:href="#DejaVuSans-30" transform="translate(63.623047 0)"/>
     <use xlink:href="#DejaVuSans-31" transform="translate(127.246094 0)"/>
     <use xlink:href="#DejaVuSans-38" transform="translate(190.869141 0)"/>
     <use xlink:href="#DejaVuSans-2d" transform="translate(254.492188 0)"/>
     <use xlink:href="#DejaVuSans-74" transform="translate(290.576172 0)"/>
     <use xlink:href="#DejaVuSans-72" transform="translate(329.785156 0)"/>
     <use xlink:href="#DejaVuSans-61" transform="translate(370.898438 0)"/>
     <use xlink:href="#DejaVuSans-69" transform="translate(432.177734 0)"/>
     <use xlink:href="#DejaVuSans-6e" transform="translate(459.960938 0)"/>
     <use xlink:href="#DejaVuSans-2c" transform="translate(523.339844 0)"/>
     <use xlink:href="#DejaVuSans-20" transform="translate(555.126953 0)"/>
     <use xlink:href="#DejaVuSans-32" transform="translate(586.914062 0)"/>
     <use xlink:href="#DejaVuSans-30" transform="translate(650.537109 0)"/>
     <use xlink:href="#DejaVuSans-31" transform="translate(714.160156 0)"/>
     <use xlink:href="#DejaVuSans-39" transform="translate(777.783203 0)"/>
     <use xlink:href="#DejaVuSans-2d" transform="translate(841.40625 0)"/>
     <use xlink:href="#DejaVuSans-74" transform="translate(877.490234 0)"/>
     <use xlink:href="#DejaVuSans-65" transform="translate(916.699219 0)"/>
     <use xlink:href="#DejaVuSans-73" transform="translate(978.222656 0)"/>
     <use xlink:href="#DejaVuSans-74" transform="translate(1030.322266 0)"/>
    </g>
   </g>
  </g>
  <g id="axes_2">
   <g id="patch_9">
    <path d="M 813.455165 239.117485 
C 813.455165 214.574527 808.620737 190.270219 799.228554 167.595482 
C 789.83637 144.920746 776.069085 124.316548 758.714593 106.962056 
C 741.360102 89.607564 720.755904 75.840279 698.081167 66.448096 
C 675.406431 57.055913 651.102122 52.221485 626.559165 52.221485 
C 602.016207 52.221485 577.711898 57.055913 555.037162 66.448096 
C 532.362425 75.840279 511.758227 89.607564 494.403736 106.962056 
C 477.049244 124.316548 463.281959 144.920746 453.889775 167.595482 
C 444.497592 190.270219 439.663165 214.574527 439.663165 239.117485 
C 439.663165 263.660443 444.497592 287.964751 453.889775 310.639488 
C 463.281959 333.314224 477.049244 353.918422 494.403736 371.272914 
C 511.758227 388.627406 532.362425 402.394691 555.037162 411.786874 
C 577.711898 421.179057 602.016207 426.013485 626.559165 426.013485 
C 651.102122 426.013485 675.406431 421.179057 698.081167 411.786874 
C 720.755904 402.394691 741.360102 388.627406 758.714593 371.272914 
C 776.069085 353.918422 789.83637 333.314224 799.228554 310.639488 
C 808.620737 287.964751 813.455165 263.660443 813.455165 239.117485 
M 626.559165 239.117485 
C 626.559165 239.117485 626.559165 239.117485 626.559165 239.117485 
C 626.559165 239.117485 626.559165 239.117485 626.559165 239.117485 
C 626.559165 239.117485 626.559165 239.117485 626.559165 239.117485 
C 626.559165 239.117485 626.559165 239.117485 626.559165 239.117485 
C 626.559165 239.117485 626.559165 239.117485 626.559165 239.117485 
C 626.559165 239.117485 626.559165 239.117485 626.559165 239.117485 
C 626.559165 239.117485 626.559165 239.117485 626.559165 239.117485 
C 626.559165 239.117485 626.559165 239.117485 626.559165 239.117485 
C 626.559165 239.117485 626.559165 239.117485 626.559165 239.117485 
C 626.559165 239.117485 626.559165 239.117485 626.559165 239.117485 
C 626.559165 239.117485 626.559165 239.117485 626.559165 239.117485 
C 626.559165 239.117485 626.559165 239.117485 626.559165 239.117485 
C 626.559165 239.117485 626.559165 239.117485 626.559165 239.117485 
C 626.559165 239.117485 626.559165 239.117485 626.559165 239.117485 
C 626.559165 239.117485 626.559165 239.117485 626.559165 239.117485 
C 626.559165 239.117485 626.559165 239.117485 626.559165 239.117485 
z
" style="fill: #ffffff"/>
   </g>
   <g id="patch_10">
    <path d="M 626.559165 150.733756 
L 697.944154 197.903342 
L 679.309759 269.573055 
L 626.559165 265.816914 
L 603.436781 252.467199 
L 603.436781 225.767771 
z
" clip-path="url(#pee2f980024)" style="opacity: 0.1; stroke: #000000; stroke-linejoin: miter"/>
   </g>
   <g id="patch_11">
    <path d="M 626.559165 197.367777 
L 662.986974 218.08588 
L 657.920569 257.224 
L 626.559165 295.460827 
L 580.262558 265.846843 
L 554.389227 197.450152 
z
" clip-path="url(#pee2f980024)" style="fill: #0000ff; opacity: 0.1; stroke: #0000ff; stroke-linejoin: miter"/>
   </g>
   <g id="patch_12">
    <path d="M 626.559165 212.418056 
L 665.489202 216.641217 
L 649.681548 252.467199 
L 626.559165 302.082771 
L 571.841878 270.708525 
L 539.231404 188.698779 
z
" clip-path="url(#pee2f980024)" style="fill: #ffa500; opacity: 0.1; stroke: #ffa500; stroke-linejoin: miter"/>
   </g>
   <g id="patch_13">
    <path d="M 626.559165 162.043577 
L 710.533069 190.635128 
L 699.076802 280.985562 
L 626.559165 358.353283 
L 568.427541 272.679794 
L 482.777765 156.105255 
z
" clip-path="url(#pee2f980024)" style="fill: #008000; opacity: 0.1; stroke: #008000; stroke-linejoin: miter"/>
   </g>
   <g id="patch_14">
    <path d="M 626.559165 182.046931 
L 649.681548 225.767771 
L 705.72533 284.824092 
L 626.559165 313.995234 
L 559.463452 277.855213 
L 509.998134 171.820943 
z
" clip-path="url(#pee2f980024)" style="fill: #ff0000; opacity: 0.1; stroke: #ff0000; stroke-linejoin: miter"/>
   </g>
   <g id="matplotlib.axis_3">
    <g id="xtick_7">
     <g id="line2d_17">
      <path d="M 626.559165 239.117485 
L 626.559165 52.221485 
" clip-path="url(#pee2f980024)" style="fill: none; stroke: #b0b0b0; stroke-width: 0.8; stroke-linecap: square"/>
     </g>
     <g id="text_13">
      <!-- PAI -->
      <g transform="translate(617.449477 41.532735) scale(0.12 -0.12)">
       <use xlink:href="#DejaVuSans-50"/>
       <use xlink:href="#DejaVuSans-41" transform="translate(53.927734 0)"/>
       <use xlink:href="#DejaVuSans-49" transform="translate(122.335938 0)"/>
      </g>
     </g>
    </g>
    <g id="xtick_8">
     <g id="line2d_18">
      <path d="M 626.559165 239.117485 
L 788.415848 145.669485 
" clip-path="url(#pee2f980024)" style="fill: none; stroke: #b0b0b0; stroke-width: 0.8; stroke-linecap: square"/>
     </g>
     <g id="text_14">
      <!-- WLV -->
      <g transform="translate(787.820204 141.980735) scale(0.12 -0.12)">
       <use xlink:href="#DejaVuSans-57"/>
       <use xlink:href="#DejaVuSans-4c" transform="translate(98.876953 0)"/>
       <use xlink:href="#DejaVuSans-56" transform="translate(143.589844 0)"/>
      </g>
     </g>
    </g>
    <g id="xtick_9">
     <g id="line2d_19">
      <path d="M 626.559165 239.117485 
L 788.415848 332.565485 
" clip-path="url(#pee2f980024)" style="fill: none; stroke: #b0b0b0; stroke-width: 0.8; stroke-linecap: square"/>
     </g>
     <g id="text_15">
      <!-- WST -->
      <g transform="translate(787.133954 342.876735) scale(0.12 -0.12)">
       <use xlink:href="#DejaVuSans-57"/>
       <use xlink:href="#DejaVuSans-53" transform="translate(98.876953 0)"/>
       <use xlink:href="#DejaVuSans-54" transform="translate(162.353516 0)"/>
      </g>
     </g>
    </g>
    <g id="xtick_10">
     <g id="line2d_20">
      <path d="M 626.559165 239.117485 
L 626.559165 426.013485 
" clip-path="url(#pee2f980024)" style="fill: none; stroke: #b0b0b0; stroke-width: 0.8; stroke-linecap: square"/>
     </g>
     <g id="text_16">
      <!-- WSO -->
      <g transform="translate(612.094477 443.324735) scale(0.12 -0.12)">
       <use xlink:href="#DejaVuSans-57"/>
       <use xlink:href="#DejaVuSans-53" transform="translate(98.876953 0)"/>
       <use xlink:href="#DejaVuSans-4f" transform="translate(162.353516 0)"/>
      </g>
     </g>
    </g>
    <g id="xtick_11">
     <g id="line2d_21">
      <path d="M 626.559165 239.117485 
L 464.702481 332.565485 
" clip-path="url(#pee2f980024)" style="fill: none; stroke: #b0b0b0; stroke-width: 0.8; stroke-linecap: square"/>
     </g>
     <g id="text_17">
      <!-- WAGT -->
      <g transform="translate(434.88 342.876735) scale(0.12 -0.12)">
       <use xlink:href="#DejaVuSans-57"/>
       <use xlink:href="#DejaVuSans-41" transform="translate(93.376953 0)"/>
       <use xlink:href="#DejaVuSans-47" transform="translate(160.035156 0)"/>
       <use xlink:href="#DejaVuSans-54" transform="translate(233.900391 0)"/>
      </g>
     </g>
    </g>
    <g id="xtick_12">
     <g id="line2d_22">
      <path d="M 626.559165 239.117485 
L 464.702481 145.669485 
" clip-path="url(#pee2f980024)" style="fill: none; stroke: #b0b0b0; stroke-width: 0.8; stroke-linecap: square"/>
     </g>
     <g id="text_18">
      <!-- YIELD -->
      <g transform="translate(435.389063 141.980735) scale(0.12 -0.12)">
       <use xlink:href="#DejaVuSans-59"/>
       <use xlink:href="#DejaVuSans-49" transform="translate(61.083984 0)"/>
       <use xlink:href="#DejaVuSans-45" transform="translate(90.576172 0)"/>
       <use xlink:href="#DejaVuSans-4c" transform="translate(153.759766 0)"/>
       <use xlink:href="#DejaVuSans-44" transform="translate(209.472656 0)"/>
      </g>
     </g>
    </g>
   </g>
   <g id="matplotlib.axis_4">
    <g id="ytick_6">
     <g id="line2d_23">
      <path d="M 626.559165 239.117485 
C 626.559165 239.117485 626.559165 239.117485 626.559165 239.117485 
C 626.559165 239.117485 626.559165 239.117485 626.559165 239.117485 
C 626.559165 239.117485 626.559165 239.117485 626.559165 239.117485 
C 626.559165 239.117485 626.559165 239.117485 626.559165 239.117485 
C 626.559165 239.117485 626.559165 239.117485 626.559165 239.117485 
C 626.559165 239.117485 626.559165 239.117485 626.559165 239.117485 
C 626.559165 239.117485 626.559165 239.117485 626.559165 239.117485 
C 626.559165 239.117485 626.559165 239.117485 626.559165 239.117485 
C 626.559165 239.117485 626.559165 239.117485 626.559165 239.117485 
C 626.559165 239.117485 626.559165 239.117485 626.559165 239.117485 
C 626.559165 239.117485 626.559165 239.117485 626.559165 239.117485 
C 626.559165 239.117485 626.559165 239.117485 626.559165 239.117485 
C 626.559165 239.117485 626.559165 239.117485 626.559165 239.117485 
C 626.559165 239.117485 626.559165 239.117485 626.559165 239.117485 
C 626.559165 239.117485 626.559165 239.117485 626.559165 239.117485 
C 626.559165 239.117485 626.559165 239.117485 626.559165 239.117485 
" clip-path="url(#pee2f980024)" style="fill: none; stroke: #b0b0b0; stroke-width: 0.8; stroke-linecap: square"/>
     </g>
    </g>
    <g id="ytick_7">
     <g id="line2d_24">
      <path d="M 626.559165 212.418056 
C 630.065301 212.418056 633.537345 213.108689 636.776593 214.450429 
C 640.015842 215.79217 642.959298 217.758925 645.438512 220.238138 
C 647.917725 222.717351 649.88448 225.660808 651.22622 228.900056 
C 652.567961 232.139304 653.258593 235.611348 653.258593 239.117485 
C 653.258593 242.623622 652.567961 246.095666 651.22622 249.334914 
C 649.88448 252.574162 647.917725 255.517619 645.438512 257.996832 
C 642.959298 260.476045 640.015842 262.4428 636.776593 263.784541 
C 633.537345 265.126281 630.065301 265.816914 626.559165 265.816914 
C 623.053028 265.816914 619.580984 265.126281 616.341736 263.784541 
C 613.102487 262.4428 610.159031 260.476045 607.679818 257.996832 
C 605.200604 255.517619 603.233849 252.574162 601.892109 249.334914 
C 600.550368 246.095666 599.859736 242.623622 599.859736 239.117485 
C 599.859736 235.611348 600.550368 232.139304 601.892109 228.900056 
C 603.233849 225.660808 605.200604 222.717351 607.679818 220.238138 
C 610.159031 217.758925 613.102487 215.79217 616.341736 214.450429 
C 619.580984 213.108689 623.053028 212.418056 626.559165 212.418056 
" clip-path="url(#pee2f980024)" style="fill: none; stroke: #b0b0b0; stroke-width: 0.8; stroke-linecap: square"/>
     </g>
     <g id="text_19">
      <!-- 0 -->
      <g transform="translate(653.258593 236.62186) scale(0.12 -0.12)">
       <use xlink:href="#DejaVuSans-30"/>
      </g>
     </g>
    </g>
    <g id="ytick_8">
     <g id="line2d_25">
      <path d="M 626.559165 159.019199 
C 637.077575 159.019199 647.493707 161.091097 657.211451 165.116318 
C 666.929196 169.14154 675.759566 175.041805 683.197206 182.479444 
C 690.634845 189.917083 696.53511 198.747454 700.560331 208.465198 
C 704.585553 218.182942 706.65745 228.599074 706.65745 239.117485 
C 706.65745 249.635896 704.585553 260.052028 700.560331 269.769772 
C 696.53511 279.487516 690.634845 288.317887 683.197206 295.755526 
C 675.759566 303.193165 666.929196 309.09343 657.211451 313.118652 
C 647.493707 317.143873 637.077575 319.215771 626.559165 319.215771 
C 616.040754 319.215771 605.624622 317.143873 595.906878 313.118652 
C 586.189133 309.09343 577.358763 303.193165 569.921124 295.755526 
C 562.483484 288.317887 556.583219 279.487516 552.557998 269.769772 
C 548.532776 260.052028 546.460879 249.635896 546.460879 239.117485 
C 546.460879 228.599074 548.532776 218.182942 552.557998 208.465198 
C 556.583219 198.747454 562.483484 189.917083 569.921124 182.479444 
C 577.358763 175.041805 586.189133 169.14154 595.906878 165.116318 
C 605.624622 161.091097 616.040754 159.019199 626.559165 159.019199 
" clip-path="url(#pee2f980024)" style="fill: none; stroke: #b0b0b0; stroke-width: 0.8; stroke-linecap: square"/>
     </g>
     <g id="text_20">
      <!-- 0.2 -->
      <g transform="translate(706.65745 236.62186) scale(0.12 -0.12)">
       <use xlink:href="#DejaVuSans-30"/>
       <use xlink:href="#DejaVuSans-2e" transform="translate(63.623047 0)"/>
       <use xlink:href="#DejaVuSans-32" transform="translate(95.410156 0)"/>
      </g>
     </g>
    </g>
    <g id="ytick_9">
     <g id="line2d_26">
      <path d="M 626.559165 105.620342 
C 644.089849 105.620342 661.450069 109.073505 677.646309 115.782207 
C 693.84255 122.490909 708.559834 132.324684 720.9559 144.72075 
C 733.351965 157.116816 743.18574 171.8341 749.894442 188.03034 
C 756.603145 204.22658 760.056307 221.586801 760.056307 239.117485 
C 760.056307 256.648169 756.603145 274.00839 749.894442 290.20463 
C 743.18574 306.40087 733.351965 321.118154 720.9559 333.51422 
C 708.559834 345.910286 693.84255 355.744061 677.646309 362.452763 
C 661.450069 369.161465 644.089849 372.614628 626.559165 372.614628 
C 609.02848 372.614628 591.66826 369.161465 575.47202 362.452763 
C 559.275779 355.744061 544.558495 345.910286 532.16243 333.51422 
C 519.766364 321.118154 509.932589 306.40087 503.223887 290.20463 
C 496.515184 274.00839 493.062022 256.648169 493.062022 239.117485 
C 493.062022 221.586801 496.515184 204.22658 503.223887 188.03034 
C 509.932589 171.8341 519.766364 157.116816 532.16243 144.72075 
C 544.558495 132.324684 559.275779 122.490909 575.47202 115.782207 
C 591.66826 109.073505 609.02848 105.620342 626.559165 105.620342 
" clip-path="url(#pee2f980024)" style="fill: none; stroke: #b0b0b0; stroke-width: 0.8; stroke-linecap: square"/>
     </g>
     <g id="text_21">
      <!-- 0.4 -->
      <g transform="translate(760.056307 236.62186) scale(0.12 -0.12)">
       <use xlink:href="#DejaVuSans-30"/>
       <use xlink:href="#DejaVuSans-2e" transform="translate(63.623047 0)"/>
       <use xlink:href="#DejaVuSans-34" transform="translate(95.410156 0)"/>
      </g>
     </g>
    </g>
    <g id="ytick_10">
     <g id="line2d_27">
      <path d="M 626.559165 52.221485 
C 651.102122 52.221485 675.406431 57.055913 698.081167 66.448096 
C 720.755904 75.840279 741.360102 89.607564 758.714593 106.962056 
C 776.069085 124.316548 789.83637 144.920746 799.228554 167.595482 
C 808.620737 190.270219 813.455165 214.574527 813.455165 239.117485 
C 813.455165 263.660443 808.620737 287.964751 799.228554 310.639488 
C 789.83637 333.314224 776.069085 353.918422 758.714593 371.272914 
C 741.360102 388.627406 720.755904 402.394691 698.081167 411.786874 
C 675.406431 421.179057 651.102122 426.013485 626.559165 426.013485 
C 602.016207 426.013485 577.711898 421.179057 555.037162 411.786874 
C 532.362425 402.394691 511.758227 388.627406 494.403736 371.272914 
C 477.049244 353.918422 463.281959 333.314224 453.889775 310.639488 
C 444.497592 287.964751 439.663165 263.660443 439.663165 239.117485 
C 439.663165 214.574527 444.497592 190.270219 453.889775 167.595482 
C 463.281959 144.920746 477.049244 124.316548 494.403736 106.962056 
C 511.758227 89.607564 532.362425 75.840279 555.037162 66.448096 
C 577.711898 57.055913 602.016207 52.221485 626.559165 52.221485 
" clip-path="url(#pee2f980024)" style="fill: none; stroke: #b0b0b0; stroke-width: 0.8; stroke-linecap: square"/>
     </g>
     <g id="text_22">
      <!-- 0.6 -->
      <g transform="translate(813.455165 236.62186) scale(0.12 -0.12)">
       <use xlink:href="#DejaVuSans-30"/>
       <use xlink:href="#DejaVuSans-2e" transform="translate(63.623047 0)"/>
       <use xlink:href="#DejaVuSans-36" transform="translate(95.410156 0)"/>
      </g>
     </g>
    </g>
   </g>
   <g id="line2d_28">
    <path d="M 626.559165 150.733756 
L 697.944154 197.903342 
L 679.309759 269.573055 
L 626.559165 265.816914 
L 603.436781 252.467199 
L 603.436781 225.767771 
L 626.559165 150.733756 
" clip-path="url(#pee2f980024)" style="fill: none; stroke: #000000; stroke-width: 2; stroke-linecap: square"/>
   </g>
   <g id="line2d_29">
    <path d="M 626.559165 197.367777 
L 662.986974 218.08588 
L 657.920569 257.224 
L 626.559165 295.460827 
L 580.262558 265.846843 
L 554.389227 197.450152 
L 626.559165 197.367777 
" clip-path="url(#pee2f980024)" style="fill: none; stroke: #0000ff; stroke-width: 2; stroke-linecap: square"/>
   </g>
   <g id="line2d_30">
    <path d="M 626.559165 212.418056 
L 665.489202 216.641217 
L 649.681548 252.467199 
L 626.559165 302.082771 
L 571.841878 270.708525 
L 539.231404 188.698779 
L 626.559165 212.418056 
" clip-path="url(#pee2f980024)" style="fill: none; stroke: #ffa500; stroke-width: 2; stroke-linecap: square"/>
   </g>
   <g id="line2d_31">
    <path d="M 626.559165 162.043577 
L 710.533069 190.635128 
L 699.076802 280.985562 
L 626.559165 358.353283 
L 568.427541 272.679794 
L 482.777765 156.105255 
L 626.559165 162.043577 
" clip-path="url(#pee2f980024)" style="fill: none; stroke: #008000; stroke-width: 2; stroke-linecap: square"/>
   </g>
   <g id="line2d_32">
    <path d="M 626.559165 182.046931 
L 649.681548 225.767771 
L 705.72533 284.824092 
L 626.559165 313.995234 
L 559.463452 277.855213 
L 509.998134 171.820943 
L 626.559165 182.046931 
" clip-path="url(#pee2f980024)" style="fill: none; stroke: #ff0000; stroke-width: 2; stroke-linecap: square"/>
   </g>
   <g id="patch_15">
    <path d="M 626.559165 52.221485 
C 602.016207 52.221485 577.711898 57.055913 555.037162 66.448096 
C 532.362425 75.840279 511.758227 89.607564 494.403736 106.962056 
C 477.049244 124.316548 463.281959 144.920746 453.889775 167.595482 
C 444.497592 190.270219 439.663165 214.574527 439.663165 239.117485 
C 439.663165 263.660443 444.497592 287.964751 453.889775 310.639488 
C 463.281959 333.314224 477.049244 353.918422 494.403736 371.272914 
C 511.758227 388.627406 532.362425 402.394691 555.037162 411.786874 
C 577.711898 421.179057 602.016207 426.013485 626.559165 426.013485 
C 651.102122 426.013485 675.406431 421.179057 698.081167 411.786874 
C 720.755904 402.394691 741.360102 388.627406 758.714593 371.272914 
C 776.069085 353.918422 789.83637 333.314224 799.228554 310.639488 
C 808.620737 287.964751 813.455165 263.660443 813.455165 239.117485 
C 813.455165 214.574527 808.620737 190.270219 799.228554 167.595482 
C 789.83637 144.920746 776.069085 124.316548 758.714593 106.962056 
C 741.360102 89.607564 720.755904 75.840279 698.081167 66.448096 
C 675.406431 57.055913 651.102122 52.221485 626.559165 52.221485 
" style="fill: none; stroke: #000000; stroke-width: 0.8; stroke-linejoin: miter; stroke-linecap: square"/>
   </g>
   <g id="text_23">
    <!-- (b) -->
    <g transform="translate(439.663165 30.620322) scale(0.14 -0.14)">
     <defs>
      <path id="DejaVuSans-62" d="M 3116 1747 
Q 3116 2381 2855 2742 
Q 2594 3103 2138 3103 
Q 1681 3103 1420 2742 
Q 1159 2381 1159 1747 
Q 1159 1113 1420 752 
Q 1681 391 2138 391 
Q 2594 391 2855 752 
Q 3116 1113 3116 1747 
z
M 1159 2969 
Q 1341 3281 1617 3432 
Q 1894 3584 2278 3584 
Q 2916 3584 3314 3078 
Q 3713 2572 3713 1747 
Q 3713 922 3314 415 
Q 2916 -91 2278 -91 
Q 1894 -91 1617 61 
Q 1341 213 1159 525 
L 1159 0 
L 581 0 
L 581 4863 
L 1159 4863 
L 1159 2969 
z
" transform="scale(0.015625)"/>
     </defs>
     <use xlink:href="#DejaVuSans-28"/>
     <use xlink:href="#DejaVuSans-62" transform="translate(39.013672 0)"/>
     <use xlink:href="#DejaVuSans-29" transform="translate(102.490234 0)"/>
    </g>
   </g>
   <g id="text_24">
    <!-- 2019-train, 2018-test -->
    <g transform="translate(562.389165 16.318125) scale(0.12 -0.12)">
     <use xlink:href="#DejaVuSans-32"/>
     <use xlink:href="#DejaVuSans-30" transform="translate(63.623047 0)"/>
     <use xlink:href="#DejaVuSans-31" transform="translate(127.246094 0)"/>
     <use xlink:href="#DejaVuSans-39" transform="translate(190.869141 0)"/>
     <use xlink:href="#DejaVuSans-2d" transform="translate(254.492188 0)"/>
     <use xlink:href="#DejaVuSans-74" transform="translate(290.576172 0)"/>
     <use xlink:href="#DejaVuSans-72" transform="translate(329.785156 0)"/>
     <use xlink:href="#DejaVuSans-61" transform="translate(370.898438 0)"/>
     <use xlink:href="#DejaVuSans-69" transform="translate(432.177734 0)"/>
     <use xlink:href="#DejaVuSans-6e" transform="translate(459.960938 0)"/>
     <use xlink:href="#DejaVuSans-2c" transform="translate(523.339844 0)"/>
     <use xlink:href="#DejaVuSans-20" transform="translate(555.126953 0)"/>
     <use xlink:href="#DejaVuSans-32" transform="translate(586.914062 0)"/>
     <use xlink:href="#DejaVuSans-30" transform="translate(650.537109 0)"/>
     <use xlink:href="#DejaVuSans-31" transform="translate(714.160156 0)"/>
     <use xlink:href="#DejaVuSans-38" transform="translate(777.783203 0)"/>
     <use xlink:href="#DejaVuSans-2d" transform="translate(841.40625 0)"/>
     <use xlink:href="#DejaVuSans-74" transform="translate(877.490234 0)"/>
     <use xlink:href="#DejaVuSans-65" transform="translate(916.699219 0)"/>
     <use xlink:href="#DejaVuSans-73" transform="translate(978.222656 0)"/>
     <use xlink:href="#DejaVuSans-74" transform="translate(1030.322266 0)"/>
    </g>
   </g>
  </g>
  <g id="legend_1">
   <g id="line2d_33">
    <path d="M 27.956884 471.23786 
L 39.956884 471.23786 
L 51.956884 471.23786 
" style="fill: none; stroke: #000000; stroke-width: 2; stroke-linecap: square"/>
   </g>
   <g id="text_25">
    <!-- LSTM                -->
    <g transform="translate(61.556884 475.43786) scale(0.12 -0.12)">
     <defs>
      <path id="DejaVuSans-4d" d="M 628 4666 
L 1569 4666 
L 2759 1491 
L 3956 4666 
L 4897 4666 
L 4897 0 
L 4281 0 
L 4281 4097 
L 3078 897 
L 2444 897 
L 1241 4097 
L 1241 0 
L 628 0 
L 628 4666 
z
" transform="scale(0.015625)"/>
     </defs>
     <use xlink:href="#DejaVuSans-4c"/>
     <use xlink:href="#DejaVuSans-53" transform="translate(55.712891 0)"/>
     <use xlink:href="#DejaVuSans-54" transform="translate(119.189453 0)"/>
     <use xlink:href="#DejaVuSans-4d" transform="translate(180.273438 0)"/>
     <use xlink:href="#DejaVuSans-20" transform="translate(266.552734 0)"/>
     <use xlink:href="#DejaVuSans-20" transform="translate(298.339844 0)"/>
     <use xlink:href="#DejaVuSans-20" transform="translate(330.126953 0)"/>
     <use xlink:href="#DejaVuSans-20" transform="translate(361.914062 0)"/>
     <use xlink:href="#DejaVuSans-20" transform="translate(393.701172 0)"/>
     <use xlink:href="#DejaVuSans-20" transform="translate(425.488281 0)"/>
     <use xlink:href="#DejaVuSans-20" transform="translate(457.275391 0)"/>
     <use xlink:href="#DejaVuSans-20" transform="translate(489.0625 0)"/>
     <use xlink:href="#DejaVuSans-20" transform="translate(520.849609 0)"/>
     <use xlink:href="#DejaVuSans-20" transform="translate(552.636719 0)"/>
     <use xlink:href="#DejaVuSans-20" transform="translate(584.423828 0)"/>
     <use xlink:href="#DejaVuSans-20" transform="translate(616.210938 0)"/>
     <use xlink:href="#DejaVuSans-20" transform="translate(647.998047 0)"/>
     <use xlink:href="#DejaVuSans-20" transform="translate(679.785156 0)"/>
     <use xlink:href="#DejaVuSans-20" transform="translate(711.572266 0)"/>
    </g>
   </g>
   <g id="line2d_34">
    <path d="M 174.750634 471.23786 
L 186.750634 471.23786 
L 198.750634 471.23786 
" style="fill: none; stroke: #0000ff; stroke-width: 2; stroke-linecap: square"/>
   </g>
   <g id="text_26">
    <!-- MC- -LSTM             -->
    <g transform="translate(208.350634 475.43786) scale(0.12 -0.12)">
     <defs>
      <path id="DejaVuSans-43" d="M 4122 4306 
L 4122 3641 
Q 3803 3938 3442 4084 
Q 3081 4231 2675 4231 
Q 1875 4231 1450 3742 
Q 1025 3253 1025 2328 
Q 1025 1406 1450 917 
Q 1875 428 2675 428 
Q 3081 428 3442 575 
Q 3803 722 4122 1019 
L 4122 359 
Q 3791 134 3420 21 
Q 3050 -91 2638 -91 
Q 1578 -91 968 557 
Q 359 1206 359 2328 
Q 359 3453 968 4101 
Q 1578 4750 2638 4750 
Q 3056 4750 3426 4639 
Q 3797 4528 4122 4306 
z
" transform="scale(0.015625)"/>
     </defs>
     <use xlink:href="#DejaVuSans-4d"/>
     <use xlink:href="#DejaVuSans-43" transform="translate(86.279297 0)"/>
     <use xlink:href="#DejaVuSans-2d" transform="translate(156.103516 0)"/>
     <use xlink:href="#DejaVuSans-2d" transform="translate(192.1875 0)"/>
     <use xlink:href="#DejaVuSans-4c" transform="translate(228.271484 0)"/>
     <use xlink:href="#DejaVuSans-53" transform="translate(283.984375 0)"/>
     <use xlink:href="#DejaVuSans-54" transform="translate(347.460938 0)"/>
     <use xlink:href="#DejaVuSans-4d" transform="translate(408.544922 0)"/>
     <use xlink:href="#DejaVuSans-20" transform="translate(494.824219 0)"/>
     <use xlink:href="#DejaVuSans-20" transform="translate(526.611328 0)"/>
     <use xlink:href="#DejaVuSans-20" transform="translate(558.398438 0)"/>
     <use xlink:href="#DejaVuSans-20" transform="translate(590.185547 0)"/>
     <use xlink:href="#DejaVuSans-20" transform="translate(621.972656 0)"/>
     <use xlink:href="#DejaVuSans-20" transform="translate(653.759766 0)"/>
     <use xlink:href="#DejaVuSans-20" transform="translate(685.546875 0)"/>
     <use xlink:href="#DejaVuSans-20" transform="translate(717.333984 0)"/>
     <use xlink:href="#DejaVuSans-20" transform="translate(749.121094 0)"/>
     <use xlink:href="#DejaVuSans-20" transform="translate(780.908203 0)"/>
     <use xlink:href="#DejaVuSans-20" transform="translate(812.695312 0)"/>
     <use xlink:href="#DejaVuSans-20" transform="translate(844.482422 0)"/>
    </g>
   </g>
   <g id="line2d_35">
    <path d="M 337.495009 471.23786 
L 349.495009 471.23786 
L 361.495009 471.23786 
" style="fill: none; stroke: #ffa500; stroke-width: 2; stroke-linecap: square"/>
   </g>
   <g id="text_27">
    <!-- DeepCGM             -->
    <g transform="translate(371.095009 475.43786) scale(0.12 -0.12)">
     <defs>
      <path id="DejaVuSans-70" d="M 1159 525 
L 1159 -1331 
L 581 -1331 
L 581 3500 
L 1159 3500 
L 1159 2969 
Q 1341 3281 1617 3432 
Q 1894 3584 2278 3584 
Q 2916 3584 3314 3078 
Q 3713 2572 3713 1747 
Q 3713 922 3314 415 
Q 2916 -91 2278 -91 
Q 1894 -91 1617 61 
Q 1341 213 1159 525 
z
M 3116 1747 
Q 3116 2381 2855 2742 
Q 2594 3103 2138 3103 
Q 1681 3103 1420 2742 
Q 1159 2381 1159 1747 
Q 1159 1113 1420 752 
Q 1681 391 2138 391 
Q 2594 391 2855 752 
Q 3116 1113 3116 1747 
z
" transform="scale(0.015625)"/>
     </defs>
     <use xlink:href="#DejaVuSans-44"/>
     <use xlink:href="#DejaVuSans-65" transform="translate(77.001953 0)"/>
     <use xlink:href="#DejaVuSans-65" transform="translate(138.525391 0)"/>
     <use xlink:href="#DejaVuSans-70" transform="translate(200.048828 0)"/>
     <use xlink:href="#DejaVuSans-43" transform="translate(263.525391 0)"/>
     <use xlink:href="#DejaVuSans-47" transform="translate(333.349609 0)"/>
     <use xlink:href="#DejaVuSans-4d" transform="translate(410.839844 0)"/>
     <use xlink:href="#DejaVuSans-20" transform="translate(497.119141 0)"/>
     <use xlink:href="#DejaVuSans-20" transform="translate(528.90625 0)"/>
     <use xlink:href="#DejaVuSans-20" transform="translate(560.693359 0)"/>
     <use xlink:href="#DejaVuSans-20" transform="translate(592.480469 0)"/>
     <use xlink:href="#DejaVuSans-20" transform="translate(624.267578 0)"/>
     <use xlink:href="#DejaVuSans-20" transform="translate(656.054688 0)"/>
     <use xlink:href="#DejaVuSans-20" transform="translate(687.841797 0)"/>
     <use xlink:href="#DejaVuSans-20" transform="translate(719.628906 0)"/>
     <use xlink:href="#DejaVuSans-20" transform="translate(751.416016 0)"/>
     <use xlink:href="#DejaVuSans-20" transform="translate(783.203125 0)"/>
     <use xlink:href="#DejaVuSans-20" transform="translate(814.990234 0)"/>
     <use xlink:href="#DejaVuSans-20" transform="translate(846.777344 0)"/>
    </g>
   </g>
   <g id="line2d_36">
    <path d="M 500.516884 471.23786 
L 512.516884 471.23786 
L 524.516884 471.23786 
" style="fill: none; stroke: #008000; stroke-width: 2; stroke-linecap: square"/>
   </g>
   <g id="text_28">
    <!-- DeepCGM + Mask + CG -->
    <g transform="translate(534.116884 475.43786) scale(0.12 -0.12)">
     <defs>
      <path id="DejaVuSans-2b" d="M 2944 4013 
L 2944 2272 
L 4684 2272 
L 4684 1741 
L 2944 1741 
L 2944 0 
L 2419 0 
L 2419 1741 
L 678 1741 
L 678 2272 
L 2419 2272 
L 2419 4013 
L 2944 4013 
z
" transform="scale(0.015625)"/>
      <path id="DejaVuSans-6b" d="M 581 4863 
L 1159 4863 
L 1159 1991 
L 2875 3500 
L 3609 3500 
L 1753 1863 
L 3688 0 
L 2938 0 
L 1159 1709 
L 1159 0 
L 581 0 
L 581 4863 
z
" transform="scale(0.015625)"/>
     </defs>
     <use xlink:href="#DejaVuSans-44"/>
     <use xlink:href="#DejaVuSans-65" transform="translate(77.001953 0)"/>
     <use xlink:href="#DejaVuSans-65" transform="translate(138.525391 0)"/>
     <use xlink:href="#DejaVuSans-70" transform="translate(200.048828 0)"/>
     <use xlink:href="#DejaVuSans-43" transform="translate(263.525391 0)"/>
     <use xlink:href="#DejaVuSans-47" transform="translate(333.349609 0)"/>
     <use xlink:href="#DejaVuSans-4d" transform="translate(410.839844 0)"/>
     <use xlink:href="#DejaVuSans-20" transform="translate(497.119141 0)"/>
     <use xlink:href="#DejaVuSans-2b" transform="translate(528.90625 0)"/>
     <use xlink:href="#DejaVuSans-20" transform="translate(612.695312 0)"/>
     <use xlink:href="#DejaVuSans-4d" transform="translate(644.482422 0)"/>
     <use xlink:href="#DejaVuSans-61" transform="translate(730.761719 0)"/>
     <use xlink:href="#DejaVuSans-73" transform="translate(792.041016 0)"/>
     <use xlink:href="#DejaVuSans-6b" transform="translate(844.140625 0)"/>
     <use xlink:href="#DejaVuSans-20" transform="translate(902.050781 0)"/>
     <use xlink:href="#DejaVuSans-2b" transform="translate(933.837891 0)"/>
     <use xlink:href="#DejaVuSans-20" transform="translate(1017.626953 0)"/>
     <use xlink:href="#DejaVuSans-43" transform="translate(1049.414062 0)"/>
     <use xlink:href="#DejaVuSans-47" transform="translate(1119.238281 0)"/>
    </g>
   </g>
   <g id="line2d_37">
    <path d="M 701.725009 471.23786 
L 713.725009 471.23786 
L 725.725009 471.23786 
" style="fill: none; stroke: #ff0000; stroke-width: 2; stroke-linecap: square"/>
   </g>
   <g id="text_29">
    <!-- ORYZA2000 -->
    <g transform="translate(735.325009 475.43786) scale(0.12 -0.12)">
     <defs>
      <path id="DejaVuSans-52" d="M 2841 2188 
Q 3044 2119 3236 1894 
Q 3428 1669 3622 1275 
L 4263 0 
L 3584 0 
L 2988 1197 
Q 2756 1666 2539 1819 
Q 2322 1972 1947 1972 
L 1259 1972 
L 1259 0 
L 628 0 
L 628 4666 
L 2053 4666 
Q 2853 4666 3247 4331 
Q 3641 3997 3641 3322 
Q 3641 2881 3436 2590 
Q 3231 2300 2841 2188 
z
M 1259 4147 
L 1259 2491 
L 2053 2491 
Q 2509 2491 2742 2702 
Q 2975 2913 2975 3322 
Q 2975 3731 2742 3939 
Q 2509 4147 2053 4147 
L 1259 4147 
z
" transform="scale(0.015625)"/>
      <path id="DejaVuSans-5a" d="M 359 4666 
L 4025 4666 
L 4025 4184 
L 1075 531 
L 4097 531 
L 4097 0 
L 288 0 
L 288 481 
L 3238 4134 
L 359 4134 
L 359 4666 
z
" transform="scale(0.015625)"/>
     </defs>
     <use xlink:href="#DejaVuSans-4f"/>
     <use xlink:href="#DejaVuSans-52" transform="translate(78.710938 0)"/>
     <use xlink:href="#DejaVuSans-59" transform="translate(141.818359 0)"/>
     <use xlink:href="#DejaVuSans-5a" transform="translate(202.902344 0)"/>
     <use xlink:href="#DejaVuSans-41" transform="translate(271.408203 0)"/>
     <use xlink:href="#DejaVuSans-32" transform="translate(339.816406 0)"/>
     <use xlink:href="#DejaVuSans-30" transform="translate(403.439453 0)"/>
     <use xlink:href="#DejaVuSans-30" transform="translate(467.0625 0)"/>
     <use xlink:href="#DejaVuSans-30" transform="translate(530.685547 0)"/>
    </g>
   </g>
  </g>
 </g>
 <defs>
  <clipPath id="p1a1f781d5c">
   <path d="M 385.775165 239.117485 
C 385.775165 214.574527 380.940737 190.270219 371.548554 167.595482 
C 362.15637 144.920746 348.389085 124.316548 331.034593 106.962056 
C 313.680102 89.607564 293.075904 75.840279 270.401167 66.448096 
C 247.726431 57.055913 223.422122 52.221485 198.879165 52.221485 
C 174.336207 52.221485 150.031898 57.055913 127.357162 66.448096 
C 104.682425 75.840279 84.078227 89.607564 66.723736 106.962056 
C 49.369244 124.316548 35.601959 144.920746 26.209775 167.595482 
C 16.817592 190.270219 11.983165 214.574527 11.983165 239.117485 
C 11.983165 263.660443 16.817592 287.964751 26.209775 310.639488 
C 35.601959 333.314224 49.369244 353.918422 66.723736 371.272914 
C 84.078227 388.627406 104.682425 402.394691 127.357162 411.786874 
C 150.031898 421.179057 174.336207 426.013485 198.879165 426.013485 
C 223.422122 426.013485 247.726431 421.179057 270.401167 411.786874 
C 293.075904 402.394691 313.680102 388.627406 331.034593 371.272914 
C 348.389085 353.918422 362.15637 333.314224 371.548554 310.639488 
C 380.940737 287.964751 385.775165 263.660443 385.775165 239.117485 
M 198.879165 239.117485 
C 198.879165 239.117485 198.879165 239.117485 198.879165 239.117485 
C 198.879165 239.117485 198.879165 239.117485 198.879165 239.117485 
C 198.879165 239.117485 198.879165 239.117485 198.879165 239.117485 
C 198.879165 239.117485 198.879165 239.117485 198.879165 239.117485 
C 198.879165 239.117485 198.879165 239.117485 198.879165 239.117485 
C 198.879165 239.117485 198.879165 239.117485 198.879165 239.117485 
C 198.879165 239.117485 198.879165 239.117485 198.879165 239.117485 
C 198.879165 239.117485 198.879165 239.117485 198.879165 239.117485 
C 198.879165 239.117485 198.879165 239.117485 198.879165 239.117485 
C 198.879165 239.117485 198.879165 239.117485 198.879165 239.117485 
C 198.879165 239.117485 198.879165 239.117485 198.879165 239.117485 
C 198.879165 239.117485 198.879165 239.117485 198.879165 239.117485 
C 198.879165 239.117485 198.879165 239.117485 198.879165 239.117485 
C 198.879165 239.117485 198.879165 239.117485 198.879165 239.117485 
C 198.879165 239.117485 198.879165 239.117485 198.879165 239.117485 
C 198.879165 239.117485 198.879165 239.117485 198.879165 239.117485 
z
"/>
  </clipPath>
  <clipPath id="pee2f980024">
   <path d="M 813.455165 239.117485 
C 813.455165 214.574527 808.620737 190.270219 799.228554 167.595482 
C 789.83637 144.920746 776.069085 124.316548 758.714593 106.962056 
C 741.360102 89.607564 720.755904 75.840279 698.081167 66.448096 
C 675.406431 57.055913 651.102122 52.221485 626.559165 52.221485 
C 602.016207 52.221485 577.711898 57.055913 555.037162 66.448096 
C 532.362425 75.840279 511.758227 89.607564 494.403736 106.962056 
C 477.049244 124.316548 463.281959 144.920746 453.889775 167.595482 
C 444.497592 190.270219 439.663165 214.574527 439.663165 239.117485 
C 439.663165 263.660443 444.497592 287.964751 453.889775 310.639488 
C 463.281959 333.314224 477.049244 353.918422 494.403736 371.272914 
C 511.758227 388.627406 532.362425 402.394691 555.037162 411.786874 
C 577.711898 421.179057 602.016207 426.013485 626.559165 426.013485 
C 651.102122 426.013485 675.406431 421.179057 698.081167 411.786874 
C 720.755904 402.394691 741.360102 388.627406 758.714593 371.272914 
C 776.069085 353.918422 789.83637 333.314224 799.228554 310.639488 
C 808.620737 287.964751 813.455165 263.660443 813.455165 239.117485 
M 626.559165 239.117485 
C 626.559165 239.117485 626.559165 239.117485 626.559165 239.117485 
C 626.559165 239.117485 626.559165 239.117485 626.559165 239.117485 
C 626.559165 239.117485 626.559165 239.117485 626.559165 239.117485 
C 626.559165 239.117485 626.559165 239.117485 626.559165 239.117485 
C 626.559165 239.117485 626.559165 239.117485 626.559165 239.117485 
C 626.559165 239.117485 626.559165 239.117485 626.559165 239.117485 
C 626.559165 239.117485 626.559165 239.117485 626.559165 239.117485 
C 626.559165 239.117485 626.559165 239.117485 626.559165 239.117485 
C 626.559165 239.117485 626.559165 239.117485 626.559165 239.117485 
C 626.559165 239.117485 626.559165 239.117485 626.559165 239.117485 
C 626.559165 239.117485 626.559165 239.117485 626.559165 239.117485 
C 626.559165 239.117485 626.559165 239.117485 626.559165 239.117485 
C 626.559165 239.117485 626.559165 239.117485 626.559165 239.117485 
C 626.559165 239.117485 626.559165 239.117485 626.559165 239.117485 
C 626.559165 239.117485 626.559165 239.117485 626.559165 239.117485 
C 626.559165 239.117485 626.559165 239.117485 626.559165 239.117485 
z
"/>
  </clipPath>
 </defs>
</svg>
