<?xml version="1.0" encoding="utf-8" standalone="no"?>
<!DOCTYPE svg PUBLIC "-//W3C//DTD SVG 1.1//EN"
  "http://www.w3.org/Graphics/SVG/1.1/DTD/svg11.dtd">
<svg xmlns:xlink="http://www.w3.org/1999/xlink" width="444.085pt" height="256.64pt" viewBox="0 0 444.085 256.64" xmlns="http://www.w3.org/2000/svg" version="1.1">
 <metadata>
  <rdf:RDF xmlns:dc="http://purl.org/dc/elements/1.1/" xmlns:cc="http://creativecommons.org/ns#" xmlns:rdf="http://www.w3.org/1999/02/22-rdf-syntax-ns#">
   <cc:Work>
    <dc:type rdf:resource="http://purl.org/dc/dcmitype/StillImage"/>
    <dc:date>2025-04-16T10:50:23.198798</dc:date>
    <dc:format>image/svg+xml</dc:format>
    <dc:creator>
     <cc:Agent>
      <dc:title>Matplotlib v3.10.0, https://matplotlib.org/</dc:title>
     </cc:Agent>
    </dc:creator>
   </cc:Work>
  </rdf:RDF>
 </metadata>
 <defs>
  <style type="text/css">*{stroke-linejoin: round; stroke-linecap: butt}</style>
 </defs>
 <g id="figure_1">
  <g id="patch_1">
   <path d="M 0 256.64 
L 444.085 256.64 
L 444.085 0 
L 0 0 
z
" style="fill: #ffffff"/>
  </g>
  <g id="axes_1">
   <g id="patch_2">
    <path d="M 33.685 129.365581 
L 127.452442 129.365581 
L 127.452442 59.04 
L 33.685 59.04 
z
" style="fill: #ffffff"/>
   </g>
   <g id="PathCollection_1">
    <defs>
     <path id="m9ea4325d8c" d="M 0 1.118034 
C 0.296506 1.118034 0.580908 1.000231 0.790569 0.790569 
C 1.000231 0.580908 1.118034 0.296506 1.118034 0 
C 1.118034 -0.296506 1.000231 -0.580908 0.790569 -0.790569 
C 0.580908 -1.000231 0.296506 -1.118034 0 -1.118034 
C -0.296506 -1.118034 -0.580908 -1.000231 -0.790569 -0.790569 
C -1.000231 -0.580908 -1.118034 -0.296506 -1.118034 0 
C -1.118034 0.296506 -1.000231 0.580908 -0.790569 0.790569 
C -0.580908 1.000231 -0.296506 1.118034 0 1.118034 
z
" style="stroke: #808080"/>
    </defs>
    <g clip-path="url(#p81ac3eb8ee)">
     <use xlink:href="#m9ea4325d8c" x="37.947156" y="126.513269" style="fill: #808080; stroke: #808080"/>
     <use xlink:href="#m9ea4325d8c" x="49.841547" y="126.232158" style="fill: #808080; stroke: #808080"/>
     <use xlink:href="#m9ea4325d8c" x="54.467147" y="125.433724" style="fill: #808080; stroke: #808080"/>
     <use xlink:href="#m9ea4325d8c" x="59.092733" y="120.995488" style="fill: #808080; stroke: #808080"/>
     <use xlink:href="#m9ea4325d8c" x="63.718333" y="117.471875" style="fill: #808080; stroke: #808080"/>
     <use xlink:href="#m9ea4325d8c" x="69.004727" y="101.308264" style="fill: #808080; stroke: #808080"/>
     <use xlink:href="#m9ea4325d8c" x="72.308726" y="104.157144" style="fill: #808080; stroke: #808080"/>
     <use xlink:href="#m9ea4325d8c" x="78.255914" y="90.632503" style="fill: #808080; stroke: #808080"/>
     <use xlink:href="#m9ea4325d8c" x="84.203116" y="74.768767" style="fill: #808080; stroke: #808080"/>
     <use xlink:href="#m9ea4325d8c" x="88.828716" y="85.834387" style="fill: #808080; stroke: #808080"/>
     <use xlink:href="#m9ea4325d8c" x="96.097506" y="78.742202" style="fill: #808080; stroke: #808080"/>
     <use xlink:href="#m9ea4325d8c" x="104.687899" y="88.698269" style="fill: #808080; stroke: #808080"/>
     <use xlink:href="#m9ea4325d8c" x="113.278291" y="91.877004" style="fill: #808080; stroke: #808080"/>
    </g>
   </g>
   <g id="matplotlib.axis_1">
    <g id="xtick_1">
     <g id="line2d_1">
      <defs>
       <path id="m5b84447281" d="M 0 0 
L 0 3.5 
" style="stroke: #000000; stroke-width: 0.8"/>
      </defs>
      <g>
       <use xlink:href="#m5b84447281" x="39.268753" y="129.365581" style="stroke: #000000; stroke-width: 0.8"/>
      </g>
     </g>
    </g>
    <g id="xtick_2">
     <g id="line2d_2">
      <g>
       <use xlink:href="#m5b84447281" x="72.308725" y="129.365581" style="stroke: #000000; stroke-width: 0.8"/>
      </g>
     </g>
    </g>
    <g id="xtick_3">
     <g id="line2d_3">
      <g>
       <use xlink:href="#m5b84447281" x="105.348698" y="129.365581" style="stroke: #000000; stroke-width: 0.8"/>
      </g>
     </g>
    </g>
   </g>
   <g id="matplotlib.axis_2">
    <g id="ytick_1">
     <g id="line2d_4">
      <defs>
       <path id="mfc92d27847" d="M 0 0 
L -3.5 0 
" style="stroke: #000000; stroke-width: 0.8"/>
      </defs>
      <g>
       <use xlink:href="#mfc92d27847" x="33.685" y="126.513296" style="stroke: #000000; stroke-width: 0.8"/>
      </g>
     </g>
     <g id="text_1">
      <!-- 0 -->
      <g transform="translate(25.02125 129.058296) rotate(-90) scale(0.08 -0.08)">
       <defs>
        <path id="DejaVuSans-30" d="M 2034 4250 
Q 1547 4250 1301 3770 
Q 1056 3291 1056 2328 
Q 1056 1369 1301 889 
Q 1547 409 2034 409 
Q 2525 409 2770 889 
Q 3016 1369 3016 2328 
Q 3016 3291 2770 3770 
Q 2525 4250 2034 4250 
z
M 2034 4750 
Q 2819 4750 3233 4129 
Q 3647 3509 3647 2328 
Q 3647 1150 3233 529 
Q 2819 -91 2034 -91 
Q 1250 -91 836 529 
Q 422 1150 422 2328 
Q 422 3509 836 4129 
Q 1250 4750 2034 4750 
z
" transform="scale(0.015625)"/>
       </defs>
       <use xlink:href="#DejaVuSans-30"/>
      </g>
     </g>
    </g>
    <g id="ytick_2">
     <g id="line2d_5">
      <g>
       <use xlink:href="#mfc92d27847" x="33.685" y="92.776648" style="stroke: #000000; stroke-width: 0.8"/>
      </g>
     </g>
     <g id="text_2">
      <!-- 1500 -->
      <g transform="translate(25.02125 102.956648) rotate(-90) scale(0.08 -0.08)">
       <defs>
        <path id="DejaVuSans-31" d="M 794 531 
L 1825 531 
L 1825 4091 
L 703 3866 
L 703 4441 
L 1819 4666 
L 2450 4666 
L 2450 531 
L 3481 531 
L 3481 0 
L 794 0 
L 794 531 
z
" transform="scale(0.015625)"/>
        <path id="DejaVuSans-35" d="M 691 4666 
L 3169 4666 
L 3169 4134 
L 1269 4134 
L 1269 2991 
Q 1406 3038 1543 3061 
Q 1681 3084 1819 3084 
Q 2600 3084 3056 2656 
Q 3513 2228 3513 1497 
Q 3513 744 3044 326 
Q 2575 -91 1722 -91 
Q 1428 -91 1123 -41 
Q 819 9 494 109 
L 494 744 
Q 775 591 1075 516 
Q 1375 441 1709 441 
Q 2250 441 2565 725 
Q 2881 1009 2881 1497 
Q 2881 1984 2565 2268 
Q 2250 2553 1709 2553 
Q 1456 2553 1204 2497 
Q 953 2441 691 2322 
L 691 4666 
z
" transform="scale(0.015625)"/>
       </defs>
       <use xlink:href="#DejaVuSans-31"/>
       <use xlink:href="#DejaVuSans-35" transform="translate(63.623047 0)"/>
       <use xlink:href="#DejaVuSans-30" transform="translate(127.246094 0)"/>
       <use xlink:href="#DejaVuSans-30" transform="translate(190.869141 0)"/>
      </g>
     </g>
    </g>
    <g id="ytick_3">
     <g id="line2d_6">
      <g>
       <use xlink:href="#mfc92d27847" x="33.685" y="59.04" style="stroke: #000000; stroke-width: 0.8"/>
      </g>
     </g>
     <g id="text_3">
      <!-- 3000 -->
      <g transform="translate(25.02125 69.22) rotate(-90) scale(0.08 -0.08)">
       <defs>
        <path id="DejaVuSans-33" d="M 2597 2516 
Q 3050 2419 3304 2112 
Q 3559 1806 3559 1356 
Q 3559 666 3084 287 
Q 2609 -91 1734 -91 
Q 1441 -91 1130 -33 
Q 819 25 488 141 
L 488 750 
Q 750 597 1062 519 
Q 1375 441 1716 441 
Q 2309 441 2620 675 
Q 2931 909 2931 1356 
Q 2931 1769 2642 2001 
Q 2353 2234 1838 2234 
L 1294 2234 
L 1294 2753 
L 1863 2753 
Q 2328 2753 2575 2939 
Q 2822 3125 2822 3475 
Q 2822 3834 2567 4026 
Q 2313 4219 1838 4219 
Q 1578 4219 1281 4162 
Q 984 4106 628 3988 
L 628 4550 
Q 988 4650 1302 4700 
Q 1616 4750 1894 4750 
Q 2613 4750 3031 4423 
Q 3450 4097 3450 3541 
Q 3450 3153 3228 2886 
Q 3006 2619 2597 2516 
z
" transform="scale(0.015625)"/>
       </defs>
       <use xlink:href="#DejaVuSans-33"/>
       <use xlink:href="#DejaVuSans-30" transform="translate(63.623047 0)"/>
       <use xlink:href="#DejaVuSans-30" transform="translate(127.246094 0)"/>
       <use xlink:href="#DejaVuSans-30" transform="translate(190.869141 0)"/>
      </g>
     </g>
    </g>
    <g id="text_4">
     <!-- WLV(kg/ha) -->
     <g transform="translate(13.27875 116.993416) rotate(-90) scale(0.08 -0.08)">
      <defs>
       <path id="DejaVuSans-57" d="M 213 4666 
L 850 4666 
L 1831 722 
L 2809 4666 
L 3519 4666 
L 4500 722 
L 5478 4666 
L 6119 4666 
L 4947 0 
L 4153 0 
L 3169 4050 
L 2175 0 
L 1381 0 
L 213 4666 
z
" transform="scale(0.015625)"/>
       <path id="DejaVuSans-4c" d="M 628 4666 
L 1259 4666 
L 1259 531 
L 3531 531 
L 3531 0 
L 628 0 
L 628 4666 
z
" transform="scale(0.015625)"/>
       <path id="DejaVuSans-56" d="M 1831 0 
L 50 4666 
L 709 4666 
L 2188 738 
L 3669 4666 
L 4325 4666 
L 2547 0 
L 1831 0 
z
" transform="scale(0.015625)"/>
       <path id="DejaVuSans-28" d="M 1984 4856 
Q 1566 4138 1362 3434 
Q 1159 2731 1159 2009 
Q 1159 1288 1364 580 
Q 1569 -128 1984 -844 
L 1484 -844 
Q 1016 -109 783 600 
Q 550 1309 550 2009 
Q 550 2706 781 3412 
Q 1013 4119 1484 4856 
L 1984 4856 
z
" transform="scale(0.015625)"/>
       <path id="DejaVuSans-6b" d="M 581 4863 
L 1159 4863 
L 1159 1991 
L 2875 3500 
L 3609 3500 
L 1753 1863 
L 3688 0 
L 2938 0 
L 1159 1709 
L 1159 0 
L 581 0 
L 581 4863 
z
" transform="scale(0.015625)"/>
       <path id="DejaVuSans-67" d="M 2906 1791 
Q 2906 2416 2648 2759 
Q 2391 3103 1925 3103 
Q 1463 3103 1205 2759 
Q 947 2416 947 1791 
Q 947 1169 1205 825 
Q 1463 481 1925 481 
Q 2391 481 2648 825 
Q 2906 1169 2906 1791 
z
M 3481 434 
Q 3481 -459 3084 -895 
Q 2688 -1331 1869 -1331 
Q 1566 -1331 1297 -1286 
Q 1028 -1241 775 -1147 
L 775 -588 
Q 1028 -725 1275 -790 
Q 1522 -856 1778 -856 
Q 2344 -856 2625 -561 
Q 2906 -266 2906 331 
L 2906 616 
Q 2728 306 2450 153 
Q 2172 0 1784 0 
Q 1141 0 747 490 
Q 353 981 353 1791 
Q 353 2603 747 3093 
Q 1141 3584 1784 3584 
Q 2172 3584 2450 3431 
Q 2728 3278 2906 2969 
L 2906 3500 
L 3481 3500 
L 3481 434 
z
" transform="scale(0.015625)"/>
       <path id="DejaVuSans-2f" d="M 1625 4666 
L 2156 4666 
L 531 -594 
L 0 -594 
L 1625 4666 
z
" transform="scale(0.015625)"/>
       <path id="DejaVuSans-68" d="M 3513 2113 
L 3513 0 
L 2938 0 
L 2938 2094 
Q 2938 2591 2744 2837 
Q 2550 3084 2163 3084 
Q 1697 3084 1428 2787 
Q 1159 2491 1159 1978 
L 1159 0 
L 581 0 
L 581 4863 
L 1159 4863 
L 1159 2956 
Q 1366 3272 1645 3428 
Q 1925 3584 2291 3584 
Q 2894 3584 3203 3211 
Q 3513 2838 3513 2113 
z
" transform="scale(0.015625)"/>
       <path id="DejaVuSans-61" d="M 2194 1759 
Q 1497 1759 1228 1600 
Q 959 1441 959 1056 
Q 959 750 1161 570 
Q 1363 391 1709 391 
Q 2188 391 2477 730 
Q 2766 1069 2766 1631 
L 2766 1759 
L 2194 1759 
z
M 3341 1997 
L 3341 0 
L 2766 0 
L 2766 531 
Q 2569 213 2275 61 
Q 1981 -91 1556 -91 
Q 1019 -91 701 211 
Q 384 513 384 1019 
Q 384 1609 779 1909 
Q 1175 2209 1959 2209 
L 2766 2209 
L 2766 2266 
Q 2766 2663 2505 2880 
Q 2244 3097 1772 3097 
Q 1472 3097 1187 3025 
Q 903 2953 641 2809 
L 641 3341 
Q 956 3463 1253 3523 
Q 1550 3584 1831 3584 
Q 2591 3584 2966 3190 
Q 3341 2797 3341 1997 
z
" transform="scale(0.015625)"/>
       <path id="DejaVuSans-29" d="M 513 4856 
L 1013 4856 
Q 1481 4119 1714 3412 
Q 1947 2706 1947 2009 
Q 1947 1309 1714 600 
Q 1481 -109 1013 -844 
L 513 -844 
Q 928 -128 1133 580 
Q 1338 1288 1338 2009 
Q 1338 2731 1133 3434 
Q 928 4138 513 4856 
z
" transform="scale(0.015625)"/>
      </defs>
      <use xlink:href="#DejaVuSans-57"/>
      <use xlink:href="#DejaVuSans-4c" transform="translate(98.876953 0)"/>
      <use xlink:href="#DejaVuSans-56" transform="translate(143.589844 0)"/>
      <use xlink:href="#DejaVuSans-28" transform="translate(211.998047 0)"/>
      <use xlink:href="#DejaVuSans-6b" transform="translate(251.011719 0)"/>
      <use xlink:href="#DejaVuSans-67" transform="translate(308.921875 0)"/>
      <use xlink:href="#DejaVuSans-2f" transform="translate(372.398438 0)"/>
      <use xlink:href="#DejaVuSans-68" transform="translate(406.089844 0)"/>
      <use xlink:href="#DejaVuSans-61" transform="translate(469.46875 0)"/>
      <use xlink:href="#DejaVuSans-29" transform="translate(530.748047 0)"/>
     </g>
    </g>
   </g>
   <g id="line2d_7">
    <path d="M 37.947156 126.513269 
L 41.251155 126.42628 
L 45.87674 126.304404 
L 46.537549 126.11977 
L 50.502341 125.694823 
L 51.823943 125.306649 
L 53.806339 124.477694 
L 55.127941 123.558866 
L 56.449543 122.157895 
L 57.771131 120.233782 
L 59.092733 117.827009 
L 60.414335 114.776991 
L 63.057539 107.61605 
L 64.379127 103.925487 
L 65.039935 103.421685 
L 65.700729 102.027237 
L 67.022331 98.76153 
L 71.647932 90.864905 
L 72.969519 89.128593 
L 73.630328 88.363893 
L 74.95193 87.659924 
L 76.934326 85.851637 
L 78.255914 84.873276 
L 80.899118 83.562044 
L 82.22072 83.076237 
L 83.542322 82.756865 
L 84.86391 82.626414 
L 123.190285 82.626414 
L 123.190285 82.626414 
" clip-path="url(#p81ac3eb8ee)" style="fill: none; stroke: #808080; stroke-linecap: square"/>
   </g>
   <g id="line2d_8">
    <path d="M 37.947156 126.513269 
L 38.60795 84.185941 
L 39.268759 90.118972 
L 41.251155 126.187963 
L 41.911948 116.984822 
L 42.572757 110.087917 
L 43.233551 105.152993 
L 43.894344 102.348037 
L 44.555153 100.5935 
L 45.215947 101.075952 
L 45.87674 102.763849 
L 46.537549 106.658381 
L 47.198343 113.378701 
L 47.859151 122.942255 
L 48.519945 121.692006 
L 49.841547 99.221325 
L 50.502341 93.104176 
L 51.163149 93.624329 
L 51.823943 98.752275 
L 52.484737 107.476137 
L 53.145545 118.049804 
L 53.806339 124.96314 
L 54.467147 119.166187 
L 55.788735 102.417847 
L 56.449543 94.838664 
L 57.110337 89.140213 
L 57.771131 86.546329 
L 58.431939 85.551778 
L 59.092733 87.391608 
L 61.735937 103.763602 
L 63.718333 122.098377 
L 64.379127 126.053986 
L 65.039935 121.1089 
L 65.700729 112.156344 
L 66.361538 108.98221 
L 67.022331 112.32181 
L 67.683125 117.119551 
L 69.004727 121.738447 
L 70.32633 124.612678 
L 70.987123 125.482402 
L 72.969519 115.593655 
L 73.630328 113.73891 
L 74.291122 115.092695 
L 74.95193 121.731804 
L 75.612724 123.73795 
L 76.273518 118.483929 
L 76.934326 115.574439 
L 78.255914 111.694468 
L 80.238324 102.032214 
L 80.899118 100.07578 
L 81.559912 99.464492 
L 83.542322 99.863718 
L 84.203116 100.463166 
L 84.86391 100.367499 
L 85.524718 99.430329 
L 87.507114 90.31717 
L 89.48951 78.209159 
L 90.150304 75.022313 
L 90.811112 72.655992 
L 91.471906 71.797124 
L 92.132714 72.040666 
L 92.793508 71.980809 
L 93.454302 73.554304 
L 94.11511 76.32757 
L 94.775904 78.495161 
L 95.436713 79.890601 
L 96.097506 80.160874 
L 96.7583 78.966295 
L 98.079902 77.555334 
L 98.740711 76.786341 
L 99.401505 74.201885 
L 100.062298 73.042604 
L 101.383901 72.147902 
L 102.705503 77.50891 
L 103.366297 78.821104 
L 104.027105 78.465273 
L 104.687899 77.463126 
L 105.348693 75.433199 
L 106.670295 70.222335 
L 107.331103 69.467028 
L 107.991897 70.241029 
L 108.652691 74.81683 
L 109.313499 80.731225 
L 109.974293 84.243927 
L 110.635087 85.04498 
L 111.295895 84.287077 
L 112.617497 81.570186 
L 113.939085 80.322001 
L 115.260687 78.291524 
L 115.921495 78.034003 
L 116.582289 77.499996 
L 117.243083 77.68909 
L 117.903891 78.215416 
L 118.564685 77.477621 
L 119.225493 75.971088 
L 119.886287 75.661211 
L 120.547081 73.897746 
L 121.207889 73.469902 
L 121.868683 72.176704 
L 122.529477 72.162112 
L 123.190285 73.224419 
L 123.190285 73.224419 
" clip-path="url(#p81ac3eb8ee)" style="fill: none; stroke: #0000ff; stroke-width: 0.75; stroke-linecap: square"/>
   </g>
   <g id="patch_3">
    <path d="M 33.685 129.365581 
L 33.685 59.04 
" style="fill: none; stroke: #000000; stroke-width: 0.8; stroke-linejoin: miter; stroke-linecap: square"/>
   </g>
   <g id="patch_4">
    <path d="M 127.452442 129.365581 
L 127.452442 59.04 
" style="fill: none; stroke: #000000; stroke-width: 0.8; stroke-linejoin: miter; stroke-linecap: square"/>
   </g>
   <g id="patch_5">
    <path d="M 33.685 129.365581 
L 127.452442 129.365581 
" style="fill: none; stroke: #000000; stroke-width: 0.8; stroke-linejoin: miter; stroke-linecap: square"/>
   </g>
   <g id="patch_6">
    <path d="M 33.685 59.04 
L 127.452442 59.04 
" style="fill: none; stroke: #000000; stroke-width: 0.8; stroke-linejoin: miter; stroke-linecap: square"/>
   </g>
   <g id="text_5">
    <!-- (a1) -->
    <g transform="translate(36.498023 69.588837) scale(0.1 -0.1)">
     <use xlink:href="#DejaVuSans-28"/>
     <use xlink:href="#DejaVuSans-61" transform="translate(39.013672 0)"/>
     <use xlink:href="#DejaVuSans-31" transform="translate(100.292969 0)"/>
     <use xlink:href="#DejaVuSans-29" transform="translate(163.916016 0)"/>
    </g>
   </g>
  </g>
  <g id="axes_2">
   <g id="patch_7">
    <path d="M 136.829186 129.365581 
L 230.596628 129.365581 
L 230.596628 59.04 
L 136.829186 59.04 
z
" style="fill: #ffffff"/>
   </g>
   <g id="PathCollection_2">
    <g clip-path="url(#pe487d1a288)">
     <use xlink:href="#m9ea4325d8c" x="141.091342" y="126.405273" style="fill: #808080; stroke: #808080"/>
     <use xlink:href="#m9ea4325d8c" x="152.985733" y="126.124611" style="fill: #808080; stroke: #808080"/>
     <use xlink:href="#m9ea4325d8c" x="157.611333" y="125.327455" style="fill: #808080; stroke: #808080"/>
     <use xlink:href="#m9ea4325d8c" x="162.236919" y="120.896323" style="fill: #808080; stroke: #808080"/>
     <use xlink:href="#m9ea4325d8c" x="166.862519" y="117.37835" style="fill: #808080; stroke: #808080"/>
     <use xlink:href="#m9ea4325d8c" x="172.148913" y="101.24061" style="fill: #808080; stroke: #808080"/>
     <use xlink:href="#m9ea4325d8c" x="175.452912" y="104.084931" style="fill: #808080; stroke: #808080"/>
     <use xlink:href="#m9ea4325d8c" x="181.4001" y="90.581936" style="fill: #808080; stroke: #808080"/>
     <use xlink:href="#m9ea4325d8c" x="187.347302" y="74.743592" style="fill: #808080; stroke: #808080"/>
     <use xlink:href="#m9ea4325d8c" x="191.972902" y="85.791501" style="fill: #808080; stroke: #808080"/>
     <use xlink:href="#m9ea4325d8c" x="199.241692" y="78.710667" style="fill: #808080; stroke: #808080"/>
     <use xlink:href="#m9ea4325d8c" x="207.832085" y="88.650799" style="fill: #808080; stroke: #808080"/>
     <use xlink:href="#m9ea4325d8c" x="216.422477" y="91.824446" style="fill: #808080; stroke: #808080"/>
    </g>
   </g>
   <g id="matplotlib.axis_3">
    <g id="xtick_4">
     <g id="line2d_9">
      <g>
       <use xlink:href="#m5b84447281" x="142.412939" y="129.365581" style="stroke: #000000; stroke-width: 0.8"/>
      </g>
     </g>
    </g>
    <g id="xtick_5">
     <g id="line2d_10">
      <g>
       <use xlink:href="#m5b84447281" x="175.452912" y="129.365581" style="stroke: #000000; stroke-width: 0.8"/>
      </g>
     </g>
    </g>
    <g id="xtick_6">
     <g id="line2d_11">
      <g>
       <use xlink:href="#m5b84447281" x="208.492884" y="129.365581" style="stroke: #000000; stroke-width: 0.8"/>
      </g>
     </g>
    </g>
   </g>
   <g id="matplotlib.axis_4">
    <g id="ytick_4">
     <g id="line2d_12">
      <g>
       <use xlink:href="#mfc92d27847" x="136.829186" y="126.4053" style="stroke: #000000; stroke-width: 0.8"/>
      </g>
     </g>
    </g>
    <g id="ytick_5">
     <g id="line2d_13">
      <g>
       <use xlink:href="#mfc92d27847" x="136.829186" y="92.72265" style="stroke: #000000; stroke-width: 0.8"/>
      </g>
     </g>
    </g>
    <g id="ytick_6">
     <g id="line2d_14">
      <g>
       <use xlink:href="#mfc92d27847" x="136.829186" y="59.04" style="stroke: #000000; stroke-width: 0.8"/>
      </g>
     </g>
    </g>
   </g>
   <g id="line2d_15">
    <path d="M 141.091342 126.405273 
L 144.395341 126.318423 
L 149.020926 126.196743 
L 149.681735 126.012403 
L 153.646527 125.588137 
L 154.968129 125.200584 
L 156.950525 124.372956 
L 158.272127 123.455598 
L 159.593729 122.05687 
L 160.915317 120.135836 
L 162.236919 117.732916 
L 163.558521 114.68778 
L 166.201725 107.5383 
L 167.523313 103.853644 
L 168.184121 103.350649 
L 168.844915 101.958433 
L 170.166517 98.697953 
L 174.792118 90.813966 
L 176.113705 89.080434 
L 176.774514 88.316958 
L 178.096116 87.614116 
L 180.078512 85.808723 
L 181.4001 84.831928 
L 184.043304 83.522795 
L 185.364906 83.037765 
L 186.686508 82.718905 
L 188.008096 82.588662 
L 226.334471 82.588662 
L 226.334471 82.588662 
" clip-path="url(#pe487d1a288)" style="fill: none; stroke: #808080; stroke-linecap: square"/>
   </g>
   <g id="line2d_16">
    <path d="M 141.091342 126.405273 
L 142.412945 125.683334 
L 143.734532 125.114172 
L 145.716943 124.071222 
L 147.03853 123.10971 
L 148.360133 121.988017 
L 151.003337 119.281369 
L 152.985733 118.327155 
L 154.307335 117.34697 
L 157.611333 114.378546 
L 158.932921 112.961143 
L 162.236919 108.856699 
L 164.880123 104.765816 
L 166.201725 102.418762 
L 167.523313 100.005574 
L 168.184121 99.682763 
L 168.844915 98.701331 
L 170.827311 94.966249 
L 172.809707 90.922506 
L 175.452912 84.549429 
L 176.774514 81.796835 
L 177.435308 81.329004 
L 178.096116 81.015236 
L 179.417704 79.049142 
L 180.739306 77.058186 
L 181.4001 76.353209 
L 184.043304 74.387219 
L 185.364906 72.797742 
L 186.686508 70.622645 
L 188.008096 68.24396 
L 188.668904 67.382461 
L 189.329698 67.19911 
L 189.990506 67.336854 
L 191.312094 67.820749 
L 192.633696 67.915209 
L 193.29449 67.849512 
L 195.2769 67.943938 
L 195.937694 68.219032 
L 196.598488 68.65538 
L 197.259296 68.748742 
L 197.92009 68.968124 
L 198.580899 68.965507 
L 199.241692 69.181917 
L 199.902486 70.143525 
L 200.563295 70.780483 
L 201.884897 71.63625 
L 202.545691 72.520546 
L 203.206484 72.906475 
L 203.867293 73.01461 
L 205.18888 74.022604 
L 207.832085 77.305545 
L 209.153687 78.621216 
L 209.814481 78.960183 
L 211.136083 78.25276 
L 211.796877 78.05301 
L 212.457685 77.988979 
L 213.779273 78.32437 
L 215.100875 78.140858 
L 216.422477 77.870662 
L 219.065681 77.001755 
L 221.048077 77.23243 
L 221.708871 77.011883 
L 222.369679 76.953598 
L 223.691267 77.22648 
L 225.012869 76.858851 
L 226.334471 76.384023 
L 226.334471 76.384023 
" clip-path="url(#pe487d1a288)" style="fill: none; stroke: #ff0000; stroke-width: 0.75; stroke-linecap: square"/>
   </g>
   <g id="patch_8">
    <path d="M 136.829186 129.365581 
L 136.829186 59.04 
" style="fill: none; stroke: #000000; stroke-width: 0.8; stroke-linejoin: miter; stroke-linecap: square"/>
   </g>
   <g id="patch_9">
    <path d="M 230.596628 129.365581 
L 230.596628 59.04 
" style="fill: none; stroke: #000000; stroke-width: 0.8; stroke-linejoin: miter; stroke-linecap: square"/>
   </g>
   <g id="patch_10">
    <path d="M 136.829186 129.365581 
L 230.596628 129.365581 
" style="fill: none; stroke: #000000; stroke-width: 0.8; stroke-linejoin: miter; stroke-linecap: square"/>
   </g>
   <g id="patch_11">
    <path d="M 136.829186 59.04 
L 230.596628 59.04 
" style="fill: none; stroke: #000000; stroke-width: 0.8; stroke-linejoin: miter; stroke-linecap: square"/>
   </g>
   <g id="text_6">
    <!-- (a2) -->
    <g transform="translate(139.642209 69.588837) scale(0.1 -0.1)">
     <defs>
      <path id="DejaVuSans-32" d="M 1228 531 
L 3431 531 
L 3431 0 
L 469 0 
L 469 531 
Q 828 903 1448 1529 
Q 2069 2156 2228 2338 
Q 2531 2678 2651 2914 
Q 2772 3150 2772 3378 
Q 2772 3750 2511 3984 
Q 2250 4219 1831 4219 
Q 1534 4219 1204 4116 
Q 875 4013 500 3803 
L 500 4441 
Q 881 4594 1212 4672 
Q 1544 4750 1819 4750 
Q 2544 4750 2975 4387 
Q 3406 4025 3406 3419 
Q 3406 3131 3298 2873 
Q 3191 2616 2906 2266 
Q 2828 2175 2409 1742 
Q 1991 1309 1228 531 
z
" transform="scale(0.015625)"/>
     </defs>
     <use xlink:href="#DejaVuSans-28"/>
     <use xlink:href="#DejaVuSans-61" transform="translate(39.013672 0)"/>
     <use xlink:href="#DejaVuSans-32" transform="translate(100.292969 0)"/>
     <use xlink:href="#DejaVuSans-29" transform="translate(163.916016 0)"/>
    </g>
   </g>
  </g>
  <g id="axes_3">
   <g id="patch_12">
    <path d="M 239.973372 129.365581 
L 333.740814 129.365581 
L 333.740814 59.04 
L 239.973372 59.04 
z
" style="fill: #ffffff"/>
   </g>
   <g id="PathCollection_3">
    <g clip-path="url(#p78a1a4a6ea)">
     <use xlink:href="#m9ea4325d8c" x="244.235529" y="126.768567" style="fill: #808080; stroke: #808080"/>
     <use xlink:href="#m9ea4325d8c" x="256.129919" y="126.486392" style="fill: #808080; stroke: #808080"/>
     <use xlink:href="#m9ea4325d8c" x="260.755519" y="125.684937" style="fill: #808080; stroke: #808080"/>
     <use xlink:href="#m9ea4325d8c" x="265.381105" y="121.229908" style="fill: #808080; stroke: #808080"/>
     <use xlink:href="#m9ea4325d8c" x="270.006705" y="117.692963" style="fill: #808080; stroke: #808080"/>
     <use xlink:href="#m9ea4325d8c" x="275.2931" y="101.468194" style="fill: #808080; stroke: #808080"/>
     <use xlink:href="#m9ea4325d8c" x="278.597098" y="104.327854" style="fill: #808080; stroke: #808080"/>
     <use xlink:href="#m9ea4325d8c" x="284.544286" y="90.752039" style="fill: #808080; stroke: #808080"/>
     <use xlink:href="#m9ea4325d8c" x="290.491488" y="74.82828" style="fill: #808080; stroke: #808080"/>
     <use xlink:href="#m9ea4325d8c" x="295.117088" y="85.935769" style="fill: #808080; stroke: #808080"/>
     <use xlink:href="#m9ea4325d8c" x="302.385879" y="78.816749" style="fill: #808080; stroke: #808080"/>
     <use xlink:href="#m9ea4325d8c" x="310.976271" y="88.810487" style="fill: #808080; stroke: #808080"/>
     <use xlink:href="#m9ea4325d8c" x="319.566663" y="92.001249" style="fill: #808080; stroke: #808080"/>
    </g>
   </g>
   <g id="matplotlib.axis_5">
    <g id="xtick_7">
     <g id="line2d_17">
      <g>
       <use xlink:href="#m5b84447281" x="245.557125" y="129.365581" style="stroke: #000000; stroke-width: 0.8"/>
      </g>
     </g>
    </g>
    <g id="xtick_8">
     <g id="line2d_18">
      <g>
       <use xlink:href="#m5b84447281" x="278.597098" y="129.365581" style="stroke: #000000; stroke-width: 0.8"/>
      </g>
     </g>
    </g>
    <g id="xtick_9">
     <g id="line2d_19">
      <g>
       <use xlink:href="#m5b84447281" x="311.63707" y="129.365581" style="stroke: #000000; stroke-width: 0.8"/>
      </g>
     </g>
    </g>
   </g>
   <g id="matplotlib.axis_6">
    <g id="ytick_7">
     <g id="line2d_20">
      <g>
       <use xlink:href="#mfc92d27847" x="239.973372" y="126.768594" style="stroke: #000000; stroke-width: 0.8"/>
      </g>
     </g>
    </g>
    <g id="ytick_8">
     <g id="line2d_21">
      <g>
       <use xlink:href="#mfc92d27847" x="239.973372" y="92.904297" style="stroke: #000000; stroke-width: 0.8"/>
      </g>
     </g>
    </g>
    <g id="ytick_9">
     <g id="line2d_22">
      <g>
       <use xlink:href="#mfc92d27847" x="239.973372" y="59.04" style="stroke: #000000; stroke-width: 0.8"/>
      </g>
     </g>
    </g>
   </g>
   <g id="line2d_23">
    <path d="M 244.235529 126.768567 
L 247.539527 126.681249 
L 252.165113 126.558912 
L 252.825921 126.373578 
L 256.790713 125.947024 
L 258.112315 125.557381 
L 260.094711 124.72529 
L 261.416313 123.802985 
L 262.737915 122.396713 
L 264.059503 120.46532 
L 265.381105 118.04944 
L 266.702707 114.987882 
L 269.345912 107.799846 
L 270.667499 104.095319 
L 271.328308 103.589612 
L 271.989101 102.189887 
L 273.310704 98.911824 
L 277.936304 90.98532 
L 279.257892 89.242439 
L 279.9187 88.474845 
L 281.240302 87.768213 
L 283.222698 85.953084 
L 284.544286 84.971021 
L 287.18749 83.654828 
L 288.509092 83.167183 
L 289.830694 82.846602 
L 291.152282 82.715658 
L 329.478658 82.715658 
L 329.478658 82.715658 
" clip-path="url(#p78a1a4a6ea)" style="fill: none; stroke: #808080; stroke-linecap: square"/>
   </g>
   <g id="line2d_24">
    <path d="M 244.235529 126.768567 
L 244.896322 124.725225 
L 245.557131 126.629774 
L 246.217925 125.986794 
L 247.539527 125.60309 
L 248.200321 125.681785 
L 250.182717 126.470827 
L 251.504319 126.669306 
L 252.825921 126.154293 
L 253.486715 125.656859 
L 254.147523 125.479293 
L 254.808317 124.76216 
L 255.469111 124.537969 
L 256.129919 125.655251 
L 256.790713 126.059845 
L 257.451521 125.040548 
L 258.112315 125.001511 
L 258.773109 125.617403 
L 259.433917 126.751538 
L 260.094711 125.841762 
L 262.737915 121.012422 
L 266.041913 114.173393 
L 266.702707 112.444745 
L 268.685103 105.867855 
L 270.006705 100.912253 
L 270.667499 98.686221 
L 273.971497 90.795029 
L 275.953893 87.037043 
L 277.275496 85.21385 
L 277.936304 84.545814 
L 280.579494 82.783505 
L 281.240302 82.355354 
L 281.901096 82.112364 
L 282.56189 81.537026 
L 283.883492 80.79975 
L 284.544286 80.62232 
L 285.865888 79.786018 
L 286.526696 79.468899 
L 288.509092 77.247204 
L 289.169886 76.733587 
L 289.830694 76.026632 
L 291.152282 75.414292 
L 291.81309 75.519804 
L 292.473884 75.484195 
L 293.134692 75.605875 
L 293.795486 75.286728 
L 295.777882 76.120797 
L 298.421087 78.1903 
L 299.742674 78.403571 
L 300.403483 78.378122 
L 301.064276 78.73205 
L 302.385879 79.630303 
L 303.046672 79.379817 
L 304.368275 79.198084 
L 305.029083 79.352026 
L 305.689877 78.5794 
L 306.350671 78.242884 
L 307.672273 78.951091 
L 308.333067 79.644503 
L 308.993875 80.023353 
L 310.315477 78.785008 
L 310.976271 79.007302 
L 311.637065 78.684034 
L 312.958667 77.070648 
L 313.619475 77.263331 
L 314.941063 76.891014 
L 315.601871 77.922543 
L 316.262665 78.713857 
L 316.923459 79.101333 
L 317.584267 79.071981 
L 318.245061 78.500108 
L 318.905869 78.191191 
L 319.566663 78.290624 
L 320.227457 78.260193 
L 320.888265 78.073636 
L 321.549059 78.173062 
L 322.209867 78.535818 
L 322.870661 78.293393 
L 323.531455 78.406084 
L 324.853057 78.461236 
L 325.513866 78.598972 
L 326.174659 79.546516 
L 326.835453 77.730021 
L 328.157055 76.830797 
L 328.817849 76.874227 
L 329.478658 77.283385 
L 329.478658 77.283385 
" clip-path="url(#p78a1a4a6ea)" style="fill: none; stroke: #0000ff; stroke-width: 0.75; stroke-linecap: square"/>
   </g>
   <g id="patch_13">
    <path d="M 239.973372 129.365581 
L 239.973372 59.04 
" style="fill: none; stroke: #000000; stroke-width: 0.8; stroke-linejoin: miter; stroke-linecap: square"/>
   </g>
   <g id="patch_14">
    <path d="M 333.740814 129.365581 
L 333.740814 59.04 
" style="fill: none; stroke: #000000; stroke-width: 0.8; stroke-linejoin: miter; stroke-linecap: square"/>
   </g>
   <g id="patch_15">
    <path d="M 239.973372 129.365581 
L 333.740814 129.365581 
" style="fill: none; stroke: #000000; stroke-width: 0.8; stroke-linejoin: miter; stroke-linecap: square"/>
   </g>
   <g id="patch_16">
    <path d="M 239.973372 59.04 
L 333.740814 59.04 
" style="fill: none; stroke: #000000; stroke-width: 0.8; stroke-linejoin: miter; stroke-linecap: square"/>
   </g>
   <g id="text_7">
    <!-- (a3) -->
    <g transform="translate(242.786395 69.588837) scale(0.1 -0.1)">
     <use xlink:href="#DejaVuSans-28"/>
     <use xlink:href="#DejaVuSans-61" transform="translate(39.013672 0)"/>
     <use xlink:href="#DejaVuSans-33" transform="translate(100.292969 0)"/>
     <use xlink:href="#DejaVuSans-29" transform="translate(163.916016 0)"/>
    </g>
   </g>
  </g>
  <g id="axes_4">
   <g id="patch_17">
    <path d="M 343.117558 129.365581 
L 436.885 129.365581 
L 436.885 59.04 
L 343.117558 59.04 
z
" style="fill: #ffffff"/>
   </g>
   <g id="PathCollection_4">
    <g clip-path="url(#pc43c4ea45b)">
     <use xlink:href="#m9ea4325d8c" x="347.379715" y="126.495212" style="fill: #808080; stroke: #808080"/>
     <use xlink:href="#m9ea4325d8c" x="359.274105" y="126.214175" style="fill: #808080; stroke: #808080"/>
     <use xlink:href="#m9ea4325d8c" x="363.899705" y="125.415955" style="fill: #808080; stroke: #808080"/>
     <use xlink:href="#m9ea4325d8c" x="368.525291" y="120.978907" style="fill: #808080; stroke: #808080"/>
     <use xlink:href="#m9ea4325d8c" x="373.150891" y="117.456237" style="fill: #808080; stroke: #808080"/>
     <use xlink:href="#m9ea4325d8c" x="378.437286" y="101.296952" style="fill: #808080; stroke: #808080"/>
     <use xlink:href="#m9ea4325d8c" x="381.741284" y="104.14507" style="fill: #808080; stroke: #808080"/>
     <use xlink:href="#m9ea4325d8c" x="387.688472" y="90.624048" style="fill: #808080; stroke: #808080"/>
     <use xlink:href="#m9ea4325d8c" x="393.635674" y="74.764558" style="fill: #808080; stroke: #808080"/>
     <use xlink:href="#m9ea4325d8c" x="398.261274" y="85.827217" style="fill: #808080; stroke: #808080"/>
     <use xlink:href="#m9ea4325d8c" x="405.530065" y="78.736929" style="fill: #808080; stroke: #808080"/>
     <use xlink:href="#m9ea4325d8c" x="414.120457" y="88.690332" style="fill: #808080; stroke: #808080"/>
     <use xlink:href="#m9ea4325d8c" x="422.710849" y="91.868216" style="fill: #808080; stroke: #808080"/>
    </g>
   </g>
   <g id="matplotlib.axis_7">
    <g id="xtick_10">
     <g id="line2d_25">
      <g>
       <use xlink:href="#m5b84447281" x="348.701311" y="129.365581" style="stroke: #000000; stroke-width: 0.8"/>
      </g>
     </g>
    </g>
    <g id="xtick_11">
     <g id="line2d_26">
      <g>
       <use xlink:href="#m5b84447281" x="381.741284" y="129.365581" style="stroke: #000000; stroke-width: 0.8"/>
      </g>
     </g>
    </g>
    <g id="xtick_12">
     <g id="line2d_27">
      <g>
       <use xlink:href="#m5b84447281" x="414.781256" y="129.365581" style="stroke: #000000; stroke-width: 0.8"/>
      </g>
     </g>
    </g>
   </g>
   <g id="matplotlib.axis_8">
    <g id="ytick_10">
     <g id="line2d_28">
      <g>
       <use xlink:href="#mfc92d27847" x="343.117558" y="126.495239" style="stroke: #000000; stroke-width: 0.8"/>
      </g>
     </g>
    </g>
    <g id="ytick_11">
     <g id="line2d_29">
      <g>
       <use xlink:href="#mfc92d27847" x="343.117558" y="92.767619" style="stroke: #000000; stroke-width: 0.8"/>
      </g>
     </g>
    </g>
    <g id="ytick_12">
     <g id="line2d_30">
      <g>
       <use xlink:href="#mfc92d27847" x="343.117558" y="59.04" style="stroke: #000000; stroke-width: 0.8"/>
      </g>
     </g>
    </g>
   </g>
   <g id="line2d_31">
    <path d="M 347.379715 126.495212 
L 350.683713 126.408246 
L 355.309299 126.286403 
L 355.970107 126.101817 
L 359.934899 125.676984 
L 361.256501 125.288914 
L 363.238897 124.460182 
L 364.560499 123.541599 
L 365.882101 122.141003 
L 367.203689 120.217404 
L 368.525291 117.811276 
L 369.846893 114.762074 
L 372.490098 107.60305 
L 373.811685 103.913474 
L 374.472494 103.409808 
L 375.133287 102.015733 
L 376.45489 98.7509 
L 381.08049 90.856387 
L 382.402078 89.120541 
L 383.062886 88.356045 
L 384.384488 87.652265 
L 386.366884 85.844462 
L 387.688472 84.866363 
L 390.331676 83.555481 
L 391.653278 83.069804 
L 392.97488 82.750518 
L 394.296468 82.620102 
L 432.622844 82.620102 
L 432.622844 82.620102 
" clip-path="url(#pc43c4ea45b)" style="fill: none; stroke: #808080; stroke-linecap: square"/>
   </g>
   <g id="line2d_32">
    <path d="M 347.379715 126.495212 
L 353.987711 126.043766 
L 356.630901 125.623678 
L 357.952503 125.424384 
L 358.613297 125.352546 
L 359.934899 124.788703 
L 361.256501 124.038342 
L 363.238897 122.677493 
L 364.560499 121.49441 
L 365.882101 120.037511 
L 367.203689 118.371476 
L 368.525291 116.216548 
L 369.846893 113.603997 
L 371.168495 110.211447 
L 371.829289 108.414081 
L 373.811685 102.178229 
L 374.472494 101.568752 
L 375.133287 100.060198 
L 376.45489 96.104757 
L 382.402078 86.278427 
L 383.062886 85.365459 
L 384.384488 85.180961 
L 385.045282 84.417551 
L 387.027678 80.681407 
L 387.688472 79.866539 
L 389.670882 78.20749 
L 390.331676 77.289878 
L 390.99247 76.073754 
L 391.653278 75.138273 
L 394.296468 70.099051 
L 394.957276 69.435417 
L 395.61807 69.142921 
L 396.939672 69.117035 
L 398.261274 69.198654 
L 399.582862 69.221579 
L 401.565273 69.829963 
L 402.226066 70.118424 
L 403.547669 71.024513 
L 404.208462 71.313919 
L 406.190858 71.770071 
L 406.851667 72.17874 
L 407.512461 72.43387 
L 408.834063 72.701384 
L 409.494857 72.867306 
L 410.816459 72.636738 
L 411.477253 72.724727 
L 412.138061 72.9356 
L 413.459663 73.685276 
L 416.102853 74.741486 
L 416.763661 74.51177 
L 418.085249 73.652615 
L 418.746057 73.436632 
L 420.728453 73.462763 
L 426.014847 71.878207 
L 427.336449 72.05606 
L 428.658052 71.892795 
L 430.640448 72.11052 
L 432.622844 71.794718 
L 432.622844 71.794718 
" clip-path="url(#pc43c4ea45b)" style="fill: none; stroke: #ff0000; stroke-width: 0.75; stroke-linecap: square"/>
   </g>
   <g id="patch_18">
    <path d="M 343.117558 129.365581 
L 343.117558 59.04 
" style="fill: none; stroke: #000000; stroke-width: 0.8; stroke-linejoin: miter; stroke-linecap: square"/>
   </g>
   <g id="patch_19">
    <path d="M 436.885 129.365581 
L 436.885 59.04 
" style="fill: none; stroke: #000000; stroke-width: 0.8; stroke-linejoin: miter; stroke-linecap: square"/>
   </g>
   <g id="patch_20">
    <path d="M 343.117558 129.365581 
L 436.885 129.365581 
" style="fill: none; stroke: #000000; stroke-width: 0.8; stroke-linejoin: miter; stroke-linecap: square"/>
   </g>
   <g id="patch_21">
    <path d="M 343.117558 59.04 
L 436.885 59.04 
" style="fill: none; stroke: #000000; stroke-width: 0.8; stroke-linejoin: miter; stroke-linecap: square"/>
   </g>
   <g id="text_8">
    <!-- (a4) -->
    <g transform="translate(345.930581 69.588837) scale(0.1 -0.1)">
     <defs>
      <path id="DejaVuSans-34" d="M 2419 4116 
L 825 1625 
L 2419 1625 
L 2419 4116 
z
M 2253 4666 
L 3047 4666 
L 3047 1625 
L 3713 1625 
L 3713 1100 
L 3047 1100 
L 3047 0 
L 2419 0 
L 2419 1100 
L 313 1100 
L 313 1709 
L 2253 4666 
z
" transform="scale(0.015625)"/>
     </defs>
     <use xlink:href="#DejaVuSans-28"/>
     <use xlink:href="#DejaVuSans-61" transform="translate(39.013672 0)"/>
     <use xlink:href="#DejaVuSans-34" transform="translate(100.292969 0)"/>
     <use xlink:href="#DejaVuSans-29" transform="translate(163.916016 0)"/>
    </g>
   </g>
  </g>
  <g id="axes_5">
   <g id="patch_22">
    <path d="M 33.685 210.24 
L 127.452442 210.24 
L 127.452442 139.914419 
L 33.685 139.914419 
z
" style="fill: #ffffff"/>
   </g>
   <g id="PathCollection_5">
    <g clip-path="url(#p0dd79428e2)">
     <use xlink:href="#m9ea4325d8c" x="37.947156" y="207.408597" style="fill: #808080; stroke: #808080"/>
     <use xlink:href="#m9ea4325d8c" x="115.921495" y="157.222261" style="fill: #808080; stroke: #808080"/>
    </g>
   </g>
   <g id="matplotlib.axis_9">
    <g id="xtick_13">
     <g id="line2d_33">
      <g>
       <use xlink:href="#m5b84447281" x="39.268753" y="210.24" style="stroke: #000000; stroke-width: 0.8"/>
      </g>
     </g>
     <g id="text_9">
      <!-- 200 -->
      <g transform="translate(31.633753 223.31875) scale(0.08 -0.08)">
       <use xlink:href="#DejaVuSans-32"/>
       <use xlink:href="#DejaVuSans-30" transform="translate(63.623047 0)"/>
       <use xlink:href="#DejaVuSans-30" transform="translate(127.246094 0)"/>
      </g>
     </g>
    </g>
    <g id="xtick_14">
     <g id="line2d_34">
      <g>
       <use xlink:href="#m5b84447281" x="72.308725" y="210.24" style="stroke: #000000; stroke-width: 0.8"/>
      </g>
     </g>
     <g id="text_10">
      <!-- 250 -->
      <g transform="translate(64.673725 223.31875) scale(0.08 -0.08)">
       <use xlink:href="#DejaVuSans-32"/>
       <use xlink:href="#DejaVuSans-35" transform="translate(63.623047 0)"/>
       <use xlink:href="#DejaVuSans-30" transform="translate(127.246094 0)"/>
      </g>
     </g>
    </g>
    <g id="xtick_15">
     <g id="line2d_35">
      <g>
       <use xlink:href="#m5b84447281" x="105.348698" y="210.24" style="stroke: #000000; stroke-width: 0.8"/>
      </g>
     </g>
     <g id="text_11">
      <!-- 300 -->
      <g transform="translate(97.713698 223.31875) scale(0.08 -0.08)">
       <use xlink:href="#DejaVuSans-33"/>
       <use xlink:href="#DejaVuSans-30" transform="translate(63.623047 0)"/>
       <use xlink:href="#DejaVuSans-30" transform="translate(127.246094 0)"/>
      </g>
     </g>
    </g>
    <g id="text_12">
     <!-- Day of year -->
     <g transform="translate(57.347471 235.06125) scale(0.08 -0.08)">
      <defs>
       <path id="DejaVuSans-44" d="M 1259 4147 
L 1259 519 
L 2022 519 
Q 2988 519 3436 956 
Q 3884 1394 3884 2338 
Q 3884 3275 3436 3711 
Q 2988 4147 2022 4147 
L 1259 4147 
z
M 628 4666 
L 1925 4666 
Q 3281 4666 3915 4102 
Q 4550 3538 4550 2338 
Q 4550 1131 3912 565 
Q 3275 0 1925 0 
L 628 0 
L 628 4666 
z
" transform="scale(0.015625)"/>
       <path id="DejaVuSans-79" d="M 2059 -325 
Q 1816 -950 1584 -1140 
Q 1353 -1331 966 -1331 
L 506 -1331 
L 506 -850 
L 844 -850 
Q 1081 -850 1212 -737 
Q 1344 -625 1503 -206 
L 1606 56 
L 191 3500 
L 800 3500 
L 1894 763 
L 2988 3500 
L 3597 3500 
L 2059 -325 
z
" transform="scale(0.015625)"/>
       <path id="DejaVuSans-20" transform="scale(0.015625)"/>
       <path id="DejaVuSans-6f" d="M 1959 3097 
Q 1497 3097 1228 2736 
Q 959 2375 959 1747 
Q 959 1119 1226 758 
Q 1494 397 1959 397 
Q 2419 397 2687 759 
Q 2956 1122 2956 1747 
Q 2956 2369 2687 2733 
Q 2419 3097 1959 3097 
z
M 1959 3584 
Q 2709 3584 3137 3096 
Q 3566 2609 3566 1747 
Q 3566 888 3137 398 
Q 2709 -91 1959 -91 
Q 1206 -91 779 398 
Q 353 888 353 1747 
Q 353 2609 779 3096 
Q 1206 3584 1959 3584 
z
" transform="scale(0.015625)"/>
       <path id="DejaVuSans-66" d="M 2375 4863 
L 2375 4384 
L 1825 4384 
Q 1516 4384 1395 4259 
Q 1275 4134 1275 3809 
L 1275 3500 
L 2222 3500 
L 2222 3053 
L 1275 3053 
L 1275 0 
L 697 0 
L 697 3053 
L 147 3053 
L 147 3500 
L 697 3500 
L 697 3744 
Q 697 4328 969 4595 
Q 1241 4863 1831 4863 
L 2375 4863 
z
" transform="scale(0.015625)"/>
       <path id="DejaVuSans-65" d="M 3597 1894 
L 3597 1613 
L 953 1613 
Q 991 1019 1311 708 
Q 1631 397 2203 397 
Q 2534 397 2845 478 
Q 3156 559 3463 722 
L 3463 178 
Q 3153 47 2828 -22 
Q 2503 -91 2169 -91 
Q 1331 -91 842 396 
Q 353 884 353 1716 
Q 353 2575 817 3079 
Q 1281 3584 2069 3584 
Q 2775 3584 3186 3129 
Q 3597 2675 3597 1894 
z
M 3022 2063 
Q 3016 2534 2758 2815 
Q 2500 3097 2075 3097 
Q 1594 3097 1305 2825 
Q 1016 2553 972 2059 
L 3022 2063 
z
" transform="scale(0.015625)"/>
       <path id="DejaVuSans-72" d="M 2631 2963 
Q 2534 3019 2420 3045 
Q 2306 3072 2169 3072 
Q 1681 3072 1420 2755 
Q 1159 2438 1159 1844 
L 1159 0 
L 581 0 
L 581 3500 
L 1159 3500 
L 1159 2956 
Q 1341 3275 1631 3429 
Q 1922 3584 2338 3584 
Q 2397 3584 2469 3576 
Q 2541 3569 2628 3553 
L 2631 2963 
z
" transform="scale(0.015625)"/>
      </defs>
      <use xlink:href="#DejaVuSans-44"/>
      <use xlink:href="#DejaVuSans-61" transform="translate(77.001953 0)"/>
      <use xlink:href="#DejaVuSans-79" transform="translate(138.28125 0)"/>
      <use xlink:href="#DejaVuSans-20" transform="translate(197.460938 0)"/>
      <use xlink:href="#DejaVuSans-6f" transform="translate(229.248047 0)"/>
      <use xlink:href="#DejaVuSans-66" transform="translate(290.429688 0)"/>
      <use xlink:href="#DejaVuSans-20" transform="translate(325.634766 0)"/>
      <use xlink:href="#DejaVuSans-79" transform="translate(357.421875 0)"/>
      <use xlink:href="#DejaVuSans-65" transform="translate(416.601562 0)"/>
      <use xlink:href="#DejaVuSans-61" transform="translate(478.125 0)"/>
      <use xlink:href="#DejaVuSans-72" transform="translate(539.404297 0)"/>
     </g>
    </g>
   </g>
   <g id="matplotlib.axis_10">
    <g id="ytick_13">
     <g id="line2d_36">
      <g>
       <use xlink:href="#mfc92d27847" x="33.685" y="207.408597" style="stroke: #000000; stroke-width: 0.8"/>
      </g>
     </g>
     <g id="text_13">
      <!-- 0 -->
      <g transform="translate(25.02125 209.953597) rotate(-90) scale(0.08 -0.08)">
       <use xlink:href="#DejaVuSans-30"/>
      </g>
     </g>
    </g>
    <g id="ytick_14">
     <g id="line2d_37">
      <g>
       <use xlink:href="#mfc92d27847" x="33.685" y="182.09828" style="stroke: #000000; stroke-width: 0.8"/>
      </g>
     </g>
     <g id="text_14">
      <!-- 3000 -->
      <g transform="translate(25.02125 192.27828) rotate(-90) scale(0.08 -0.08)">
       <use xlink:href="#DejaVuSans-33"/>
       <use xlink:href="#DejaVuSans-30" transform="translate(63.623047 0)"/>
       <use xlink:href="#DejaVuSans-30" transform="translate(127.246094 0)"/>
       <use xlink:href="#DejaVuSans-30" transform="translate(190.869141 0)"/>
      </g>
     </g>
    </g>
    <g id="ytick_15">
     <g id="line2d_38">
      <g>
       <use xlink:href="#mfc92d27847" x="33.685" y="156.787963" style="stroke: #000000; stroke-width: 0.8"/>
      </g>
     </g>
     <g id="text_15">
      <!-- 6000 -->
      <g transform="translate(25.02125 166.967963) rotate(-90) scale(0.08 -0.08)">
       <defs>
        <path id="DejaVuSans-36" d="M 2113 2584 
Q 1688 2584 1439 2293 
Q 1191 2003 1191 1497 
Q 1191 994 1439 701 
Q 1688 409 2113 409 
Q 2538 409 2786 701 
Q 3034 994 3034 1497 
Q 3034 2003 2786 2293 
Q 2538 2584 2113 2584 
z
M 3366 4563 
L 3366 3988 
Q 3128 4100 2886 4159 
Q 2644 4219 2406 4219 
Q 1781 4219 1451 3797 
Q 1122 3375 1075 2522 
Q 1259 2794 1537 2939 
Q 1816 3084 2150 3084 
Q 2853 3084 3261 2657 
Q 3669 2231 3669 1497 
Q 3669 778 3244 343 
Q 2819 -91 2113 -91 
Q 1303 -91 875 529 
Q 447 1150 447 2328 
Q 447 3434 972 4092 
Q 1497 4750 2381 4750 
Q 2619 4750 2861 4703 
Q 3103 4656 3366 4563 
z
" transform="scale(0.015625)"/>
       </defs>
       <use xlink:href="#DejaVuSans-36"/>
       <use xlink:href="#DejaVuSans-30" transform="translate(63.623047 0)"/>
       <use xlink:href="#DejaVuSans-30" transform="translate(127.246094 0)"/>
       <use xlink:href="#DejaVuSans-30" transform="translate(190.869141 0)"/>
      </g>
     </g>
    </g>
    <g id="text_16">
     <!-- YIELD(kg/ha) -->
     <g transform="translate(13.27875 200.847209) rotate(-90) scale(0.08 -0.08)">
      <defs>
       <path id="DejaVuSans-59" d="M -13 4666 
L 666 4666 
L 1959 2747 
L 3244 4666 
L 3922 4666 
L 2272 2222 
L 2272 0 
L 1638 0 
L 1638 2222 
L -13 4666 
z
" transform="scale(0.015625)"/>
       <path id="DejaVuSans-49" d="M 628 4666 
L 1259 4666 
L 1259 0 
L 628 0 
L 628 4666 
z
" transform="scale(0.015625)"/>
       <path id="DejaVuSans-45" d="M 628 4666 
L 3578 4666 
L 3578 4134 
L 1259 4134 
L 1259 2753 
L 3481 2753 
L 3481 2222 
L 1259 2222 
L 1259 531 
L 3634 531 
L 3634 0 
L 628 0 
L 628 4666 
z
" transform="scale(0.015625)"/>
      </defs>
      <use xlink:href="#DejaVuSans-59"/>
      <use xlink:href="#DejaVuSans-49" transform="translate(61.083984 0)"/>
      <use xlink:href="#DejaVuSans-45" transform="translate(90.576172 0)"/>
      <use xlink:href="#DejaVuSans-4c" transform="translate(153.759766 0)"/>
      <use xlink:href="#DejaVuSans-44" transform="translate(209.472656 0)"/>
      <use xlink:href="#DejaVuSans-28" transform="translate(286.474609 0)"/>
      <use xlink:href="#DejaVuSans-6b" transform="translate(325.488281 0)"/>
      <use xlink:href="#DejaVuSans-67" transform="translate(383.398438 0)"/>
      <use xlink:href="#DejaVuSans-2f" transform="translate(446.875 0)"/>
      <use xlink:href="#DejaVuSans-68" transform="translate(480.566406 0)"/>
      <use xlink:href="#DejaVuSans-61" transform="translate(543.945312 0)"/>
      <use xlink:href="#DejaVuSans-29" transform="translate(605.224609 0)"/>
     </g>
    </g>
   </g>
   <g id="line2d_39">
    <path d="M 37.947156 207.408597 
L 82.22072 207.408597 
L 84.203116 204.078266 
L 85.524718 201.541413 
L 87.507114 196.513349 
L 89.48951 190.741753 
L 92.132714 183.02295 
L 92.793508 181.606416 
L 93.454302 180.576285 
L 96.097506 174.611488 
L 96.7583 173.951732 
L 98.079902 171.776732 
L 98.740711 170.495186 
L 99.401505 169.784811 
L 101.383901 166.489408 
L 102.044694 165.517492 
L 102.705503 164.872077 
L 105.348693 163.324774 
L 106.009501 162.983083 
L 106.670295 162.458317 
L 108.652691 160.002372 
L 109.974293 158.770605 
L 114.599893 155.02468 
L 115.921495 154.199559 
L 116.582289 153.955737 
L 117.243083 153.838468 
L 118.564685 153.225956 
L 119.886287 152.945857 
L 120.547081 152.860646 
L 123.190285 152.17389 
L 123.190285 152.17389 
" clip-path="url(#p0dd79428e2)" style="fill: none; stroke: #808080; stroke-linecap: square"/>
   </g>
   <g id="line2d_40">
    <path d="M 37.947156 207.408597 
L 38.60795 168.73718 
L 39.268759 165.412709 
L 39.929552 165.631985 
L 40.590346 168.88256 
L 41.251155 172.833219 
L 42.572757 183.704469 
L 43.894344 196.877309 
L 44.555153 204.251602 
L 45.215947 203.170309 
L 46.537549 188.670373 
L 47.198343 182.219888 
L 47.859151 178.439084 
L 48.519945 175.424494 
L 49.180739 175.041674 
L 49.841547 182.128512 
L 50.502341 192.339615 
L 51.163149 204.416621 
L 51.823943 197.696369 
L 52.484737 185.849431 
L 53.145545 176.56631 
L 53.806339 171.070073 
L 54.467147 167.838334 
L 55.127941 167.042795 
L 55.788735 168.0141 
L 56.449543 169.915444 
L 57.110337 172.988769 
L 58.431939 180.761407 
L 61.735937 205.122431 
L 62.396731 206.585395 
L 63.057539 205.292049 
L 63.718333 205.711212 
L 64.379127 207.296678 
L 65.039935 206.050743 
L 65.700729 201.664012 
L 67.022331 189.837045 
L 67.683125 185.237186 
L 68.343934 181.688477 
L 69.004727 178.868978 
L 69.665521 176.69376 
L 70.32633 175.307766 
L 70.987123 174.384251 
L 71.647932 174.171232 
L 72.308726 174.559743 
L 72.969519 175.311555 
L 73.630328 176.657096 
L 74.95193 180.319341 
L 75.612724 181.287747 
L 76.273518 180.711474 
L 77.59512 177.835149 
L 78.255914 176.441827 
L 79.577516 172.860874 
L 80.238324 170.860595 
L 82.22072 163.477782 
L 84.203116 158.985773 
L 84.86391 158.178736 
L 85.524718 157.920627 
L 86.185512 158.536383 
L 86.84632 158.759054 
L 87.507114 159.119587 
L 88.828716 158.967358 
L 89.48951 158.30113 
L 91.471906 155.034732 
L 92.132714 154.370812 
L 92.793508 152.977779 
L 93.454302 152.504523 
L 94.11511 153.233575 
L 94.775904 153.678947 
L 95.436713 153.970728 
L 96.097506 153.366483 
L 96.7583 151.553669 
L 97.419109 151.856146 
L 98.079902 152.297657 
L 98.740711 152.482235 
L 99.401505 150.780536 
L 100.062298 150.874296 
L 100.723107 151.654721 
L 101.383901 150.871113 
L 102.044694 151.760369 
L 103.366297 152.505966 
L 104.027105 153.206988 
L 104.687899 154.294215 
L 105.348693 154.717159 
L 106.009501 154.83111 
L 106.670295 155.082123 
L 107.331103 156.09415 
L 107.991897 155.395839 
L 108.652691 154.245567 
L 109.313499 153.72226 
L 109.974293 153.347616 
L 110.635087 153.723004 
L 111.295895 154.312519 
L 112.617497 152.884291 
L 113.939085 153.251371 
L 115.260687 152.414961 
L 115.921495 152.368069 
L 116.582289 151.619626 
L 117.243083 152.123321 
L 117.903891 154.415507 
L 118.564685 155.273928 
L 119.225493 154.720931 
L 119.886287 155.540661 
L 120.547081 155.89359 
L 121.207889 157.180311 
L 121.868683 156.811169 
L 122.529477 156.846998 
L 123.190285 157.49277 
L 123.190285 157.49277 
" clip-path="url(#p0dd79428e2)" style="fill: none; stroke: #0000ff; stroke-width: 0.75; stroke-linecap: square"/>
   </g>
   <g id="patch_23">
    <path d="M 33.685 210.24 
L 33.685 139.914419 
" style="fill: none; stroke: #000000; stroke-width: 0.8; stroke-linejoin: miter; stroke-linecap: square"/>
   </g>
   <g id="patch_24">
    <path d="M 127.452442 210.24 
L 127.452442 139.914419 
" style="fill: none; stroke: #000000; stroke-width: 0.8; stroke-linejoin: miter; stroke-linecap: square"/>
   </g>
   <g id="patch_25">
    <path d="M 33.685 210.24 
L 127.452442 210.24 
" style="fill: none; stroke: #000000; stroke-width: 0.8; stroke-linejoin: miter; stroke-linecap: square"/>
   </g>
   <g id="patch_26">
    <path d="M 33.685 139.914419 
L 127.452442 139.914419 
" style="fill: none; stroke: #000000; stroke-width: 0.8; stroke-linejoin: miter; stroke-linecap: square"/>
   </g>
   <g id="text_17">
    <!-- (b1) -->
    <g transform="translate(36.498023 150.463256) scale(0.1 -0.1)">
     <defs>
      <path id="DejaVuSans-62" d="M 3116 1747 
Q 3116 2381 2855 2742 
Q 2594 3103 2138 3103 
Q 1681 3103 1420 2742 
Q 1159 2381 1159 1747 
Q 1159 1113 1420 752 
Q 1681 391 2138 391 
Q 2594 391 2855 752 
Q 3116 1113 3116 1747 
z
M 1159 2969 
Q 1341 3281 1617 3432 
Q 1894 3584 2278 3584 
Q 2916 3584 3314 3078 
Q 3713 2572 3713 1747 
Q 3713 922 3314 415 
Q 2916 -91 2278 -91 
Q 1894 -91 1617 61 
Q 1341 213 1159 525 
L 1159 0 
L 581 0 
L 581 4863 
L 1159 4863 
L 1159 2969 
z
" transform="scale(0.015625)"/>
     </defs>
     <use xlink:href="#DejaVuSans-28"/>
     <use xlink:href="#DejaVuSans-62" transform="translate(39.013672 0)"/>
     <use xlink:href="#DejaVuSans-31" transform="translate(102.490234 0)"/>
     <use xlink:href="#DejaVuSans-29" transform="translate(166.113281 0)"/>
    </g>
   </g>
  </g>
  <g id="axes_6">
   <g id="patch_27">
    <path d="M 136.829186 210.24 
L 230.596628 210.24 
L 230.596628 139.914419 
L 136.829186 139.914419 
z
" style="fill: #ffffff"/>
   </g>
   <g id="PathCollection_6">
    <g clip-path="url(#p7e125949c9)">
     <use xlink:href="#m9ea4325d8c" x="141.091342" y="207.475526" style="fill: #808080; stroke: #808080"/>
     <use xlink:href="#m9ea4325d8c" x="219.065681" y="157.239423" style="fill: #808080; stroke: #808080"/>
    </g>
   </g>
   <g id="matplotlib.axis_11">
    <g id="xtick_16">
     <g id="line2d_41">
      <g>
       <use xlink:href="#m5b84447281" x="142.412939" y="210.24" style="stroke: #000000; stroke-width: 0.8"/>
      </g>
     </g>
     <g id="text_18">
      <!-- 200 -->
      <g transform="translate(134.777939 223.31875) scale(0.08 -0.08)">
       <use xlink:href="#DejaVuSans-32"/>
       <use xlink:href="#DejaVuSans-30" transform="translate(63.623047 0)"/>
       <use xlink:href="#DejaVuSans-30" transform="translate(127.246094 0)"/>
      </g>
     </g>
    </g>
    <g id="xtick_17">
     <g id="line2d_42">
      <g>
       <use xlink:href="#m5b84447281" x="175.452912" y="210.24" style="stroke: #000000; stroke-width: 0.8"/>
      </g>
     </g>
     <g id="text_19">
      <!-- 250 -->
      <g transform="translate(167.817912 223.31875) scale(0.08 -0.08)">
       <use xlink:href="#DejaVuSans-32"/>
       <use xlink:href="#DejaVuSans-35" transform="translate(63.623047 0)"/>
       <use xlink:href="#DejaVuSans-30" transform="translate(127.246094 0)"/>
      </g>
     </g>
    </g>
    <g id="xtick_18">
     <g id="line2d_43">
      <g>
       <use xlink:href="#m5b84447281" x="208.492884" y="210.24" style="stroke: #000000; stroke-width: 0.8"/>
      </g>
     </g>
     <g id="text_20">
      <!-- 300 -->
      <g transform="translate(200.857884 223.31875) scale(0.08 -0.08)">
       <use xlink:href="#DejaVuSans-33"/>
       <use xlink:href="#DejaVuSans-30" transform="translate(63.623047 0)"/>
       <use xlink:href="#DejaVuSans-30" transform="translate(127.246094 0)"/>
      </g>
     </g>
    </g>
    <g id="text_21">
     <!-- Day of year -->
     <g transform="translate(160.491657 235.06125) scale(0.08 -0.08)">
      <use xlink:href="#DejaVuSans-44"/>
      <use xlink:href="#DejaVuSans-61" transform="translate(77.001953 0)"/>
      <use xlink:href="#DejaVuSans-79" transform="translate(138.28125 0)"/>
      <use xlink:href="#DejaVuSans-20" transform="translate(197.460938 0)"/>
      <use xlink:href="#DejaVuSans-6f" transform="translate(229.248047 0)"/>
      <use xlink:href="#DejaVuSans-66" transform="translate(290.429688 0)"/>
      <use xlink:href="#DejaVuSans-20" transform="translate(325.634766 0)"/>
      <use xlink:href="#DejaVuSans-79" transform="translate(357.421875 0)"/>
      <use xlink:href="#DejaVuSans-65" transform="translate(416.601562 0)"/>
      <use xlink:href="#DejaVuSans-61" transform="translate(478.125 0)"/>
      <use xlink:href="#DejaVuSans-72" transform="translate(539.404297 0)"/>
     </g>
    </g>
   </g>
   <g id="matplotlib.axis_12">
    <g id="ytick_16">
     <g id="line2d_44">
      <g>
       <use xlink:href="#mfc92d27847" x="136.829186" y="207.475526" style="stroke: #000000; stroke-width: 0.8"/>
      </g>
     </g>
    </g>
    <g id="ytick_17">
     <g id="line2d_45">
      <g>
       <use xlink:href="#mfc92d27847" x="136.829186" y="182.140111" style="stroke: #000000; stroke-width: 0.8"/>
      </g>
     </g>
    </g>
    <g id="ytick_18">
     <g id="line2d_46">
      <g>
       <use xlink:href="#mfc92d27847" x="136.829186" y="156.804695" style="stroke: #000000; stroke-width: 0.8"/>
      </g>
     </g>
    </g>
   </g>
   <g id="line2d_47">
    <path d="M 141.091342 207.475526 
L 185.364906 207.475526 
L 187.347302 204.141892 
L 188.668904 201.602524 
L 190.6513 196.569474 
L 192.633696 190.792155 
L 195.2769 183.065698 
L 195.937694 181.647759 
L 196.598488 180.616607 
L 199.241692 174.645895 
L 199.902486 173.985484 
L 201.224088 171.808328 
L 201.884897 170.525511 
L 202.545691 169.814431 
L 204.528087 166.51576 
L 205.18888 165.542881 
L 205.849689 164.896826 
L 208.492879 163.347988 
L 209.153687 163.005959 
L 209.814481 162.480673 
L 211.796877 160.022292 
L 213.118479 158.789303 
L 217.744079 155.039664 
L 219.065681 154.213725 
L 219.726475 153.969661 
L 220.387269 153.852275 
L 221.708871 153.239156 
L 223.030473 152.95878 
L 223.691267 152.873484 
L 226.334471 152.186047 
L 226.334471 152.186047 
" clip-path="url(#p7e125949c9)" style="fill: none; stroke: #808080; stroke-linecap: square"/>
   </g>
   <g id="line2d_48">
    <path d="M 141.091342 207.475526 
L 164.880123 207.154714 
L 170.827311 206.779261 
L 174.792118 206.272946 
L 178.096116 205.725369 
L 180.739306 204.729525 
L 183.38251 203.529401 
L 185.364906 202.105606 
L 188.008096 199.900423 
L 188.668904 199.494999 
L 189.990506 197.802347 
L 191.312094 195.715182 
L 193.955298 190.930121 
L 195.937694 186.300028 
L 196.598488 184.707631 
L 197.92009 180.550363 
L 200.563295 171.145992 
L 201.884897 166.176152 
L 203.867293 160.288801 
L 205.18888 157.316338 
L 205.849689 156.169315 
L 206.510483 155.390527 
L 207.832085 154.46021 
L 208.492879 154.270998 
L 209.153687 154.298804 
L 209.814481 154.165839 
L 211.136083 153.343097 
L 211.796877 153.042173 
L 212.457685 152.921837 
L 213.118479 153.027973 
L 214.440081 153.411938 
L 216.422477 153.485334 
L 219.065681 153.662641 
L 219.726475 153.985542 
L 220.387269 154.540064 
L 221.048077 154.896083 
L 222.369679 155.336123 
L 223.030473 155.854226 
L 223.691267 156.591995 
L 226.334471 156.985141 
L 226.334471 156.985141 
" clip-path="url(#p7e125949c9)" style="fill: none; stroke: #ff0000; stroke-width: 0.75; stroke-linecap: square"/>
   </g>
   <g id="patch_28">
    <path d="M 136.829186 210.24 
L 136.829186 139.914419 
" style="fill: none; stroke: #000000; stroke-width: 0.8; stroke-linejoin: miter; stroke-linecap: square"/>
   </g>
   <g id="patch_29">
    <path d="M 230.596628 210.24 
L 230.596628 139.914419 
" style="fill: none; stroke: #000000; stroke-width: 0.8; stroke-linejoin: miter; stroke-linecap: square"/>
   </g>
   <g id="patch_30">
    <path d="M 136.829186 210.24 
L 230.596628 210.24 
" style="fill: none; stroke: #000000; stroke-width: 0.8; stroke-linejoin: miter; stroke-linecap: square"/>
   </g>
   <g id="patch_31">
    <path d="M 136.829186 139.914419 
L 230.596628 139.914419 
" style="fill: none; stroke: #000000; stroke-width: 0.8; stroke-linejoin: miter; stroke-linecap: square"/>
   </g>
   <g id="text_22">
    <!-- (b2) -->
    <g transform="translate(139.642209 150.463256) scale(0.1 -0.1)">
     <use xlink:href="#DejaVuSans-28"/>
     <use xlink:href="#DejaVuSans-62" transform="translate(39.013672 0)"/>
     <use xlink:href="#DejaVuSans-32" transform="translate(102.490234 0)"/>
     <use xlink:href="#DejaVuSans-29" transform="translate(166.113281 0)"/>
    </g>
   </g>
  </g>
  <g id="axes_7">
   <g id="patch_32">
    <path d="M 239.973372 210.24 
L 333.740814 210.24 
L 333.740814 139.914419 
L 239.973372 139.914419 
z
" style="fill: #ffffff"/>
   </g>
   <g id="PathCollection_7">
    <g clip-path="url(#p91714890fe)">
     <use xlink:href="#m9ea4325d8c" x="244.235529" y="207.475526" style="fill: #808080; stroke: #808080"/>
     <use xlink:href="#m9ea4325d8c" x="322.209867" y="157.239423" style="fill: #808080; stroke: #808080"/>
    </g>
   </g>
   <g id="matplotlib.axis_13">
    <g id="xtick_19">
     <g id="line2d_49">
      <g>
       <use xlink:href="#m5b84447281" x="245.557125" y="210.24" style="stroke: #000000; stroke-width: 0.8"/>
      </g>
     </g>
     <g id="text_23">
      <!-- 200 -->
      <g transform="translate(237.922125 223.31875) scale(0.08 -0.08)">
       <use xlink:href="#DejaVuSans-32"/>
       <use xlink:href="#DejaVuSans-30" transform="translate(63.623047 0)"/>
       <use xlink:href="#DejaVuSans-30" transform="translate(127.246094 0)"/>
      </g>
     </g>
    </g>
    <g id="xtick_20">
     <g id="line2d_50">
      <g>
       <use xlink:href="#m5b84447281" x="278.597098" y="210.24" style="stroke: #000000; stroke-width: 0.8"/>
      </g>
     </g>
     <g id="text_24">
      <!-- 250 -->
      <g transform="translate(270.962098 223.31875) scale(0.08 -0.08)">
       <use xlink:href="#DejaVuSans-32"/>
       <use xlink:href="#DejaVuSans-35" transform="translate(63.623047 0)"/>
       <use xlink:href="#DejaVuSans-30" transform="translate(127.246094 0)"/>
      </g>
     </g>
    </g>
    <g id="xtick_21">
     <g id="line2d_51">
      <g>
       <use xlink:href="#m5b84447281" x="311.63707" y="210.24" style="stroke: #000000; stroke-width: 0.8"/>
      </g>
     </g>
     <g id="text_25">
      <!-- 300 -->
      <g transform="translate(304.00207 223.31875) scale(0.08 -0.08)">
       <use xlink:href="#DejaVuSans-33"/>
       <use xlink:href="#DejaVuSans-30" transform="translate(63.623047 0)"/>
       <use xlink:href="#DejaVuSans-30" transform="translate(127.246094 0)"/>
      </g>
     </g>
    </g>
    <g id="text_26">
     <!-- Day of year -->
     <g transform="translate(263.635843 235.06125) scale(0.08 -0.08)">
      <use xlink:href="#DejaVuSans-44"/>
      <use xlink:href="#DejaVuSans-61" transform="translate(77.001953 0)"/>
      <use xlink:href="#DejaVuSans-79" transform="translate(138.28125 0)"/>
      <use xlink:href="#DejaVuSans-20" transform="translate(197.460938 0)"/>
      <use xlink:href="#DejaVuSans-6f" transform="translate(229.248047 0)"/>
      <use xlink:href="#DejaVuSans-66" transform="translate(290.429688 0)"/>
      <use xlink:href="#DejaVuSans-20" transform="translate(325.634766 0)"/>
      <use xlink:href="#DejaVuSans-79" transform="translate(357.421875 0)"/>
      <use xlink:href="#DejaVuSans-65" transform="translate(416.601562 0)"/>
      <use xlink:href="#DejaVuSans-61" transform="translate(478.125 0)"/>
      <use xlink:href="#DejaVuSans-72" transform="translate(539.404297 0)"/>
     </g>
    </g>
   </g>
   <g id="matplotlib.axis_14">
    <g id="ytick_19">
     <g id="line2d_52">
      <g>
       <use xlink:href="#mfc92d27847" x="239.973372" y="207.475526" style="stroke: #000000; stroke-width: 0.8"/>
      </g>
     </g>
    </g>
    <g id="ytick_20">
     <g id="line2d_53">
      <g>
       <use xlink:href="#mfc92d27847" x="239.973372" y="182.140111" style="stroke: #000000; stroke-width: 0.8"/>
      </g>
     </g>
    </g>
    <g id="ytick_21">
     <g id="line2d_54">
      <g>
       <use xlink:href="#mfc92d27847" x="239.973372" y="156.804695" style="stroke: #000000; stroke-width: 0.8"/>
      </g>
     </g>
    </g>
   </g>
   <g id="line2d_55">
    <path d="M 244.235529 207.475526 
L 288.509092 207.475526 
L 290.491488 204.141892 
L 291.81309 201.602524 
L 293.795486 196.569474 
L 295.777882 190.792155 
L 298.421087 183.065698 
L 299.08188 181.647759 
L 299.742674 180.616607 
L 302.385879 174.645895 
L 303.046672 173.985484 
L 304.368275 171.808328 
L 305.029083 170.525511 
L 305.689877 169.814431 
L 307.672273 166.51576 
L 308.333067 165.542881 
L 308.993875 164.896826 
L 311.637065 163.347988 
L 312.297873 163.005959 
L 312.958667 162.480673 
L 314.941063 160.022292 
L 316.262665 158.789303 
L 320.888265 155.039664 
L 322.209867 154.213725 
L 322.870661 153.969661 
L 323.531455 153.852275 
L 324.853057 153.239156 
L 326.174659 152.95878 
L 326.835453 152.873484 
L 329.478658 152.186047 
L 329.478658 152.186047 
" clip-path="url(#p91714890fe)" style="fill: none; stroke: #808080; stroke-linecap: square"/>
   </g>
   <g id="line2d_56">
    <path d="M 244.235529 207.475526 
L 244.896322 206.241453 
L 245.557131 206.869027 
L 246.878718 206.470806 
L 252.825921 207.261366 
L 253.486715 207.437145 
L 254.147523 207.326134 
L 255.469111 207.465359 
L 256.790713 206.306924 
L 257.451521 206.452981 
L 258.773109 207.211265 
L 259.433917 206.990302 
L 260.094711 207.19004 
L 262.077107 207.167183 
L 263.398709 207.463441 
L 264.059503 207.204447 
L 264.720311 207.121347 
L 265.381105 207.249031 
L 266.041913 207.002385 
L 266.702707 206.633024 
L 267.363501 206.44492 
L 268.024309 206.406738 
L 268.685103 206.22997 
L 269.345912 205.902533 
L 270.667499 205.052456 
L 271.328308 205.709751 
L 272.64991 204.919518 
L 273.310704 204.882678 
L 273.971497 205.594336 
L 275.2931 206.036466 
L 275.953893 206.394444 
L 276.614702 206.300144 
L 277.275496 206.380567 
L 279.257892 206.178294 
L 279.9187 206.242085 
L 280.579494 206.493779 
L 282.56189 205.973122 
L 283.222698 206.013338 
L 285.865888 206.786129 
L 287.18749 207.382307 
L 288.509092 205.892688 
L 289.830694 203.851764 
L 292.473884 198.989579 
L 293.795486 196.082879 
L 297.760278 187.53049 
L 299.08188 185.172566 
L 307.011479 172.906119 
L 308.993875 170.159889 
L 311.637065 167.77213 
L 312.958667 166.853931 
L 314.941063 164.903788 
L 316.262665 163.477259 
L 317.584267 162.596302 
L 318.905869 161.798169 
L 320.227457 161.021832 
L 322.870661 159.552678 
L 323.531455 159.146268 
L 324.853057 158.825264 
L 326.174659 158.169469 
L 326.835453 158.315688 
L 328.157055 158.005527 
L 329.478658 157.500058 
L 329.478658 157.500058 
" clip-path="url(#p91714890fe)" style="fill: none; stroke: #0000ff; stroke-width: 0.75; stroke-linecap: square"/>
   </g>
   <g id="patch_33">
    <path d="M 239.973372 210.24 
L 239.973372 139.914419 
" style="fill: none; stroke: #000000; stroke-width: 0.8; stroke-linejoin: miter; stroke-linecap: square"/>
   </g>
   <g id="patch_34">
    <path d="M 333.740814 210.24 
L 333.740814 139.914419 
" style="fill: none; stroke: #000000; stroke-width: 0.8; stroke-linejoin: miter; stroke-linecap: square"/>
   </g>
   <g id="patch_35">
    <path d="M 239.973372 210.24 
L 333.740814 210.24 
" style="fill: none; stroke: #000000; stroke-width: 0.8; stroke-linejoin: miter; stroke-linecap: square"/>
   </g>
   <g id="patch_36">
    <path d="M 239.973372 139.914419 
L 333.740814 139.914419 
" style="fill: none; stroke: #000000; stroke-width: 0.8; stroke-linejoin: miter; stroke-linecap: square"/>
   </g>
   <g id="text_27">
    <!-- (b3) -->
    <g transform="translate(242.786395 150.463256) scale(0.1 -0.1)">
     <use xlink:href="#DejaVuSans-28"/>
     <use xlink:href="#DejaVuSans-62" transform="translate(39.013672 0)"/>
     <use xlink:href="#DejaVuSans-33" transform="translate(102.490234 0)"/>
     <use xlink:href="#DejaVuSans-29" transform="translate(166.113281 0)"/>
    </g>
   </g>
  </g>
  <g id="axes_8">
   <g id="patch_37">
    <path d="M 343.117558 210.24 
L 436.885 210.24 
L 436.885 139.914419 
L 343.117558 139.914419 
z
" style="fill: #ffffff"/>
   </g>
   <g id="PathCollection_8">
    <g clip-path="url(#p8aced81de6)">
     <use xlink:href="#m9ea4325d8c" x="347.379715" y="207.475526" style="fill: #808080; stroke: #808080"/>
     <use xlink:href="#m9ea4325d8c" x="425.354053" y="157.239423" style="fill: #808080; stroke: #808080"/>
    </g>
   </g>
   <g id="matplotlib.axis_15">
    <g id="xtick_22">
     <g id="line2d_57">
      <g>
       <use xlink:href="#m5b84447281" x="348.701311" y="210.24" style="stroke: #000000; stroke-width: 0.8"/>
      </g>
     </g>
     <g id="text_28">
      <!-- 200 -->
      <g transform="translate(341.066311 223.31875) scale(0.08 -0.08)">
       <use xlink:href="#DejaVuSans-32"/>
       <use xlink:href="#DejaVuSans-30" transform="translate(63.623047 0)"/>
       <use xlink:href="#DejaVuSans-30" transform="translate(127.246094 0)"/>
      </g>
     </g>
    </g>
    <g id="xtick_23">
     <g id="line2d_58">
      <g>
       <use xlink:href="#m5b84447281" x="381.741284" y="210.24" style="stroke: #000000; stroke-width: 0.8"/>
      </g>
     </g>
     <g id="text_29">
      <!-- 250 -->
      <g transform="translate(374.106284 223.31875) scale(0.08 -0.08)">
       <use xlink:href="#DejaVuSans-32"/>
       <use xlink:href="#DejaVuSans-35" transform="translate(63.623047 0)"/>
       <use xlink:href="#DejaVuSans-30" transform="translate(127.246094 0)"/>
      </g>
     </g>
    </g>
    <g id="xtick_24">
     <g id="line2d_59">
      <g>
       <use xlink:href="#m5b84447281" x="414.781256" y="210.24" style="stroke: #000000; stroke-width: 0.8"/>
      </g>
     </g>
     <g id="text_30">
      <!-- 300 -->
      <g transform="translate(407.146256 223.31875) scale(0.08 -0.08)">
       <use xlink:href="#DejaVuSans-33"/>
       <use xlink:href="#DejaVuSans-30" transform="translate(63.623047 0)"/>
       <use xlink:href="#DejaVuSans-30" transform="translate(127.246094 0)"/>
      </g>
     </g>
    </g>
    <g id="text_31">
     <!-- Day of year -->
     <g transform="translate(366.780029 235.06125) scale(0.08 -0.08)">
      <use xlink:href="#DejaVuSans-44"/>
      <use xlink:href="#DejaVuSans-61" transform="translate(77.001953 0)"/>
      <use xlink:href="#DejaVuSans-79" transform="translate(138.28125 0)"/>
      <use xlink:href="#DejaVuSans-20" transform="translate(197.460938 0)"/>
      <use xlink:href="#DejaVuSans-6f" transform="translate(229.248047 0)"/>
      <use xlink:href="#DejaVuSans-66" transform="translate(290.429688 0)"/>
      <use xlink:href="#DejaVuSans-20" transform="translate(325.634766 0)"/>
      <use xlink:href="#DejaVuSans-79" transform="translate(357.421875 0)"/>
      <use xlink:href="#DejaVuSans-65" transform="translate(416.601562 0)"/>
      <use xlink:href="#DejaVuSans-61" transform="translate(478.125 0)"/>
      <use xlink:href="#DejaVuSans-72" transform="translate(539.404297 0)"/>
     </g>
    </g>
   </g>
   <g id="matplotlib.axis_16">
    <g id="ytick_22">
     <g id="line2d_60">
      <g>
       <use xlink:href="#mfc92d27847" x="343.117558" y="207.475526" style="stroke: #000000; stroke-width: 0.8"/>
      </g>
     </g>
    </g>
    <g id="ytick_23">
     <g id="line2d_61">
      <g>
       <use xlink:href="#mfc92d27847" x="343.117558" y="182.140111" style="stroke: #000000; stroke-width: 0.8"/>
      </g>
     </g>
    </g>
    <g id="ytick_24">
     <g id="line2d_62">
      <g>
       <use xlink:href="#mfc92d27847" x="343.117558" y="156.804695" style="stroke: #000000; stroke-width: 0.8"/>
      </g>
     </g>
    </g>
   </g>
   <g id="line2d_63">
    <path d="M 347.379715 207.475526 
L 391.653278 207.475526 
L 393.635674 204.141892 
L 394.957276 201.602524 
L 396.939672 196.569474 
L 398.922068 190.792155 
L 401.565273 183.065698 
L 402.226066 181.647759 
L 402.88686 180.616607 
L 405.530065 174.645895 
L 406.190858 173.985484 
L 407.512461 171.808328 
L 408.173269 170.525511 
L 408.834063 169.814431 
L 410.816459 166.51576 
L 411.477253 165.542881 
L 412.138061 164.896826 
L 414.781251 163.347988 
L 415.442059 163.005959 
L 416.102853 162.480673 
L 418.085249 160.022292 
L 419.406851 158.789303 
L 424.032451 155.039664 
L 425.354053 154.213725 
L 426.014847 153.969661 
L 426.675641 153.852275 
L 427.997243 153.239156 
L 429.318845 152.95878 
L 429.979639 152.873484 
L 432.622844 152.186047 
L 432.622844 152.186047 
" clip-path="url(#p8aced81de6)" style="fill: none; stroke: #808080; stroke-linecap: square"/>
   </g>
   <g id="line2d_64">
    <path d="M 347.379715 207.475526 
L 379.758888 207.38014 
L 384.384488 207.133447 
L 387.688472 206.420736 
L 389.010074 206.042168 
L 389.670882 205.748306 
L 390.99247 204.796608 
L 391.653278 204.360216 
L 392.97488 202.840122 
L 394.957276 200.577428 
L 395.61807 199.214399 
L 396.939672 195.664684 
L 401.565273 182.432099 
L 404.208462 176.890912 
L 405.530065 174.145571 
L 406.190858 173.320145 
L 408.173269 170.293669 
L 408.834063 169.678529 
L 410.155665 167.840948 
L 410.816459 167.347757 
L 411.477253 166.576449 
L 413.459663 165.16339 
L 415.442059 164.035722 
L 416.102853 163.690239 
L 416.763661 162.915538 
L 418.085249 161.848929 
L 420.067645 160.84442 
L 421.389247 159.795176 
L 422.710849 159.094088 
L 424.693245 157.948943 
L 425.354053 157.599423 
L 426.675641 157.388511 
L 427.997243 156.725992 
L 429.979639 156.408642 
L 430.640448 156.128789 
L 431.962035 155.840081 
L 432.622844 155.555985 
L 432.622844 155.555985 
" clip-path="url(#p8aced81de6)" style="fill: none; stroke: #ff0000; stroke-width: 0.75; stroke-linecap: square"/>
   </g>
   <g id="patch_38">
    <path d="M 343.117558 210.24 
L 343.117558 139.914419 
" style="fill: none; stroke: #000000; stroke-width: 0.8; stroke-linejoin: miter; stroke-linecap: square"/>
   </g>
   <g id="patch_39">
    <path d="M 436.885 210.24 
L 436.885 139.914419 
" style="fill: none; stroke: #000000; stroke-width: 0.8; stroke-linejoin: miter; stroke-linecap: square"/>
   </g>
   <g id="patch_40">
    <path d="M 343.117558 210.24 
L 436.885 210.24 
" style="fill: none; stroke: #000000; stroke-width: 0.8; stroke-linejoin: miter; stroke-linecap: square"/>
   </g>
   <g id="patch_41">
    <path d="M 343.117558 139.914419 
L 436.885 139.914419 
" style="fill: none; stroke: #000000; stroke-width: 0.8; stroke-linejoin: miter; stroke-linecap: square"/>
   </g>
   <g id="text_32">
    <!-- (b4) -->
    <g transform="translate(345.930581 150.463256) scale(0.1 -0.1)">
     <use xlink:href="#DejaVuSans-28"/>
     <use xlink:href="#DejaVuSans-62" transform="translate(39.013672 0)"/>
     <use xlink:href="#DejaVuSans-34" transform="translate(102.490234 0)"/>
     <use xlink:href="#DejaVuSans-29" transform="translate(166.113281 0)"/>
    </g>
   </g>
  </g>
  <g id="patch_42">
   <path d="M 33.685 59.04 
L 127.452442 59.04 
L 127.452442 20.16 
L 33.685 20.16 
z
" style="fill: #d3d3d3; stroke: #000000; stroke-linejoin: miter"/>
  </g>
  <g id="patch_43">
   <path d="M 136.829186 59.04 
L 230.596628 59.04 
L 230.596628 20.16 
L 136.829186 20.16 
z
" style="fill: #d3d3d3; stroke: #000000; stroke-linejoin: miter"/>
  </g>
  <g id="patch_44">
   <path d="M 239.973372 59.04 
L 333.740814 59.04 
L 333.740814 20.16 
L 239.973372 20.16 
z
" style="fill: #d3d3d3; stroke: #000000; stroke-linejoin: miter"/>
  </g>
  <g id="patch_45">
   <path d="M 343.117558 59.04 
L 436.885 59.04 
L 436.885 20.16 
L 343.117558 20.16 
z
" style="fill: #d3d3d3; stroke: #000000; stroke-linejoin: miter"/>
  </g>
  <g id="patch_46">
   <path d="M 33.685 20.16 
L 230.596628 20.16 
L 230.596628 7.2 
L 33.685 7.2 
z
" style="fill: #d3d3d3; stroke: #000000; stroke-linejoin: miter"/>
  </g>
  <g id="patch_47">
   <path d="M 239.973372 20.16 
L 436.885 20.16 
L 436.885 7.2 
L 239.973372 7.2 
z
" style="fill: #d3d3d3; stroke: #000000; stroke-linejoin: miter"/>
  </g>
  <g id="text_33">
   <!-- Case2 -->
   <g transform="translate(68.234346 28.370125) scale(0.08 -0.08)">
    <defs>
     <path id="DejaVuSans-43" d="M 4122 4306 
L 4122 3641 
Q 3803 3938 3442 4084 
Q 3081 4231 2675 4231 
Q 1875 4231 1450 3742 
Q 1025 3253 1025 2328 
Q 1025 1406 1450 917 
Q 1875 428 2675 428 
Q 3081 428 3442 575 
Q 3803 722 4122 1019 
L 4122 359 
Q 3791 134 3420 21 
Q 3050 -91 2638 -91 
Q 1578 -91 968 557 
Q 359 1206 359 2328 
Q 359 3453 968 4101 
Q 1578 4750 2638 4750 
Q 3056 4750 3426 4639 
Q 3797 4528 4122 4306 
z
" transform="scale(0.015625)"/>
     <path id="DejaVuSans-73" d="M 2834 3397 
L 2834 2853 
Q 2591 2978 2328 3040 
Q 2066 3103 1784 3103 
Q 1356 3103 1142 2972 
Q 928 2841 928 2578 
Q 928 2378 1081 2264 
Q 1234 2150 1697 2047 
L 1894 2003 
Q 2506 1872 2764 1633 
Q 3022 1394 3022 966 
Q 3022 478 2636 193 
Q 2250 -91 1575 -91 
Q 1294 -91 989 -36 
Q 684 19 347 128 
L 347 722 
Q 666 556 975 473 
Q 1284 391 1588 391 
Q 1994 391 2212 530 
Q 2431 669 2431 922 
Q 2431 1156 2273 1281 
Q 2116 1406 1581 1522 
L 1381 1569 
Q 847 1681 609 1914 
Q 372 2147 372 2553 
Q 372 3047 722 3315 
Q 1072 3584 1716 3584 
Q 2034 3584 2315 3537 
Q 2597 3491 2834 3397 
z
" transform="scale(0.015625)"/>
    </defs>
    <use xlink:href="#DejaVuSans-43"/>
    <use xlink:href="#DejaVuSans-61" transform="translate(69.824219 0)"/>
    <use xlink:href="#DejaVuSans-73" transform="translate(131.103516 0)"/>
    <use xlink:href="#DejaVuSans-65" transform="translate(183.203125 0)"/>
    <use xlink:href="#DejaVuSans-32" transform="translate(244.726562 0)"/>
   </g>
   <!-- Fitting loss -->
   <g transform="translate(59.127471 37.328375) scale(0.08 -0.08)">
    <defs>
     <path id="DejaVuSans-46" d="M 628 4666 
L 3309 4666 
L 3309 4134 
L 1259 4134 
L 1259 2759 
L 3109 2759 
L 3109 2228 
L 1259 2228 
L 1259 0 
L 628 0 
L 628 4666 
z
" transform="scale(0.015625)"/>
     <path id="DejaVuSans-69" d="M 603 3500 
L 1178 3500 
L 1178 0 
L 603 0 
L 603 3500 
z
M 603 4863 
L 1178 4863 
L 1178 4134 
L 603 4134 
L 603 4863 
z
" transform="scale(0.015625)"/>
     <path id="DejaVuSans-74" d="M 1172 4494 
L 1172 3500 
L 2356 3500 
L 2356 3053 
L 1172 3053 
L 1172 1153 
Q 1172 725 1289 603 
Q 1406 481 1766 481 
L 2356 481 
L 2356 0 
L 1766 0 
Q 1100 0 847 248 
Q 594 497 594 1153 
L 594 3053 
L 172 3053 
L 172 3500 
L 594 3500 
L 594 4494 
L 1172 4494 
z
" transform="scale(0.015625)"/>
     <path id="DejaVuSans-6e" d="M 3513 2113 
L 3513 0 
L 2938 0 
L 2938 2094 
Q 2938 2591 2744 2837 
Q 2550 3084 2163 3084 
Q 1697 3084 1428 2787 
Q 1159 2491 1159 1978 
L 1159 0 
L 581 0 
L 581 3500 
L 1159 3500 
L 1159 2956 
Q 1366 3272 1645 3428 
Q 1925 3584 2291 3584 
Q 2894 3584 3203 3211 
Q 3513 2838 3513 2113 
z
" transform="scale(0.015625)"/>
     <path id="DejaVuSans-6c" d="M 603 4863 
L 1178 4863 
L 1178 0 
L 603 0 
L 603 4863 
z
" transform="scale(0.015625)"/>
    </defs>
    <use xlink:href="#DejaVuSans-46"/>
    <use xlink:href="#DejaVuSans-69" transform="translate(50.269531 0)"/>
    <use xlink:href="#DejaVuSans-74" transform="translate(78.052734 0)"/>
    <use xlink:href="#DejaVuSans-74" transform="translate(117.261719 0)"/>
    <use xlink:href="#DejaVuSans-69" transform="translate(156.470703 0)"/>
    <use xlink:href="#DejaVuSans-6e" transform="translate(184.253906 0)"/>
    <use xlink:href="#DejaVuSans-67" transform="translate(247.632812 0)"/>
    <use xlink:href="#DejaVuSans-20" transform="translate(311.109375 0)"/>
    <use xlink:href="#DejaVuSans-6c" transform="translate(342.896484 0)"/>
    <use xlink:href="#DejaVuSans-6f" transform="translate(370.679688 0)"/>
    <use xlink:href="#DejaVuSans-73" transform="translate(431.861328 0)"/>
    <use xlink:href="#DejaVuSans-73" transform="translate(483.960938 0)"/>
   </g>
   <!--  -->
   <g transform="translate(80.568721 46.286625) scale(0.08 -0.08)"/>
   <!--  -->
   <g transform="translate(80.568721 55.244875) scale(0.08 -0.08)"/>
  </g>
  <g id="text_34">
   <!-- Case10 -->
   <g transform="translate(168.833532 28.370125) scale(0.08 -0.08)">
    <use xlink:href="#DejaVuSans-43"/>
    <use xlink:href="#DejaVuSans-61" transform="translate(69.824219 0)"/>
    <use xlink:href="#DejaVuSans-73" transform="translate(131.103516 0)"/>
    <use xlink:href="#DejaVuSans-65" transform="translate(183.203125 0)"/>
    <use xlink:href="#DejaVuSans-31" transform="translate(244.726562 0)"/>
    <use xlink:href="#DejaVuSans-30" transform="translate(308.349609 0)"/>
   </g>
   <!-- Fitting loss -->
   <g transform="translate(162.271657 37.328375) scale(0.08 -0.08)">
    <use xlink:href="#DejaVuSans-46"/>
    <use xlink:href="#DejaVuSans-69" transform="translate(50.269531 0)"/>
    <use xlink:href="#DejaVuSans-74" transform="translate(78.052734 0)"/>
    <use xlink:href="#DejaVuSans-74" transform="translate(117.261719 0)"/>
    <use xlink:href="#DejaVuSans-69" transform="translate(156.470703 0)"/>
    <use xlink:href="#DejaVuSans-6e" transform="translate(184.253906 0)"/>
    <use xlink:href="#DejaVuSans-67" transform="translate(247.632812 0)"/>
    <use xlink:href="#DejaVuSans-20" transform="translate(311.109375 0)"/>
    <use xlink:href="#DejaVuSans-6c" transform="translate(342.896484 0)"/>
    <use xlink:href="#DejaVuSans-6f" transform="translate(370.679688 0)"/>
    <use xlink:href="#DejaVuSans-73" transform="translate(431.861328 0)"/>
    <use xlink:href="#DejaVuSans-73" transform="translate(483.960938 0)"/>
   </g>
   <!-- Input mask -->
   <g transform="translate(161.336657 46.286625) scale(0.08 -0.08)">
    <defs>
     <path id="DejaVuSans-70" d="M 1159 525 
L 1159 -1331 
L 581 -1331 
L 581 3500 
L 1159 3500 
L 1159 2969 
Q 1341 3281 1617 3432 
Q 1894 3584 2278 3584 
Q 2916 3584 3314 3078 
Q 3713 2572 3713 1747 
Q 3713 922 3314 415 
Q 2916 -91 2278 -91 
Q 1894 -91 1617 61 
Q 1341 213 1159 525 
z
M 3116 1747 
Q 3116 2381 2855 2742 
Q 2594 3103 2138 3103 
Q 1681 3103 1420 2742 
Q 1159 2381 1159 1747 
Q 1159 1113 1420 752 
Q 1681 391 2138 391 
Q 2594 391 2855 752 
Q 3116 1113 3116 1747 
z
" transform="scale(0.015625)"/>
     <path id="DejaVuSans-75" d="M 544 1381 
L 544 3500 
L 1119 3500 
L 1119 1403 
Q 1119 906 1312 657 
Q 1506 409 1894 409 
Q 2359 409 2629 706 
Q 2900 1003 2900 1516 
L 2900 3500 
L 3475 3500 
L 3475 0 
L 2900 0 
L 2900 538 
Q 2691 219 2414 64 
Q 2138 -91 1772 -91 
Q 1169 -91 856 284 
Q 544 659 544 1381 
z
M 1991 3584 
L 1991 3584 
z
" transform="scale(0.015625)"/>
     <path id="DejaVuSans-6d" d="M 3328 2828 
Q 3544 3216 3844 3400 
Q 4144 3584 4550 3584 
Q 5097 3584 5394 3201 
Q 5691 2819 5691 2113 
L 5691 0 
L 5113 0 
L 5113 2094 
Q 5113 2597 4934 2840 
Q 4756 3084 4391 3084 
Q 3944 3084 3684 2787 
Q 3425 2491 3425 1978 
L 3425 0 
L 2847 0 
L 2847 2094 
Q 2847 2600 2669 2842 
Q 2491 3084 2119 3084 
Q 1678 3084 1418 2786 
Q 1159 2488 1159 1978 
L 1159 0 
L 581 0 
L 581 3500 
L 1159 3500 
L 1159 2956 
Q 1356 3278 1631 3431 
Q 1906 3584 2284 3584 
Q 2666 3584 2933 3390 
Q 3200 3197 3328 2828 
z
" transform="scale(0.015625)"/>
    </defs>
    <use xlink:href="#DejaVuSans-49"/>
    <use xlink:href="#DejaVuSans-6e" transform="translate(29.492188 0)"/>
    <use xlink:href="#DejaVuSans-70" transform="translate(92.871094 0)"/>
    <use xlink:href="#DejaVuSans-75" transform="translate(156.347656 0)"/>
    <use xlink:href="#DejaVuSans-74" transform="translate(219.726562 0)"/>
    <use xlink:href="#DejaVuSans-20" transform="translate(258.935547 0)"/>
    <use xlink:href="#DejaVuSans-6d" transform="translate(290.722656 0)"/>
    <use xlink:href="#DejaVuSans-61" transform="translate(388.134766 0)"/>
    <use xlink:href="#DejaVuSans-73" transform="translate(449.414062 0)"/>
    <use xlink:href="#DejaVuSans-6b" transform="translate(501.513672 0)"/>
   </g>
   <!-- CG loss -->
   <g transform="translate(168.822907 55.244875) scale(0.08 -0.08)">
    <defs>
     <path id="DejaVuSans-47" d="M 3809 666 
L 3809 1919 
L 2778 1919 
L 2778 2438 
L 4434 2438 
L 4434 434 
Q 4069 175 3628 42 
Q 3188 -91 2688 -91 
Q 1594 -91 976 548 
Q 359 1188 359 2328 
Q 359 3472 976 4111 
Q 1594 4750 2688 4750 
Q 3144 4750 3555 4637 
Q 3966 4525 4313 4306 
L 4313 3634 
Q 3963 3931 3569 4081 
Q 3175 4231 2741 4231 
Q 1884 4231 1454 3753 
Q 1025 3275 1025 2328 
Q 1025 1384 1454 906 
Q 1884 428 2741 428 
Q 3075 428 3337 486 
Q 3600 544 3809 666 
z
" transform="scale(0.015625)"/>
    </defs>
    <use xlink:href="#DejaVuSans-43"/>
    <use xlink:href="#DejaVuSans-47" transform="translate(69.824219 0)"/>
    <use xlink:href="#DejaVuSans-20" transform="translate(147.314453 0)"/>
    <use xlink:href="#DejaVuSans-6c" transform="translate(179.101562 0)"/>
    <use xlink:href="#DejaVuSans-6f" transform="translate(206.884766 0)"/>
    <use xlink:href="#DejaVuSans-73" transform="translate(268.066406 0)"/>
    <use xlink:href="#DejaVuSans-73" transform="translate(320.166016 0)"/>
   </g>
  </g>
  <g id="text_35">
   <!-- Case13 -->
   <g transform="translate(271.977718 28.370125) scale(0.08 -0.08)">
    <use xlink:href="#DejaVuSans-43"/>
    <use xlink:href="#DejaVuSans-61" transform="translate(69.824219 0)"/>
    <use xlink:href="#DejaVuSans-73" transform="translate(131.103516 0)"/>
    <use xlink:href="#DejaVuSans-65" transform="translate(183.203125 0)"/>
    <use xlink:href="#DejaVuSans-31" transform="translate(244.726562 0)"/>
    <use xlink:href="#DejaVuSans-33" transform="translate(308.349609 0)"/>
   </g>
   <!-- Fitting loss -->
   <g transform="translate(265.415843 37.328375) scale(0.08 -0.08)">
    <use xlink:href="#DejaVuSans-46"/>
    <use xlink:href="#DejaVuSans-69" transform="translate(50.269531 0)"/>
    <use xlink:href="#DejaVuSans-74" transform="translate(78.052734 0)"/>
    <use xlink:href="#DejaVuSans-74" transform="translate(117.261719 0)"/>
    <use xlink:href="#DejaVuSans-69" transform="translate(156.470703 0)"/>
    <use xlink:href="#DejaVuSans-6e" transform="translate(184.253906 0)"/>
    <use xlink:href="#DejaVuSans-67" transform="translate(247.632812 0)"/>
    <use xlink:href="#DejaVuSans-20" transform="translate(311.109375 0)"/>
    <use xlink:href="#DejaVuSans-6c" transform="translate(342.896484 0)"/>
    <use xlink:href="#DejaVuSans-6f" transform="translate(370.679688 0)"/>
    <use xlink:href="#DejaVuSans-73" transform="translate(431.861328 0)"/>
    <use xlink:href="#DejaVuSans-73" transform="translate(483.960938 0)"/>
   </g>
   <!--  -->
   <g transform="translate(286.857093 46.286625) scale(0.08 -0.08)"/>
   <!--  -->
   <g transform="translate(286.857093 55.244875) scale(0.08 -0.08)"/>
  </g>
  <g id="text_36">
   <!-- Case17 -->
   <g transform="translate(375.121904 28.370125) scale(0.08 -0.08)">
    <defs>
     <path id="DejaVuSans-37" d="M 525 4666 
L 3525 4666 
L 3525 4397 
L 1831 0 
L 1172 0 
L 2766 4134 
L 525 4134 
L 525 4666 
z
" transform="scale(0.015625)"/>
    </defs>
    <use xlink:href="#DejaVuSans-43"/>
    <use xlink:href="#DejaVuSans-61" transform="translate(69.824219 0)"/>
    <use xlink:href="#DejaVuSans-73" transform="translate(131.103516 0)"/>
    <use xlink:href="#DejaVuSans-65" transform="translate(183.203125 0)"/>
    <use xlink:href="#DejaVuSans-31" transform="translate(244.726562 0)"/>
    <use xlink:href="#DejaVuSans-37" transform="translate(308.349609 0)"/>
   </g>
   <!-- Fitting loss -->
   <g transform="translate(368.560029 37.328375) scale(0.08 -0.08)">
    <use xlink:href="#DejaVuSans-46"/>
    <use xlink:href="#DejaVuSans-69" transform="translate(50.269531 0)"/>
    <use xlink:href="#DejaVuSans-74" transform="translate(78.052734 0)"/>
    <use xlink:href="#DejaVuSans-74" transform="translate(117.261719 0)"/>
    <use xlink:href="#DejaVuSans-69" transform="translate(156.470703 0)"/>
    <use xlink:href="#DejaVuSans-6e" transform="translate(184.253906 0)"/>
    <use xlink:href="#DejaVuSans-67" transform="translate(247.632812 0)"/>
    <use xlink:href="#DejaVuSans-20" transform="translate(311.109375 0)"/>
    <use xlink:href="#DejaVuSans-6c" transform="translate(342.896484 0)"/>
    <use xlink:href="#DejaVuSans-6f" transform="translate(370.679688 0)"/>
    <use xlink:href="#DejaVuSans-73" transform="translate(431.861328 0)"/>
    <use xlink:href="#DejaVuSans-73" transform="translate(483.960938 0)"/>
   </g>
   <!-- Input mask -->
   <g transform="translate(367.625029 46.286625) scale(0.08 -0.08)">
    <use xlink:href="#DejaVuSans-49"/>
    <use xlink:href="#DejaVuSans-6e" transform="translate(29.492188 0)"/>
    <use xlink:href="#DejaVuSans-70" transform="translate(92.871094 0)"/>
    <use xlink:href="#DejaVuSans-75" transform="translate(156.347656 0)"/>
    <use xlink:href="#DejaVuSans-74" transform="translate(219.726562 0)"/>
    <use xlink:href="#DejaVuSans-20" transform="translate(258.935547 0)"/>
    <use xlink:href="#DejaVuSans-6d" transform="translate(290.722656 0)"/>
    <use xlink:href="#DejaVuSans-61" transform="translate(388.134766 0)"/>
    <use xlink:href="#DejaVuSans-73" transform="translate(449.414062 0)"/>
    <use xlink:href="#DejaVuSans-6b" transform="translate(501.513672 0)"/>
   </g>
   <!-- CG loss -->
   <g transform="translate(375.111279 55.244875) scale(0.08 -0.08)">
    <use xlink:href="#DejaVuSans-43"/>
    <use xlink:href="#DejaVuSans-47" transform="translate(69.824219 0)"/>
    <use xlink:href="#DejaVuSans-20" transform="translate(147.314453 0)"/>
    <use xlink:href="#DejaVuSans-6c" transform="translate(179.101562 0)"/>
    <use xlink:href="#DejaVuSans-6f" transform="translate(206.884766 0)"/>
    <use xlink:href="#DejaVuSans-73" transform="translate(268.066406 0)"/>
    <use xlink:href="#DejaVuSans-73" transform="translate(320.166016 0)"/>
   </g>
  </g>
  <g id="text_37">
   <!-- Sparse training set -->
   <g transform="translate(94.270189 15.8875) scale(0.08 -0.08)">
    <defs>
     <path id="DejaVuSans-53" d="M 3425 4513 
L 3425 3897 
Q 3066 4069 2747 4153 
Q 2428 4238 2131 4238 
Q 1616 4238 1336 4038 
Q 1056 3838 1056 3469 
Q 1056 3159 1242 3001 
Q 1428 2844 1947 2747 
L 2328 2669 
Q 3034 2534 3370 2195 
Q 3706 1856 3706 1288 
Q 3706 609 3251 259 
Q 2797 -91 1919 -91 
Q 1588 -91 1214 -16 
Q 841 59 441 206 
L 441 856 
Q 825 641 1194 531 
Q 1563 422 1919 422 
Q 2459 422 2753 634 
Q 3047 847 3047 1241 
Q 3047 1584 2836 1778 
Q 2625 1972 2144 2069 
L 1759 2144 
Q 1053 2284 737 2584 
Q 422 2884 422 3419 
Q 422 4038 858 4394 
Q 1294 4750 2059 4750 
Q 2388 4750 2728 4690 
Q 3069 4631 3425 4513 
z
" transform="scale(0.015625)"/>
    </defs>
    <use xlink:href="#DejaVuSans-53"/>
    <use xlink:href="#DejaVuSans-70" transform="translate(63.476562 0)"/>
    <use xlink:href="#DejaVuSans-61" transform="translate(126.953125 0)"/>
    <use xlink:href="#DejaVuSans-72" transform="translate(188.232422 0)"/>
    <use xlink:href="#DejaVuSans-73" transform="translate(229.345703 0)"/>
    <use xlink:href="#DejaVuSans-65" transform="translate(281.445312 0)"/>
    <use xlink:href="#DejaVuSans-20" transform="translate(342.96875 0)"/>
    <use xlink:href="#DejaVuSans-74" transform="translate(374.755859 0)"/>
    <use xlink:href="#DejaVuSans-72" transform="translate(413.964844 0)"/>
    <use xlink:href="#DejaVuSans-61" transform="translate(455.078125 0)"/>
    <use xlink:href="#DejaVuSans-69" transform="translate(516.357422 0)"/>
    <use xlink:href="#DejaVuSans-6e" transform="translate(544.140625 0)"/>
    <use xlink:href="#DejaVuSans-69" transform="translate(607.519531 0)"/>
    <use xlink:href="#DejaVuSans-6e" transform="translate(635.302734 0)"/>
    <use xlink:href="#DejaVuSans-67" transform="translate(698.681641 0)"/>
    <use xlink:href="#DejaVuSans-20" transform="translate(762.158203 0)"/>
    <use xlink:href="#DejaVuSans-73" transform="translate(793.945312 0)"/>
    <use xlink:href="#DejaVuSans-65" transform="translate(846.044922 0)"/>
    <use xlink:href="#DejaVuSans-74" transform="translate(907.568359 0)"/>
   </g>
  </g>
  <g id="text_38">
   <!-- Augmented training set -->
   <g transform="translate(291.006061 15.8875) scale(0.08 -0.08)">
    <defs>
     <path id="DejaVuSans-41" d="M 2188 4044 
L 1331 1722 
L 3047 1722 
L 2188 4044 
z
M 1831 4666 
L 2547 4666 
L 4325 0 
L 3669 0 
L 3244 1197 
L 1141 1197 
L 716 0 
L 50 0 
L 1831 4666 
z
" transform="scale(0.015625)"/>
     <path id="DejaVuSans-64" d="M 2906 2969 
L 2906 4863 
L 3481 4863 
L 3481 0 
L 2906 0 
L 2906 525 
Q 2725 213 2448 61 
Q 2172 -91 1784 -91 
Q 1150 -91 751 415 
Q 353 922 353 1747 
Q 353 2572 751 3078 
Q 1150 3584 1784 3584 
Q 2172 3584 2448 3432 
Q 2725 3281 2906 2969 
z
M 947 1747 
Q 947 1113 1208 752 
Q 1469 391 1925 391 
Q 2381 391 2643 752 
Q 2906 1113 2906 1747 
Q 2906 2381 2643 2742 
Q 2381 3103 1925 3103 
Q 1469 3103 1208 2742 
Q 947 2381 947 1747 
z
" transform="scale(0.015625)"/>
    </defs>
    <use xlink:href="#DejaVuSans-41"/>
    <use xlink:href="#DejaVuSans-75" transform="translate(68.408203 0)"/>
    <use xlink:href="#DejaVuSans-67" transform="translate(131.787109 0)"/>
    <use xlink:href="#DejaVuSans-6d" transform="translate(195.263672 0)"/>
    <use xlink:href="#DejaVuSans-65" transform="translate(292.675781 0)"/>
    <use xlink:href="#DejaVuSans-6e" transform="translate(354.199219 0)"/>
    <use xlink:href="#DejaVuSans-74" transform="translate(417.578125 0)"/>
    <use xlink:href="#DejaVuSans-65" transform="translate(456.787109 0)"/>
    <use xlink:href="#DejaVuSans-64" transform="translate(518.310547 0)"/>
    <use xlink:href="#DejaVuSans-20" transform="translate(581.787109 0)"/>
    <use xlink:href="#DejaVuSans-74" transform="translate(613.574219 0)"/>
    <use xlink:href="#DejaVuSans-72" transform="translate(652.783203 0)"/>
    <use xlink:href="#DejaVuSans-61" transform="translate(693.896484 0)"/>
    <use xlink:href="#DejaVuSans-69" transform="translate(755.175781 0)"/>
    <use xlink:href="#DejaVuSans-6e" transform="translate(782.958984 0)"/>
    <use xlink:href="#DejaVuSans-69" transform="translate(846.337891 0)"/>
    <use xlink:href="#DejaVuSans-6e" transform="translate(874.121094 0)"/>
    <use xlink:href="#DejaVuSans-67" transform="translate(937.5 0)"/>
    <use xlink:href="#DejaVuSans-20" transform="translate(1000.976562 0)"/>
    <use xlink:href="#DejaVuSans-73" transform="translate(1032.763672 0)"/>
    <use xlink:href="#DejaVuSans-65" transform="translate(1084.863281 0)"/>
    <use xlink:href="#DejaVuSans-74" transform="translate(1146.386719 0)"/>
   </g>
  </g>
  <g id="legend_1">
   <g id="line2d_65">
    <path d="M 74.56375 244.97625 
L 82.56375 244.97625 
L 90.56375 244.97625 
" style="fill: none"/>
    <defs>
     <path id="mdbda4f32ce" d="M 0 2 
C 0.530406 2 1.03916 1.789267 1.414214 1.414214 
C 1.789267 1.03916 2 0.530406 2 0 
C 2 -0.530406 1.789267 -1.03916 1.414214 -1.414214 
C 1.03916 -1.789267 0.530406 -2 0 -2 
C -0.530406 -2 -1.03916 -1.789267 -1.414214 -1.414214 
C -1.789267 -1.03916 -2 -0.530406 -2 0 
C -2 0.530406 -1.789267 1.03916 -1.414214 1.414214 
C -1.03916 1.789267 -0.530406 2 0 2 
z
"/>
    </defs>
    <g>
     <use xlink:href="#mdbda4f32ce" x="82.56375" y="244.97625" style="fill: #808080"/>
    </g>
   </g>
   <g id="text_39">
    <!-- Observation -->
    <g transform="translate(96.96375 247.77625) scale(0.08 -0.08)">
     <defs>
      <path id="DejaVuSans-4f" d="M 2522 4238 
Q 1834 4238 1429 3725 
Q 1025 3213 1025 2328 
Q 1025 1447 1429 934 
Q 1834 422 2522 422 
Q 3209 422 3611 934 
Q 4013 1447 4013 2328 
Q 4013 3213 3611 3725 
Q 3209 4238 2522 4238 
z
M 2522 4750 
Q 3503 4750 4090 4092 
Q 4678 3434 4678 2328 
Q 4678 1225 4090 567 
Q 3503 -91 2522 -91 
Q 1538 -91 948 565 
Q 359 1222 359 2328 
Q 359 3434 948 4092 
Q 1538 4750 2522 4750 
z
" transform="scale(0.015625)"/>
      <path id="DejaVuSans-76" d="M 191 3500 
L 800 3500 
L 1894 563 
L 2988 3500 
L 3597 3500 
L 2284 0 
L 1503 0 
L 191 3500 
z
" transform="scale(0.015625)"/>
     </defs>
     <use xlink:href="#DejaVuSans-4f"/>
     <use xlink:href="#DejaVuSans-62" transform="translate(78.710938 0)"/>
     <use xlink:href="#DejaVuSans-73" transform="translate(142.1875 0)"/>
     <use xlink:href="#DejaVuSans-65" transform="translate(194.287109 0)"/>
     <use xlink:href="#DejaVuSans-72" transform="translate(255.810547 0)"/>
     <use xlink:href="#DejaVuSans-76" transform="translate(296.923828 0)"/>
     <use xlink:href="#DejaVuSans-61" transform="translate(356.103516 0)"/>
     <use xlink:href="#DejaVuSans-74" transform="translate(417.382812 0)"/>
     <use xlink:href="#DejaVuSans-69" transform="translate(456.591797 0)"/>
     <use xlink:href="#DejaVuSans-6f" transform="translate(484.375 0)"/>
     <use xlink:href="#DejaVuSans-6e" transform="translate(545.556641 0)"/>
    </g>
   </g>
   <g id="line2d_66">
    <path d="M 161.68 244.97625 
L 169.68 244.97625 
L 177.68 244.97625 
" style="fill: none; stroke: #808080; stroke-linecap: square"/>
   </g>
   <g id="text_40">
    <!-- ORYZA2000 -->
    <g transform="translate(184.08 247.77625) scale(0.08 -0.08)">
     <defs>
      <path id="DejaVuSans-52" d="M 2841 2188 
Q 3044 2119 3236 1894 
Q 3428 1669 3622 1275 
L 4263 0 
L 3584 0 
L 2988 1197 
Q 2756 1666 2539 1819 
Q 2322 1972 1947 1972 
L 1259 1972 
L 1259 0 
L 628 0 
L 628 4666 
L 2053 4666 
Q 2853 4666 3247 4331 
Q 3641 3997 3641 3322 
Q 3641 2881 3436 2590 
Q 3231 2300 2841 2188 
z
M 1259 4147 
L 1259 2491 
L 2053 2491 
Q 2509 2491 2742 2702 
Q 2975 2913 2975 3322 
Q 2975 3731 2742 3939 
Q 2509 4147 2053 4147 
L 1259 4147 
z
" transform="scale(0.015625)"/>
      <path id="DejaVuSans-5a" d="M 359 4666 
L 4025 4666 
L 4025 4184 
L 1075 531 
L 4097 531 
L 4097 0 
L 288 0 
L 288 481 
L 3238 4134 
L 359 4134 
L 359 4666 
z
" transform="scale(0.015625)"/>
     </defs>
     <use xlink:href="#DejaVuSans-4f"/>
     <use xlink:href="#DejaVuSans-52" transform="translate(78.710938 0)"/>
     <use xlink:href="#DejaVuSans-59" transform="translate(141.818359 0)"/>
     <use xlink:href="#DejaVuSans-5a" transform="translate(202.902344 0)"/>
     <use xlink:href="#DejaVuSans-41" transform="translate(271.408203 0)"/>
     <use xlink:href="#DejaVuSans-32" transform="translate(339.816406 0)"/>
     <use xlink:href="#DejaVuSans-30" transform="translate(403.439453 0)"/>
     <use xlink:href="#DejaVuSans-30" transform="translate(467.0625 0)"/>
     <use xlink:href="#DejaVuSans-30" transform="translate(530.685547 0)"/>
    </g>
   </g>
   <g id="line2d_67">
    <path d="M 247.625 244.97625 
L 255.625 244.97625 
L 263.625 244.97625 
" style="fill: none; stroke: #0000ff; stroke-linecap: square"/>
   </g>
   <g id="text_41">
    <!-- LSTM -->
    <g transform="translate(270.025 247.77625) scale(0.08 -0.08)">
     <defs>
      <path id="DejaVuSans-54" d="M -19 4666 
L 3928 4666 
L 3928 4134 
L 2272 4134 
L 2272 0 
L 1638 0 
L 1638 4134 
L -19 4134 
L -19 4666 
z
" transform="scale(0.015625)"/>
      <path id="DejaVuSans-4d" d="M 628 4666 
L 1569 4666 
L 2759 1491 
L 3956 4666 
L 4897 4666 
L 4897 0 
L 4281 0 
L 4281 4097 
L 3078 897 
L 2444 897 
L 1241 4097 
L 1241 0 
L 628 0 
L 628 4666 
z
" transform="scale(0.015625)"/>
     </defs>
     <use xlink:href="#DejaVuSans-4c"/>
     <use xlink:href="#DejaVuSans-53" transform="translate(55.712891 0)"/>
     <use xlink:href="#DejaVuSans-54" transform="translate(119.189453 0)"/>
     <use xlink:href="#DejaVuSans-4d" transform="translate(180.273438 0)"/>
    </g>
   </g>
   <g id="line2d_68">
    <path d="M 307.35 244.97625 
L 315.35 244.97625 
L 323.35 244.97625 
" style="fill: none; stroke: #ff0000; stroke-linecap: square"/>
   </g>
   <g id="text_42">
    <!-- DeepCGM -->
    <g transform="translate(329.75 247.77625) scale(0.08 -0.08)">
     <use xlink:href="#DejaVuSans-44"/>
     <use xlink:href="#DejaVuSans-65" transform="translate(77.001953 0)"/>
     <use xlink:href="#DejaVuSans-65" transform="translate(138.525391 0)"/>
     <use xlink:href="#DejaVuSans-70" transform="translate(200.048828 0)"/>
     <use xlink:href="#DejaVuSans-43" transform="translate(263.525391 0)"/>
     <use xlink:href="#DejaVuSans-47" transform="translate(333.349609 0)"/>
     <use xlink:href="#DejaVuSans-4d" transform="translate(410.839844 0)"/>
    </g>
   </g>
  </g>
 </g>
 <defs>
  <clipPath id="p81ac3eb8ee">
   <rect x="33.685" y="59.04" width="93.767442" height="70.325581"/>
  </clipPath>
  <clipPath id="pe487d1a288">
   <rect x="136.829186" y="59.04" width="93.767442" height="70.325581"/>
  </clipPath>
  <clipPath id="p78a1a4a6ea">
   <rect x="239.973372" y="59.04" width="93.767442" height="70.325581"/>
  </clipPath>
  <clipPath id="pc43c4ea45b">
   <rect x="343.117558" y="59.04" width="93.767442" height="70.325581"/>
  </clipPath>
  <clipPath id="p0dd79428e2">
   <rect x="33.685" y="139.914419" width="93.767442" height="70.325581"/>
  </clipPath>
  <clipPath id="p7e125949c9">
   <rect x="136.829186" y="139.914419" width="93.767442" height="70.325581"/>
  </clipPath>
  <clipPath id="p91714890fe">
   <rect x="239.973372" y="139.914419" width="93.767442" height="70.325581"/>
  </clipPath>
  <clipPath id="p8aced81de6">
   <rect x="343.117558" y="139.914419" width="93.767442" height="70.325581"/>
  </clipPath>
 </defs>
</svg>
